<?xml version="1.0" encoding="utf-8" standalone="no"?>
<!DOCTYPE svg PUBLIC "-//W3C//DTD SVG 1.1//EN"
  "http://www.w3.org/Graphics/SVG/1.1/DTD/svg11.dtd">
<svg xmlns:xlink="http://www.w3.org/1999/xlink" width="460.8pt" height="345.6pt" viewBox="0 0 460.8 345.6" xmlns="http://www.w3.org/2000/svg" version="1.1">
 <metadata>
  <rdf:RDF xmlns:dc="http://purl.org/dc/elements/1.1/" xmlns:cc="http://creativecommons.org/ns#" xmlns:rdf="http://www.w3.org/1999/02/22-rdf-syntax-ns#">
   <cc:Work>
    <dc:type rdf:resource="http://purl.org/dc/dcmitype/StillImage"/>
    <dc:date>2024-01-22T10:00:01.522173</dc:date>
    <dc:format>image/svg+xml</dc:format>
    <dc:creator>
     <cc:Agent>
      <dc:title>Matplotlib v3.7.4, https://matplotlib.org/</dc:title>
     </cc:Agent>
    </dc:creator>
   </cc:Work>
  </rdf:RDF>
 </metadata>
 <defs>
  <style type="text/css">*{stroke-linejoin: round; stroke-linecap: butt}</style>
 </defs>
 <g id="figure_1">
  <g id="patch_1">
   <path d="M 0 345.6 
L 460.8 345.6 
L 460.8 0 
L 0 0 
z
" style="fill: #ffffff"/>
  </g>
  <g id="axes_1">
   <g id="patch_2">
    <path d="M 278.73792 174.528 
C 278.73792 170.467716 278.157129 166.428228 277.013215 162.532413 
C 275.869301 158.636599 274.173981 154.924366 271.978825 151.508638 
L 240.637353 171.65058 
C 240.911748 172.077546 241.123663 172.541575 241.266652 173.028552 
C 241.409641 173.515528 241.48224 174.020464 241.48224 174.528 
z
" style="fill: #0000ff; fill-opacity: 0.9; stroke: #ffffff; stroke-linejoin: miter"/>
   </g>
   <g id="patch_3">
    <path d="M 271.978825 151.508638 
C 268.679151 146.374245 264.313753 142.008847 259.17936 138.709174 
C 254.044968 135.4095 248.26061 133.252046 242.219468 132.383462 
C 236.178326 131.514877 230.020451 131.955297 224.164411 133.674786 
C 218.308372 135.394274 212.889929 138.352968 208.27739 142.349757 
L 232.674674 170.50572 
C 233.251241 170.006121 233.928547 169.636284 234.660551 169.421348 
C 235.392556 169.206412 236.162291 169.15136 236.917434 169.259933 
C 237.672576 169.368506 238.395621 169.638187 239.03742 170.050647 
C 239.679219 170.463106 240.224894 171.008781 240.637353 171.65058 
z
" style="fill: #fa0005; fill-opacity: 0.9; stroke: #ffffff; stroke-linejoin: miter"/>
   </g>
   <g id="patch_4">
    <path d="M 208.27739 142.349757 
C 202.888766 147.019027 198.758368 152.967932 196.266629 159.648544 
C 193.774889 166.329157 193.000733 173.529875 194.015462 180.587472 
C 195.030192 187.645069 197.801667 194.336001 202.07462 200.043998 
C 206.347573 205.751995 211.986661 210.296259 218.472494 213.258239 
C 224.958327 216.220219 232.08547 217.506097 239.197475 216.997436 
C 246.30948 216.488775 253.18108 214.201687 259.179362 210.346825 
C 265.177644 206.491963 270.112618 201.191427 273.529746 194.933425 
C 276.946874 188.675423 278.73792 181.658172 278.73792 174.528 
L 241.48224 174.528 
C 241.48224 175.419271 241.258359 176.296428 240.831218 177.078678 
C 240.404077 177.860928 239.787206 178.523495 239.03742 179.005353 
C 238.287635 179.487211 237.428685 179.773097 236.539684 179.83668 
C 235.650684 179.900262 234.759791 179.739527 233.949062 179.36928 
C 233.138333 178.999032 232.433447 178.430999 231.899328 177.7175 
C 231.365208 177.004 231.018774 176.167634 230.891933 175.285434 
C 230.765092 174.403234 230.861861 173.503145 231.173329 172.668068 
C 231.484796 171.832991 232.001096 171.089378 232.674674 170.50572 
z
" style="fill: #0af500; fill-opacity: 0.9; stroke: #ffffff; stroke-linejoin: miter"/>
   </g>
   <g id="patch_5">
    <path d="M 300.02688 174.528 
C 300.02688 173.00781 299.972604 171.488105 299.864154 169.971789 
C 299.755705 168.455472 299.593153 166.943511 299.376807 165.438795 
L 278.304538 168.46853 
C 278.448769 169.471674 278.557137 170.479648 278.629436 171.490526 
C 278.701736 172.501403 278.73792 173.51454 278.73792 174.528 
z
" style="fill: #0000ff; fill-opacity: 0.7; stroke: #ffffff; stroke-linejoin: miter"/>
   </g>
   <g id="patch_6">
    <path d="M 299.376807 165.438795 
C 298.943978 162.428404 298.296669 159.452772 297.439822 156.53462 
C 296.582976 153.616469 295.518779 150.763245 294.255357 147.996738 
L 274.890238 156.840492 
C 275.732519 158.68483 276.441984 160.586979 277.013215 162.532413 
C 277.584446 164.477848 278.015986 166.461603 278.304538 168.46853 
z
" style="fill: #2800d7; fill-opacity: 0.7; stroke: #ffffff; stroke-linejoin: miter"/>
   </g>
   <g id="patch_7">
    <path d="M 294.255357 147.996738 
C 293.623848 146.613925 292.943168 145.2541 292.214618 143.919862 
C 291.486069 142.585623 290.710114 141.277822 289.888238 139.998957 
L 271.978825 151.508638 
C 272.526743 152.361215 273.044046 153.233082 273.529745 154.122574 
C 274.015445 155.012067 274.469232 155.918617 274.890238 156.840492 
z
" style="fill: #5000af; fill-opacity: 0.7; stroke: #ffffff; stroke-linejoin: miter"/>
   </g>
   <g id="patch_8">
    <path d="M 289.888238 139.998957 
C 282.429112 128.392332 271.406115 119.509439 258.479186 114.687944 
C 245.552257 109.866449 231.404574 109.361163 218.16662 113.248178 
L 224.164413 133.674785 
C 232.989716 131.083442 242.421505 131.420299 251.039457 134.634629 
C 259.65741 137.848959 267.006075 143.770888 271.978825 151.508638 
z
" style="fill: #fa0005; fill-opacity: 0.7; stroke: #ffffff; stroke-linejoin: miter"/>
   </g>
   <g id="patch_9">
    <path d="M 218.16662 113.248178 
C 216.708009 113.676464 215.265154 114.156693 213.840813 114.687945 
C 212.416471 115.219196 211.011552 115.801133 209.628738 116.432643 
L 218.472492 135.797762 
C 219.394368 135.376755 220.330981 134.988798 221.280542 134.63463 
C 222.230103 134.280462 223.192006 133.96031 224.164413 133.674785 
z
" style="fill: #dc2300; fill-opacity: 0.7; stroke: #ffffff; stroke-linejoin: miter"/>
   </g>
   <g id="patch_10">
    <path d="M 209.628738 116.432643 
C 208.245925 117.064152 206.8861 117.744832 205.551862 118.473382 
C 204.217623 119.201931 202.909822 119.977886 201.630957 120.799762 
L 213.140638 138.709175 
C 213.993215 138.161257 214.865082 137.643954 215.754574 137.158255 
C 216.644067 136.672555 217.550617 136.218768 218.472492 135.797762 
z
" style="fill: #b44b00; fill-opacity: 0.7; stroke: #ffffff; stroke-linejoin: miter"/>
   </g>
   <g id="patch_11">
    <path d="M 201.630957 120.799762 
C 200.352092 121.621639 199.102979 122.488914 197.886004 123.399929 
C 196.66903 124.310945 195.48497 125.265121 194.336087 126.260634 
L 208.277391 142.349756 
C 209.043313 141.686081 209.832686 141.049963 210.644003 140.44262 
C 211.455319 139.835276 212.288061 139.257093 213.140638 138.709175 
z
" style="fill: #8c7300; fill-opacity: 0.7; stroke: #ffffff; stroke-linejoin: miter"/>
   </g>
   <g id="patch_12">
    <path d="M 194.336087 126.260634 
C 186.835799 132.75967 180.952563 140.918343 177.154697 150.087203 
C 173.35683 159.256064 171.747854 169.185193 172.455845 179.08421 
C 173.163837 188.983227 176.169498 198.582311 181.233572 207.117353 
C 186.297646 215.652395 193.2821 222.890752 201.630954 228.256236 
L 213.140636 210.346824 
C 207.574733 206.769835 202.918431 201.944263 199.542382 196.254235 
C 196.166332 190.564207 194.162558 184.164818 193.690564 177.565473 
C 193.218569 170.966128 194.29122 164.346709 196.823131 158.234135 
C 199.355042 152.121562 203.2772 146.682447 208.277391 142.349756 
z
" style="fill: #0af500; fill-opacity: 0.7; stroke: #ffffff; stroke-linejoin: miter"/>
   </g>
   <g id="patch_13">
    <path d="M 201.630954 228.256236 
C 206.754547 231.54897 212.322896 234.09195 218.166617 235.807822 
C 224.010338 237.523693 230.069571 238.39488 236.159997 238.39488 
L 236.159998 217.10592 
C 232.099714 217.10592 228.060226 216.525129 224.164411 215.381214 
C 220.268597 214.2373 216.556365 212.54198 213.140636 210.346824 
z
" style="fill: #00ff00; fill-opacity: 0.7; stroke: #ffffff; stroke-linejoin: miter"/>
   </g>
   <g id="patch_14">
    <path d="M 236.159997 238.39488 
C 237.680187 238.39488 239.199892 238.340604 240.716208 238.232155 
C 242.232525 238.123706 243.744486 237.961153 245.249202 237.744808 
L 242.219468 216.672538 
C 241.216324 216.816769 240.20835 216.925137 239.197472 216.997436 
C 238.186595 217.069736 237.173458 217.10592 236.159998 217.10592 
z
" style="fill: #00ff00; fill-opacity: 0.7; stroke: #ffffff; stroke-linejoin: miter"/>
   </g>
   <g id="patch_15">
    <path d="M 245.249202 237.744808 
C 257.366861 236.002552 268.731822 230.812348 277.983911 222.795368 
C 287.235999 214.778388 293.990777 204.267749 297.439822 192.52138 
L 277.013215 186.523587 
C 274.713851 194.3545 270.210666 201.361592 264.042607 206.706246 
C 257.874548 212.050899 250.297907 215.511035 242.219468 216.672538 
z
" style="fill: #00ff00; fill-opacity: 0.7; stroke: #ffffff; stroke-linejoin: miter"/>
   </g>
   <g id="patch_16">
    <path d="M 297.439822 192.52138 
C 298.296669 189.603228 298.943978 186.627596 299.376807 183.617205 
C 299.809636 180.606814 300.02688 177.569347 300.02688 174.528 
L 278.73792 174.528 
C 278.73792 176.555565 278.593091 178.580543 278.304538 180.58747 
C 278.015986 182.594397 277.584446 184.578152 277.013215 186.523587 
z
" style="fill: #00ff00; fill-opacity: 0.7; stroke: #ffffff; stroke-linejoin: miter"/>
   </g>
   <g id="matplotlib.axis_1"/>
   <g id="matplotlib.axis_2"/>
   <g id="text_1">
    <!-- 9.1% -->
    <g style="fill: #ffffff" transform="translate(246.373304 174.354728) scale(0.12 -0.12)">
     <defs>
      <path id="STIXGeneral-Bold-39" d="M 198 -83 
L 198 83 
Q 883 224 1296 627 
Q 1709 1030 1914 1747 
Q 1677 1626 1350 1626 
Q 819 1626 492 1981 
Q 166 2336 166 2938 
Q 166 3558 556 3980 
Q 947 4403 1542 4403 
Q 2214 4403 2620 3891 
Q 3027 3379 3027 2522 
Q 3027 1350 2099 621 
Q 1670 282 1289 141 
Q 909 0 198 -83 
z
M 2029 2950 
Q 2029 3699 1869 4019 
Q 1760 4230 1523 4230 
Q 1306 4230 1222 4035 
Q 1139 3840 1139 3283 
Q 1139 2541 1264 2227 
Q 1389 1914 1683 1914 
Q 1862 1914 1946 1971 
Q 1971 1984 1978 2099 
Q 2029 2298 2029 2650 
L 2029 2950 
z
" transform="scale(0.015625)"/>
      <path id="STIXGeneral-Bold-2e" d="M 1184 838 
Q 1344 678 1344 454 
Q 1344 230 1184 73 
Q 1024 -83 800 -83 
Q 570 -83 416 70 
Q 262 224 262 454 
Q 262 678 422 838 
Q 582 998 806 998 
Q 1024 998 1184 838 
z
" transform="scale(0.015625)"/>
      <path id="STIXGeneral-Bold-31" d="M 2822 0 
L 435 0 
L 435 154 
Q 909 160 1049 285 
Q 1190 410 1190 826 
L 1190 3245 
Q 1190 3693 960 3693 
Q 806 3693 544 3590 
L 416 3539 
L 416 3706 
L 2022 4403 
L 2138 4403 
L 2138 755 
Q 2138 390 2262 275 
Q 2387 160 2822 154 
L 2822 0 
z
" transform="scale(0.015625)"/>
      <path id="STIXGeneral-Bold-25" d="M 4403 1370 
Q 4403 1030 4278 704 
Q 4154 378 3936 154 
Q 3686 -115 3302 -115 
Q 2938 -115 2710 131 
Q 2483 378 2483 768 
Q 2483 1312 2857 1721 
Q 3232 2131 3731 2131 
Q 4045 2131 4224 1929 
Q 4403 1728 4403 1370 
z
M 4243 1408 
Q 4243 1632 4134 1776 
Q 4026 1920 3866 1920 
Q 3667 1920 3469 1626 
Q 3315 1395 3212 1068 
Q 3110 742 3110 486 
Q 3110 64 3430 64 
Q 3712 64 3936 390 
Q 4243 864 4243 1408 
z
M 4006 4518 
L 1203 -186 
L 896 -186 
L 3379 4006 
Q 3021 3738 2656 3738 
Q 2483 3738 2272 3821 
Q 2291 3635 2291 3552 
Q 2291 3213 2166 2877 
Q 2042 2541 1843 2342 
Q 1562 2061 1197 2061 
Q 838 2061 614 2310 
Q 390 2560 390 2950 
Q 390 3494 768 3904 
Q 1146 4314 1651 4314 
Q 1875 4314 2106 4128 
Q 2349 3936 2637 3936 
Q 2950 3936 3203 4073 
Q 3456 4211 3699 4518 
L 4006 4518 
z
M 2125 3584 
Q 2125 3744 2086 3811 
Q 2048 3878 1920 3930 
Q 1850 3962 1786 4000 
Q 1696 4058 1658 4058 
Q 1453 4058 1229 3581 
Q 1005 3104 1005 2675 
Q 1005 2253 1325 2253 
Q 1632 2253 1878 2662 
Q 2125 3072 2125 3584 
z
" transform="scale(0.015625)"/>
     </defs>
     <use xlink:href="#STIXGeneral-Bold-39"/>
     <use xlink:href="#STIXGeneral-Bold-2e" x="49.999985"/>
     <use xlink:href="#STIXGeneral-Bold-31" x="74.999969"/>
     <use xlink:href="#STIXGeneral-Bold-25" x="124.999954"/>
    </g>
   </g>
   <g id="text_2">
    <!-- 27.3% -->
    <g style="fill: #ffffff" transform="translate(237.674867 166.81749) scale(0.12 -0.12)">
     <defs>
      <path id="STIXGeneral-Bold-32" d="M 3059 1350 
L 2765 0 
L 109 0 
L 109 147 
Q 806 890 1078 1213 
Q 1350 1536 1594 1914 
Q 1920 2413 1920 2861 
Q 1920 3206 1721 3440 
Q 1523 3674 1158 3674 
Q 666 3674 378 3098 
L 198 3098 
Q 634 4403 1626 4403 
Q 2150 4403 2470 4086 
Q 2790 3770 2790 3232 
Q 2790 2528 2061 1837 
L 1024 851 
L 1920 851 
Q 2438 851 2608 934 
Q 2778 1018 2899 1350 
L 3059 1350 
z
" transform="scale(0.015625)"/>
      <path id="STIXGeneral-Bold-37" d="M 3053 4326 
L 1549 0 
L 941 0 
L 2221 3450 
L 947 3450 
Q 646 3450 508 3334 
Q 371 3219 275 2906 
L 109 2906 
L 397 4326 
L 3053 4326 
z
" transform="scale(0.015625)"/>
      <path id="STIXGeneral-Bold-33" d="M 371 3354 
L 237 3430 
Q 742 4403 1702 4403 
Q 2176 4403 2464 4144 
Q 2752 3885 2752 3526 
Q 2752 3283 2621 3059 
Q 2490 2835 2214 2714 
Q 2579 2586 2787 2275 
Q 2995 1965 2995 1574 
Q 2995 870 2448 390 
Q 1901 -90 1075 -90 
Q 634 -90 368 67 
Q 102 224 102 486 
Q 102 653 220 761 
Q 339 870 518 870 
Q 806 870 1133 506 
Q 1382 230 1638 230 
Q 1926 230 2096 448 
Q 2266 666 2266 1011 
Q 2266 1491 1952 1786 
Q 1786 1939 1594 2035 
Q 1402 2131 973 2278 
L 973 2387 
Q 1421 2528 1616 2733 
Q 1811 2938 1811 3226 
Q 1811 3885 1178 3885 
Q 922 3885 736 3766 
Q 550 3648 371 3354 
z
" transform="scale(0.015625)"/>
     </defs>
     <use xlink:href="#STIXGeneral-Bold-32"/>
     <use xlink:href="#STIXGeneral-Bold-37" x="49.999985"/>
     <use xlink:href="#STIXGeneral-Bold-2e" x="99.999969"/>
     <use xlink:href="#STIXGeneral-Bold-33" x="124.999954"/>
     <use xlink:href="#STIXGeneral-Bold-25" x="174.999939"/>
    </g>
   </g>
   <g id="text_3">
    <!-- 63.6% -->
    <g style="fill: #ffffff" transform="translate(201.749374 187.036185) scale(0.12 -0.12)">
     <defs>
      <path id="STIXGeneral-Bold-36" d="M 3008 4403 
L 3008 4237 
Q 2310 4096 1900 3693 
Q 1491 3290 1306 2586 
Q 1555 2694 1843 2694 
Q 2387 2694 2713 2348 
Q 3040 2003 3040 1421 
Q 3040 749 2662 333 
Q 2285 -83 1664 -83 
Q 986 -83 582 413 
Q 179 909 179 1754 
Q 179 2874 1069 3654 
Q 1459 3994 1827 4125 
Q 2195 4256 3008 4403 
z
M 2067 1056 
Q 2067 1805 1939 2105 
Q 1811 2406 1498 2406 
Q 1338 2406 1261 2342 
Q 1178 2272 1178 1568 
Q 1178 608 1350 275 
Q 1446 90 1677 90 
Q 1901 90 1984 288 
Q 2067 486 2067 1056 
z
" transform="scale(0.015625)"/>
     </defs>
     <use xlink:href="#STIXGeneral-Bold-36"/>
     <use xlink:href="#STIXGeneral-Bold-33" x="49.999985"/>
     <use xlink:href="#STIXGeneral-Bold-2e" x="99.999969"/>
     <use xlink:href="#STIXGeneral-Bold-36" x="124.999954"/>
     <use xlink:href="#STIXGeneral-Bold-25" x="174.999939"/>
    </g>
   </g>
   <g id="text_4">
    <!-- picking (25%) -->
    <g transform="translate(310.774689 172.126743) rotate(-4.090909) scale(0.12 -0.12)">
     <defs>
      <path id="STIXGeneral-Regular-70" d="M 1018 2931 
L 1018 2438 
Q 1421 2944 1939 2944 
Q 2406 2944 2707 2560 
Q 3008 2176 3008 1581 
Q 3008 883 2621 409 
Q 2234 -64 1664 -64 
Q 1466 -64 1328 -6 
Q 1190 51 1018 211 
L 1018 -794 
Q 1018 -1094 1120 -1180 
Q 1222 -1267 1581 -1274 
L 1581 -1389 
L 32 -1389 
L 32 -1280 
Q 314 -1254 397 -1171 
Q 480 -1088 480 -838 
L 480 2157 
Q 480 2381 429 2451 
Q 378 2522 218 2522 
Q 115 2522 58 2515 
L 58 2618 
Q 506 2752 979 2944 
L 1018 2931 
z
M 1018 2138 
L 1018 563 
Q 1018 422 1238 281 
Q 1459 141 1683 141 
Q 2029 141 2243 467 
Q 2458 794 2458 1325 
Q 2458 1888 2243 2224 
Q 2029 2560 1670 2560 
Q 1446 2560 1232 2419 
Q 1018 2278 1018 2138 
z
" transform="scale(0.015625)"/>
      <path id="STIXGeneral-Regular-69" d="M 1152 4045 
Q 1152 3904 1056 3811 
Q 960 3718 819 3718 
Q 685 3718 592 3811 
Q 499 3904 499 4045 
Q 499 4179 595 4275 
Q 691 4371 826 4371 
Q 966 4371 1059 4275 
Q 1152 4179 1152 4045 
z
M 1619 0 
L 102 0 
L 102 96 
Q 435 115 521 211 
Q 608 307 608 666 
L 608 2118 
Q 608 2342 563 2432 
Q 518 2522 397 2522 
Q 243 2522 128 2490 
L 128 2592 
L 1120 2944 
L 1146 2918 
L 1146 672 
Q 1146 314 1226 218 
Q 1306 122 1619 96 
L 1619 0 
z
" transform="scale(0.015625)"/>
      <path id="STIXGeneral-Regular-63" d="M 2547 998 
L 2637 941 
Q 2362 403 2112 205 
Q 1786 -64 1376 -64 
Q 845 -64 502 336 
Q 160 736 160 1357 
Q 160 2170 698 2618 
Q 1094 2944 1562 2944 
Q 1965 2944 2256 2749 
Q 2547 2554 2547 2285 
Q 2547 2176 2457 2096 
Q 2368 2016 2246 2016 
Q 2022 2016 1939 2310 
L 1901 2451 
Q 1850 2630 1773 2694 
Q 1696 2758 1523 2758 
Q 1133 2758 893 2451 
Q 653 2144 653 1645 
Q 653 1094 928 745 
Q 1203 397 1645 397 
Q 1920 397 2118 528 
Q 2317 659 2547 998 
z
" transform="scale(0.015625)"/>
      <path id="STIXGeneral-Regular-6b" d="M 3232 0 
L 1837 0 
L 1837 96 
L 1958 96 
Q 2093 96 2093 192 
Q 2093 250 2022 339 
L 1062 1606 
L 1062 429 
Q 1062 262 1142 185 
Q 1222 109 1414 102 
L 1542 96 
L 1542 0 
L 45 0 
L 45 96 
Q 390 154 457 214 
Q 525 275 525 525 
L 525 3610 
Q 525 3840 467 3920 
Q 410 4000 250 4000 
Q 211 4000 45 3987 
L 45 4090 
L 237 4141 
Q 621 4243 1037 4371 
L 1062 4358 
L 1062 1670 
L 1939 2451 
Q 2086 2586 2086 2675 
Q 2086 2739 2019 2761 
Q 1952 2784 1766 2790 
L 1766 2880 
L 3072 2880 
L 3072 2784 
Q 2752 2784 2505 2646 
Q 2259 2509 1690 1978 
L 1504 1805 
L 2483 563 
Q 2829 122 3232 96 
L 3232 0 
z
" transform="scale(0.015625)"/>
      <path id="STIXGeneral-Regular-6e" d="M 3104 0 
L 1773 0 
L 1779 96 
Q 2016 115 2096 233 
Q 2176 352 2176 672 
L 2176 1946 
Q 2176 2592 1709 2592 
Q 1549 2592 1408 2515 
Q 1267 2438 1050 2227 
L 1050 461 
Q 1050 269 1136 192 
Q 1222 115 1466 96 
L 1466 0 
L 115 0 
L 115 96 
Q 358 115 435 214 
Q 512 314 512 602 
L 512 2157 
Q 512 2394 467 2483 
Q 422 2573 288 2573 
Q 160 2573 102 2547 
L 102 2656 
Q 550 2784 979 2944 
L 1030 2925 
L 1030 2426 
L 1037 2426 
Q 1491 2944 1958 2944 
Q 2323 2944 2518 2688 
Q 2714 2432 2714 1958 
L 2714 544 
Q 2714 288 2790 205 
Q 2867 122 3104 96 
L 3104 0 
z
" transform="scale(0.015625)"/>
      <path id="STIXGeneral-Regular-67" d="M 3008 2483 
L 2477 2483 
Q 2598 2208 2598 1946 
Q 2598 1453 2265 1203 
Q 1933 954 1600 954 
Q 1530 954 1357 973 
L 1235 986 
Q 1107 947 979 812 
Q 851 678 851 582 
Q 851 435 1350 410 
L 2176 371 
Q 2528 358 2739 172 
Q 2950 -13 2950 -314 
Q 2950 -685 2566 -986 
Q 2035 -1395 1286 -1395 
Q 826 -1395 502 -1212 
Q 179 -1030 179 -774 
Q 179 -595 320 -419 
Q 461 -243 806 6 
Q 602 102 534 172 
Q 467 243 467 346 
Q 467 531 762 787 
Q 909 915 1037 1043 
Q 717 1203 579 1401 
Q 442 1600 442 1901 
Q 442 2336 752 2640 
Q 1062 2944 1510 2944 
Q 1766 2944 2022 2848 
L 2163 2797 
Q 2349 2733 2515 2733 
L 3008 2733 
L 3008 2483 
z
M 973 2163 
L 973 2144 
Q 973 1683 1155 1398 
Q 1338 1114 1632 1114 
Q 1850 1114 1978 1270 
Q 2106 1427 2106 1690 
Q 2106 2112 1914 2464 
Q 1754 2765 1446 2765 
Q 1222 2765 1097 2605 
Q 973 2445 973 2163 
z
M 2771 -410 
Q 2771 -230 2595 -163 
Q 2419 -96 1978 -96 
Q 1344 -96 941 -13 
Q 749 -243 688 -348 
Q 627 -454 627 -563 
Q 627 -774 880 -902 
Q 1133 -1030 1555 -1030 
Q 2099 -1030 2435 -860 
Q 2771 -691 2771 -410 
z
" transform="scale(0.015625)"/>
      <path id="STIXGeneral-Regular-20" transform="scale(0.015625)"/>
      <path id="STIXGeneral-Regular-28" d="M 1946 -1030 
L 1869 -1133 
Q 1126 -710 716 32 
Q 307 774 307 1613 
Q 307 3386 1888 4326 
L 1946 4224 
Q 1293 3667 1075 3126 
Q 858 2586 858 1632 
Q 858 685 1082 96 
Q 1306 -493 1946 -1030 
z
" transform="scale(0.015625)"/>
      <path id="STIXGeneral-Regular-32" d="M 3034 877 
L 2688 0 
L 186 0 
L 186 77 
L 1325 1286 
Q 1773 1754 1965 2144 
Q 2157 2534 2157 2950 
Q 2157 3379 1920 3616 
Q 1683 3853 1267 3853 
Q 922 3853 720 3673 
Q 518 3494 326 3021 
L 192 3053 
Q 301 3648 630 3987 
Q 960 4326 1523 4326 
Q 2054 4326 2380 4006 
Q 2707 3686 2707 3200 
Q 2707 2477 1888 1613 
L 832 486 
L 2330 486 
Q 2541 486 2665 569 
Q 2790 653 2944 915 
L 3034 877 
z
" transform="scale(0.015625)"/>
      <path id="STIXGeneral-Regular-35" d="M 2803 4358 
L 2573 3814 
Q 2534 3731 2400 3731 
L 1158 3731 
L 902 3187 
Q 1606 3053 1920 2896 
Q 2234 2739 2502 2368 
Q 2726 2061 2726 1555 
Q 2726 1094 2576 780 
Q 2426 467 2099 224 
Q 1664 -90 1011 -90 
Q 646 -90 422 19 
Q 198 128 198 307 
Q 198 550 486 550 
Q 717 550 960 352 
Q 1210 147 1414 147 
Q 1747 147 2012 480 
Q 2278 813 2278 1229 
Q 2278 1843 1850 2189 
Q 1293 2637 486 2637 
Q 410 2637 410 2688 
L 416 2720 
L 1114 4237 
L 2438 4237 
Q 2547 4237 2608 4269 
Q 2669 4301 2746 4403 
L 2803 4358 
z
" transform="scale(0.015625)"/>
      <path id="STIXGeneral-Regular-25" d="M 4390 1363 
Q 4390 781 4070 329 
Q 3750 -122 3341 -122 
Q 3014 -122 2790 134 
Q 2566 390 2566 762 
Q 2566 1274 2940 1693 
Q 3315 2112 3776 2112 
Q 4070 2112 4230 1917 
Q 4390 1722 4390 1363 
z
M 4243 1376 
Q 4243 1626 4131 1779 
Q 4019 1933 3840 1933 
Q 3654 1933 3526 1786 
Q 3315 1562 3171 1187 
Q 3027 813 3027 486 
Q 3027 301 3129 176 
Q 3232 51 3386 51 
Q 3718 51 3980 457 
Q 4243 864 4243 1376 
z
M 3974 4518 
L 1222 -115 
L 922 -115 
L 3443 4096 
Q 3264 3891 3094 3811 
Q 2925 3731 2669 3731 
Q 2445 3731 2182 3821 
Q 2208 3674 2208 3539 
Q 2208 3206 2067 2873 
Q 1926 2541 1696 2323 
Q 1453 2086 1146 2086 
Q 826 2086 608 2339 
Q 390 2592 390 2963 
Q 390 3507 761 3916 
Q 1133 4326 1626 4326 
Q 1792 4326 2010 4147 
Q 2310 3898 2624 3898 
Q 2918 3898 3084 3994 
Q 3251 4090 3693 4518 
L 3974 4518 
z
M 2054 3642 
Q 2054 3782 2025 3833 
Q 1997 3885 1894 3936 
Q 1747 4006 1613 4154 
Q 1414 4058 1331 3984 
Q 1248 3910 1152 3750 
Q 845 3264 845 2707 
Q 845 2509 944 2384 
Q 1043 2259 1210 2259 
Q 1549 2259 1801 2675 
Q 2054 3091 2054 3642 
z
" transform="scale(0.015625)"/>
      <path id="STIXGeneral-Regular-29" d="M 186 4224 
L 262 4326 
Q 992 3891 1408 3148 
Q 1824 2406 1824 1581 
Q 1824 -166 243 -1133 
L 186 -1030 
Q 845 -486 1059 54 
Q 1274 595 1274 1562 
Q 1274 2534 1059 3120 
Q 845 3706 186 4224 
z
" transform="scale(0.015625)"/>
     </defs>
     <use xlink:href="#STIXGeneral-Regular-70"/>
     <use xlink:href="#STIXGeneral-Regular-69" x="49.999985"/>
     <use xlink:href="#STIXGeneral-Regular-63" x="77.799973"/>
     <use xlink:href="#STIXGeneral-Regular-6b" x="122.199966"/>
     <use xlink:href="#STIXGeneral-Regular-69" x="172.199951"/>
     <use xlink:href="#STIXGeneral-Regular-6e" x="199.999939"/>
     <use xlink:href="#STIXGeneral-Regular-67" x="249.999924"/>
     <use xlink:href="#STIXGeneral-Regular-20" x="299.999908"/>
     <use xlink:href="#STIXGeneral-Regular-28" x="324.999893"/>
     <use xlink:href="#STIXGeneral-Regular-32" x="358.299881"/>
     <use xlink:href="#STIXGeneral-Regular-35" x="408.299866"/>
     <use xlink:href="#STIXGeneral-Regular-25" x="458.29985"/>
     <use xlink:href="#STIXGeneral-Regular-29" x="532.999832"/>
    </g>
   </g>
   <g id="text_5">
    <!-- placing (50%) -->
    <g transform="translate(308.881116 156.226569) rotate(-16.363637) scale(0.12 -0.12)">
     <defs>
      <path id="STIXGeneral-Regular-6c" d="M 1645 0 
L 134 0 
L 134 96 
Q 435 122 531 221 
Q 627 320 627 589 
L 627 3590 
Q 627 3821 569 3910 
Q 512 4000 358 4000 
Q 224 4000 122 3987 
L 122 4090 
Q 730 4237 1133 4371 
L 1165 4346 
L 1165 557 
Q 1165 288 1254 201 
Q 1344 115 1645 96 
L 1645 0 
z
" transform="scale(0.015625)"/>
      <path id="STIXGeneral-Regular-61" d="M 2829 422 
L 2829 243 
Q 2586 -64 2253 -64 
Q 1888 -64 1843 403 
L 1837 403 
Q 1427 -64 909 -64 
Q 608 -64 422 112 
Q 237 288 237 602 
Q 237 1050 685 1350 
Q 992 1555 1837 1869 
L 1837 2214 
Q 1837 2502 1699 2646 
Q 1562 2790 1338 2790 
Q 1146 2790 1018 2697 
Q 890 2605 890 2477 
Q 890 2419 909 2348 
Q 928 2278 928 2208 
Q 928 2112 841 2029 
Q 755 1946 634 1946 
Q 525 1946 441 2029 
Q 358 2112 358 2240 
Q 358 2547 685 2752 
Q 986 2944 1421 2944 
Q 1939 2944 2176 2656 
Q 2291 2522 2323 2384 
Q 2355 2246 2355 1946 
L 2355 723 
Q 2355 301 2554 301 
Q 2682 301 2829 422 
z
M 1837 813 
L 1837 1715 
Q 1248 1510 1018 1293 
Q 800 1094 800 800 
Q 800 557 921 432 
Q 1043 307 1242 307 
Q 1453 307 1613 410 
Q 1747 506 1792 589 
Q 1837 672 1837 813 
z
" transform="scale(0.015625)"/>
      <path id="STIXGeneral-Regular-30" d="M 3046 2112 
Q 3046 1683 2963 1302 
Q 2880 922 2717 602 
Q 2554 282 2266 96 
Q 1978 -90 1600 -90 
Q 1210 -90 915 108 
Q 621 307 461 640 
Q 301 973 227 1350 
Q 154 1728 154 2150 
Q 154 2746 301 3222 
Q 448 3699 790 4012 
Q 1133 4326 1626 4326 
Q 2253 4326 2649 3712 
Q 3046 3098 3046 2112 
z
M 2432 2080 
Q 2432 3091 2217 3625 
Q 2003 4160 1587 4160 
Q 1190 4160 979 3622 
Q 768 3085 768 2106 
Q 768 1120 979 598 
Q 1190 77 1600 77 
Q 2003 77 2217 598 
Q 2432 1120 2432 2080 
z
" transform="scale(0.015625)"/>
     </defs>
     <use xlink:href="#STIXGeneral-Regular-70"/>
     <use xlink:href="#STIXGeneral-Regular-6c" x="49.999985"/>
     <use xlink:href="#STIXGeneral-Regular-61" x="77.799973"/>
     <use xlink:href="#STIXGeneral-Regular-63" x="122.199966"/>
     <use xlink:href="#STIXGeneral-Regular-69" x="166.59996"/>
     <use xlink:href="#STIXGeneral-Regular-6e" x="194.399948"/>
     <use xlink:href="#STIXGeneral-Regular-67" x="244.399933"/>
     <use xlink:href="#STIXGeneral-Regular-20" x="294.399918"/>
     <use xlink:href="#STIXGeneral-Regular-28" x="319.399902"/>
     <use xlink:href="#STIXGeneral-Regular-35" x="352.69989"/>
     <use xlink:href="#STIXGeneral-Regular-30" x="402.699875"/>
     <use xlink:href="#STIXGeneral-Regular-25" x="452.69986"/>
     <use xlink:href="#STIXGeneral-Regular-29" x="527.399841"/>
    </g>
   </g>
   <g id="text_6">
    <!-- self_localize (25%) -->
    <g transform="translate(292.153372 147.138552) rotate(-28.636364) scale(0.12 -0.12)">
     <defs>
      <path id="STIXGeneral-Regular-73" d="M 998 1926 
L 1664 1523 
Q 1984 1331 2105 1164 
Q 2227 998 2227 736 
Q 2227 416 1961 176 
Q 1696 -64 1331 -64 
Q 1030 -64 864 -6 
Q 691 51 570 51 
Q 461 51 416 -26 
L 333 -26 
L 333 979 
L 435 979 
Q 538 512 730 294 
Q 922 77 1248 77 
Q 1485 77 1632 211 
Q 1779 346 1779 550 
Q 1779 845 1440 1030 
L 1094 1222 
Q 326 1651 326 2150 
Q 326 2522 566 2730 
Q 806 2938 1210 2938 
Q 1491 2938 1638 2867 
Q 1754 2816 1818 2816 
Q 1862 2816 1920 2880 
L 1990 2880 
L 2022 2010 
L 1926 2010 
Q 1818 2445 1654 2621 
Q 1491 2797 1203 2797 
Q 986 2797 854 2688 
Q 723 2579 723 2362 
Q 723 2253 796 2128 
Q 870 2003 998 1926 
z
" transform="scale(0.015625)"/>
      <path id="STIXGeneral-Regular-65" d="M 2611 1050 
L 2714 1005 
Q 2330 -64 1376 -64 
Q 813 -64 486 329 
Q 160 723 160 1389 
Q 160 2074 525 2509 
Q 890 2944 1485 2944 
Q 2061 2944 2374 2502 
Q 2560 2246 2592 1773 
L 621 1773 
Q 646 1370 700 1158 
Q 755 947 915 730 
Q 1184 378 1626 378 
Q 1939 378 2153 531 
Q 2368 685 2611 1050 
z
M 634 1978 
L 1939 1978 
Q 1882 2381 1750 2547 
Q 1619 2714 1312 2714 
Q 1043 2714 864 2525 
Q 685 2336 634 1978 
z
" transform="scale(0.015625)"/>
      <path id="STIXGeneral-Regular-66" d="M 134 2880 
L 659 2880 
Q 666 3264 710 3478 
Q 755 3693 883 3910 
Q 1152 4371 1786 4371 
Q 2074 4371 2262 4259 
Q 2451 4147 2451 3974 
Q 2451 3866 2374 3789 
Q 2298 3712 2182 3712 
Q 2029 3712 1894 3942 
Q 1741 4192 1555 4192 
Q 1197 4192 1197 3622 
L 1197 2880 
L 1978 2880 
L 1978 2675 
L 1197 2675 
L 1197 666 
Q 1197 307 1299 208 
Q 1402 109 1792 96 
L 1792 0 
L 128 0 
L 128 96 
Q 474 115 566 214 
Q 659 314 659 666 
L 659 2675 
L 134 2675 
L 134 2880 
z
" transform="scale(0.015625)"/>
      <path id="STIXGeneral-Regular-5f" d="M 3200 -800 
L 0 -800 
L 0 -480 
L 3200 -480 
L 3200 -800 
z
" transform="scale(0.015625)"/>
      <path id="STIXGeneral-Regular-6f" d="M 3008 1478 
Q 3008 806 2608 371 
Q 2208 -64 1568 -64 
Q 979 -64 582 368 
Q 186 800 186 1459 
Q 186 2125 582 2534 
Q 979 2944 1626 2944 
Q 2221 2944 2614 2537 
Q 3008 2131 3008 1478 
z
M 2432 1306 
Q 2432 2035 2112 2445 
Q 1856 2765 1504 2765 
Q 1171 2765 966 2493 
Q 762 2221 762 1747 
Q 762 928 1101 435 
Q 1318 115 1677 115 
Q 2029 115 2230 432 
Q 2432 749 2432 1306 
z
" transform="scale(0.015625)"/>
      <path id="STIXGeneral-Regular-7a" d="M 2675 870 
L 2579 0 
L 173 0 
L 173 96 
L 1875 2688 
L 1011 2688 
Q 710 2688 604 2582 
Q 499 2477 454 2125 
L 339 2125 
L 365 2880 
L 2579 2880 
L 2579 2784 
L 858 192 
L 1709 192 
Q 2246 192 2387 365 
Q 2477 474 2560 896 
L 2675 870 
z
" transform="scale(0.015625)"/>
     </defs>
     <use xlink:href="#STIXGeneral-Regular-73"/>
     <use xlink:href="#STIXGeneral-Regular-65" x="38.899994"/>
     <use xlink:href="#STIXGeneral-Regular-6c" x="83.299988"/>
     <use xlink:href="#STIXGeneral-Regular-66" x="111.099976"/>
     <use xlink:href="#STIXGeneral-Regular-5f" x="144.399963"/>
     <use xlink:href="#STIXGeneral-Regular-6c" x="194.399948"/>
     <use xlink:href="#STIXGeneral-Regular-6f" x="222.199936"/>
     <use xlink:href="#STIXGeneral-Regular-63" x="272.199921"/>
     <use xlink:href="#STIXGeneral-Regular-61" x="316.599915"/>
     <use xlink:href="#STIXGeneral-Regular-6c" x="360.999908"/>
     <use xlink:href="#STIXGeneral-Regular-69" x="388.799896"/>
     <use xlink:href="#STIXGeneral-Regular-7a" x="416.599884"/>
     <use xlink:href="#STIXGeneral-Regular-65" x="460.999878"/>
     <use xlink:href="#STIXGeneral-Regular-20" x="505.399872"/>
     <use xlink:href="#STIXGeneral-Regular-28" x="530.399857"/>
     <use xlink:href="#STIXGeneral-Regular-32" x="563.699844"/>
     <use xlink:href="#STIXGeneral-Regular-35" x="613.699829"/>
     <use xlink:href="#STIXGeneral-Regular-25" x="663.699814"/>
     <use xlink:href="#STIXGeneral-Regular-29" x="738.399796"/>
    </g>
   </g>
   <g id="text_7">
    <!-- picking (75%) -->
    <g transform="translate(264.971801 105.658573) rotate(-69.545455) scale(0.12 -0.12)">
     <defs>
      <path id="STIXGeneral-Regular-37" d="M 2874 4134 
L 1517 -51 
L 1101 -51 
L 2368 3763 
L 992 3763 
Q 717 3763 582 3667 
Q 448 3571 243 3238 
L 128 3296 
L 512 4237 
L 2874 4237 
L 2874 4134 
z
" transform="scale(0.015625)"/>
     </defs>
     <use xlink:href="#STIXGeneral-Regular-70"/>
     <use xlink:href="#STIXGeneral-Regular-69" x="49.999985"/>
     <use xlink:href="#STIXGeneral-Regular-63" x="77.799973"/>
     <use xlink:href="#STIXGeneral-Regular-6b" x="122.199966"/>
     <use xlink:href="#STIXGeneral-Regular-69" x="172.199951"/>
     <use xlink:href="#STIXGeneral-Regular-6e" x="199.999939"/>
     <use xlink:href="#STIXGeneral-Regular-67" x="249.999924"/>
     <use xlink:href="#STIXGeneral-Regular-20" x="299.999908"/>
     <use xlink:href="#STIXGeneral-Regular-28" x="324.999893"/>
     <use xlink:href="#STIXGeneral-Regular-37" x="358.299881"/>
     <use xlink:href="#STIXGeneral-Regular-35" x="408.299866"/>
     <use xlink:href="#STIXGeneral-Regular-25" x="458.29985"/>
     <use xlink:href="#STIXGeneral-Regular-29" x="532.999832"/>
    </g>
   </g>
   <g id="text_8">
    <!-- base_motion (8%) -->
    <g transform="translate(180.345875 32.884292) rotate(-290.454546) scale(0.12 -0.12)">
     <defs>
      <path id="STIXGeneral-Regular-62" d="M 979 4358 
L 979 2406 
Q 1082 2650 1315 2797 
Q 1549 2944 1843 2944 
Q 2349 2944 2672 2541 
Q 2995 2138 2995 1536 
Q 2995 832 2566 384 
Q 2138 -64 1498 -64 
Q 1107 -64 774 67 
Q 442 198 442 358 
L 442 3622 
Q 442 3859 384 3926 
Q 326 3994 128 3994 
Q 83 3994 19 3981 
L 19 4090 
L 211 4147 
Q 864 4346 947 4371 
L 979 4358 
z
M 979 2035 
L 979 474 
Q 979 326 1161 233 
Q 1344 141 1600 141 
Q 1978 141 2195 416 
Q 2432 710 2432 1261 
Q 2432 1888 2182 2240 
Q 1971 2541 1613 2541 
Q 1357 2541 1168 2390 
Q 979 2240 979 2035 
z
" transform="scale(0.015625)"/>
      <path id="STIXGeneral-Regular-6d" d="M 4960 0 
L 3565 0 
L 3565 96 
Q 3834 122 3907 208 
Q 3981 294 3981 576 
L 3981 1894 
Q 3981 2278 3869 2444 
Q 3757 2611 3488 2611 
Q 3264 2611 3107 2521 
Q 2950 2432 2803 2221 
L 2803 608 
Q 2803 301 2896 201 
Q 2989 102 3264 96 
L 3264 0 
L 1830 0 
L 1830 96 
Q 2112 115 2189 188 
Q 2266 262 2266 550 
L 2266 1901 
Q 2266 2611 1850 2611 
Q 1670 2611 1468 2531 
Q 1267 2451 1171 2336 
Q 1088 2240 1088 2227 
L 1088 448 
Q 1088 243 1177 176 
Q 1267 109 1523 96 
L 1523 0 
L 102 0 
L 102 96 
Q 371 102 460 195 
Q 550 288 550 563 
L 550 2150 
Q 550 2387 499 2480 
Q 448 2573 326 2573 
Q 230 2573 122 2547 
L 122 2656 
Q 557 2778 1011 2944 
L 1062 2925 
L 1062 2451 
L 1075 2451 
Q 1363 2752 1584 2848 
Q 1805 2944 2054 2944 
Q 2560 2944 2733 2406 
Q 3232 2944 3776 2944 
Q 4518 2944 4518 1792 
L 4518 493 
Q 4518 282 4582 202 
Q 4646 122 4794 109 
L 4960 96 
L 4960 0 
z
" transform="scale(0.015625)"/>
      <path id="STIXGeneral-Regular-74" d="M 1702 493 
L 1786 422 
Q 1478 -64 1011 -64 
Q 448 -64 448 749 
L 448 2675 
L 109 2675 
Q 83 2694 83 2720 
Q 83 2771 192 2842 
Q 435 2982 813 3526 
Q 826 3546 874 3606 
Q 922 3667 941 3706 
Q 986 3706 986 3622 
L 986 2880 
L 1632 2880 
L 1632 2675 
L 986 2675 
L 986 845 
Q 986 538 1062 403 
Q 1139 269 1318 269 
Q 1510 269 1702 493 
z
" transform="scale(0.015625)"/>
      <path id="STIXGeneral-Regular-38" d="M 2848 992 
Q 2848 499 2505 204 
Q 2163 -90 1587 -90 
Q 1050 -90 704 204 
Q 358 499 358 954 
Q 358 1293 524 1533 
Q 691 1773 1190 2125 
Q 710 2522 553 2765 
Q 397 3008 397 3328 
Q 397 3782 745 4054 
Q 1094 4326 1638 4326 
Q 2106 4326 2410 4060 
Q 2714 3795 2714 3411 
Q 2714 3059 2531 2848 
Q 2349 2637 1856 2374 
Q 2432 1990 2640 1689 
Q 2848 1389 2848 992 
z
M 2272 3411 
Q 2272 3744 2086 3945 
Q 1901 4147 1574 4147 
Q 1248 4147 1059 3977 
Q 870 3808 870 3513 
Q 870 3219 1059 2979 
Q 1248 2739 1670 2490 
Q 1997 2682 2134 2896 
Q 2272 3110 2272 3411 
z
M 1734 1741 
L 1357 1997 
Q 1075 1766 960 1545 
Q 845 1325 845 1011 
Q 845 576 1065 333 
Q 1286 90 1658 90 
Q 1971 90 2166 285 
Q 2362 480 2362 794 
Q 2362 1082 2214 1299 
Q 2067 1517 1734 1741 
z
" transform="scale(0.015625)"/>
     </defs>
     <use xlink:href="#STIXGeneral-Regular-62"/>
     <use xlink:href="#STIXGeneral-Regular-61" x="49.999985"/>
     <use xlink:href="#STIXGeneral-Regular-73" x="94.399979"/>
     <use xlink:href="#STIXGeneral-Regular-65" x="133.299973"/>
     <use xlink:href="#STIXGeneral-Regular-5f" x="177.699966"/>
     <use xlink:href="#STIXGeneral-Regular-6d" x="227.699951"/>
     <use xlink:href="#STIXGeneral-Regular-6f" x="305.499939"/>
     <use xlink:href="#STIXGeneral-Regular-74" x="355.499924"/>
     <use xlink:href="#STIXGeneral-Regular-69" x="383.299911"/>
     <use xlink:href="#STIXGeneral-Regular-6f" x="411.099899"/>
     <use xlink:href="#STIXGeneral-Regular-6e" x="461.099884"/>
     <use xlink:href="#STIXGeneral-Regular-20" x="511.099869"/>
     <use xlink:href="#STIXGeneral-Regular-28" x="536.099854"/>
     <use xlink:href="#STIXGeneral-Regular-38" x="569.399841"/>
     <use xlink:href="#STIXGeneral-Regular-25" x="619.399826"/>
     <use xlink:href="#STIXGeneral-Regular-29" x="694.099808"/>
    </g>
   </g>
   <g id="text_9">
    <!-- look_for_item (8%) -->
    <g transform="translate(158.999683 39.05278) rotate(-298.636364) scale(0.12 -0.12)">
     <defs>
      <path id="STIXGeneral-Regular-72" d="M 1024 2931 
L 1024 2342 
Q 1267 2688 1430 2816 
Q 1594 2944 1792 2944 
Q 1958 2944 2051 2854 
Q 2144 2765 2144 2605 
Q 2144 2470 2077 2393 
Q 2010 2317 1894 2317 
Q 1773 2317 1638 2445 
Q 1536 2541 1472 2541 
Q 1338 2541 1181 2355 
Q 1024 2170 1024 2016 
L 1024 576 
Q 1024 301 1133 205 
Q 1242 109 1568 96 
L 1568 0 
L 32 0 
L 32 96 
Q 339 154 412 224 
Q 486 294 486 538 
L 486 2138 
Q 486 2349 438 2435 
Q 390 2522 269 2522 
Q 166 2522 45 2496 
L 45 2598 
Q 448 2726 992 2944 
L 1024 2931 
z
" transform="scale(0.015625)"/>
     </defs>
     <use xlink:href="#STIXGeneral-Regular-6c"/>
     <use xlink:href="#STIXGeneral-Regular-6f" x="27.799988"/>
     <use xlink:href="#STIXGeneral-Regular-6f" x="77.799973"/>
     <use xlink:href="#STIXGeneral-Regular-6b" x="127.799957"/>
     <use xlink:href="#STIXGeneral-Regular-5f" x="177.799942"/>
     <use xlink:href="#STIXGeneral-Regular-66" x="227.799927"/>
     <use xlink:href="#STIXGeneral-Regular-6f" x="261.099915"/>
     <use xlink:href="#STIXGeneral-Regular-72" x="311.099899"/>
     <use xlink:href="#STIXGeneral-Regular-5f" x="344.399887"/>
     <use xlink:href="#STIXGeneral-Regular-69" x="394.399872"/>
     <use xlink:href="#STIXGeneral-Regular-74" x="422.19986"/>
     <use xlink:href="#STIXGeneral-Regular-65" x="449.999847"/>
     <use xlink:href="#STIXGeneral-Regular-6d" x="494.399841"/>
     <use xlink:href="#STIXGeneral-Regular-20" x="572.199829"/>
     <use xlink:href="#STIXGeneral-Regular-28" x="597.199814"/>
     <use xlink:href="#STIXGeneral-Regular-38" x="630.499802"/>
     <use xlink:href="#STIXGeneral-Regular-25" x="680.499786"/>
     <use xlink:href="#STIXGeneral-Regular-29" x="755.199768"/>
    </g>
   </g>
   <g id="text_10">
    <!-- placing (8%) -->
    <g transform="translate(150.387193 64.834518) rotate(-306.818183) scale(0.12 -0.12)">
     <use xlink:href="#STIXGeneral-Regular-70"/>
     <use xlink:href="#STIXGeneral-Regular-6c" x="49.999985"/>
     <use xlink:href="#STIXGeneral-Regular-61" x="77.799973"/>
     <use xlink:href="#STIXGeneral-Regular-63" x="122.199966"/>
     <use xlink:href="#STIXGeneral-Regular-69" x="166.59996"/>
     <use xlink:href="#STIXGeneral-Regular-6e" x="194.399948"/>
     <use xlink:href="#STIXGeneral-Regular-67" x="244.399933"/>
     <use xlink:href="#STIXGeneral-Regular-20" x="294.399918"/>
     <use xlink:href="#STIXGeneral-Regular-28" x="319.399902"/>
     <use xlink:href="#STIXGeneral-Regular-38" x="352.69989"/>
     <use xlink:href="#STIXGeneral-Regular-25" x="402.699875"/>
     <use xlink:href="#STIXGeneral-Regular-29" x="477.399857"/>
    </g>
   </g>
   <g id="text_11">
    <!-- # items: 1 (46%) -->
    <g transform="translate(88.51558 187.8905) rotate(-4.090908) scale(0.12 -0.12)">
     <defs>
      <path id="STIXGeneral-Regular-23" d="M 3168 2592 
L 2502 2592 
L 2374 1734 
L 3008 1734 
L 3008 1382 
L 2317 1382 
L 2118 0 
L 1747 0 
L 1946 1382 
L 1088 1382 
L 877 0 
L 506 0 
L 717 1382 
L 38 1382 
L 38 1734 
L 774 1734 
L 909 2592 
L 211 2592 
L 211 2944 
L 960 2944 
L 1158 4237 
L 1530 4237 
L 1331 2944 
L 2182 2944 
L 2374 4237 
L 2746 4237 
L 2554 2944 
L 3168 2944 
L 3168 2592 
z
M 2131 2592 
L 1280 2592 
L 1146 1734 
L 2003 1734 
L 2131 2592 
z
" transform="scale(0.015625)"/>
      <path id="STIXGeneral-Regular-3a" d="M 1123 2832 
Q 1229 2726 1229 2579 
Q 1229 2432 1126 2329 
Q 1024 2227 877 2227 
Q 730 2227 624 2332 
Q 518 2438 518 2579 
Q 518 2733 620 2835 
Q 723 2938 877 2938 
Q 1018 2938 1123 2832 
z
M 1229 282 
Q 1229 141 1126 35 
Q 1024 -70 877 -70 
Q 730 -70 624 35 
Q 518 141 518 282 
Q 518 435 620 537 
Q 723 640 877 640 
Q 1018 640 1123 534 
Q 1229 429 1229 282 
z
" transform="scale(0.015625)"/>
      <path id="STIXGeneral-Regular-31" d="M 2522 0 
L 755 0 
L 755 96 
Q 1107 115 1235 227 
Q 1363 339 1363 608 
L 1363 3482 
Q 1363 3795 1171 3795 
Q 1082 3795 883 3718 
L 710 3654 
L 710 3744 
L 1856 4326 
L 1914 4307 
L 1914 486 
Q 1914 275 2042 185 
Q 2170 96 2522 96 
L 2522 0 
z
" transform="scale(0.015625)"/>
      <path id="STIXGeneral-Regular-34" d="M 3027 1069 
L 2368 1069 
L 2368 0 
L 1869 0 
L 1869 1069 
L 77 1069 
L 77 1478 
L 2086 4326 
L 2368 4326 
L 2368 1478 
L 3027 1478 
L 3027 1069 
z
M 1869 1478 
L 1869 3674 
L 333 1478 
L 1869 1478 
z
" transform="scale(0.015625)"/>
      <path id="STIXGeneral-Regular-36" d="M 2854 4378 
L 2867 4275 
Q 2112 4154 1606 3664 
Q 1101 3174 973 2451 
Q 1344 2739 1786 2739 
Q 2349 2739 2672 2380 
Q 2995 2022 2995 1402 
Q 2995 774 2669 378 
Q 2291 -90 1651 -90 
Q 870 -90 518 557 
Q 218 1107 218 1786 
Q 218 2835 915 3552 
Q 1312 3962 1731 4131 
Q 2150 4301 2854 4378 
z
M 2419 1203 
Q 2419 2445 1555 2445 
Q 1235 2445 1024 2275 
Q 813 2106 813 1702 
Q 813 954 1046 522 
Q 1280 90 1722 90 
Q 2061 90 2240 394 
Q 2419 698 2419 1203 
z
" transform="scale(0.015625)"/>
     </defs>
     <use xlink:href="#STIXGeneral-Regular-23"/>
     <use xlink:href="#STIXGeneral-Regular-20" x="49.999985"/>
     <use xlink:href="#STIXGeneral-Regular-69" x="74.999969"/>
     <use xlink:href="#STIXGeneral-Regular-74" x="102.799957"/>
     <use xlink:href="#STIXGeneral-Regular-65" x="130.599945"/>
     <use xlink:href="#STIXGeneral-Regular-6d" x="174.999939"/>
     <use xlink:href="#STIXGeneral-Regular-73" x="252.799927"/>
     <use xlink:href="#STIXGeneral-Regular-3a" x="291.699921"/>
     <use xlink:href="#STIXGeneral-Regular-20" x="319.499908"/>
     <use xlink:href="#STIXGeneral-Regular-31" x="344.499893"/>
     <use xlink:href="#STIXGeneral-Regular-20" x="394.499878"/>
     <use xlink:href="#STIXGeneral-Regular-28" x="419.499863"/>
     <use xlink:href="#STIXGeneral-Regular-34" x="452.79985"/>
     <use xlink:href="#STIXGeneral-Regular-36" x="502.799835"/>
     <use xlink:href="#STIXGeneral-Regular-25" x="552.79982"/>
     <use xlink:href="#STIXGeneral-Regular-29" x="627.499802"/>
    </g>
   </g>
   <g id="text_12">
    <!-- # items: 3 (14%) -->
    <g transform="translate(197.08355 317.533112) rotate(-73.63636) scale(0.12 -0.12)">
     <defs>
      <path id="STIXGeneral-Regular-33" d="M 390 3264 
L 288 3290 
Q 435 3770 748 4048 
Q 1062 4326 1542 4326 
Q 1990 4326 2265 4083 
Q 2541 3840 2541 3450 
Q 2541 2925 1946 2566 
Q 2298 2413 2477 2227 
Q 2758 1914 2758 1402 
Q 2758 890 2464 506 
Q 2246 211 1840 60 
Q 1434 -90 979 -90 
Q 262 -90 262 275 
Q 262 378 339 442 
Q 416 506 525 506 
Q 685 506 915 339 
Q 1197 141 1466 141 
Q 1818 141 2058 425 
Q 2298 710 2298 1120 
Q 2298 1856 1632 2048 
Q 1434 2112 979 2112 
L 979 2202 
Q 1338 2323 1517 2432 
Q 2035 2726 2035 3290 
Q 2035 3610 1852 3776 
Q 1670 3942 1344 3942 
Q 768 3942 390 3264 
z
" transform="scale(0.015625)"/>
     </defs>
     <use xlink:href="#STIXGeneral-Regular-23"/>
     <use xlink:href="#STIXGeneral-Regular-20" x="49.999985"/>
     <use xlink:href="#STIXGeneral-Regular-69" x="74.999969"/>
     <use xlink:href="#STIXGeneral-Regular-74" x="102.799957"/>
     <use xlink:href="#STIXGeneral-Regular-65" x="130.599945"/>
     <use xlink:href="#STIXGeneral-Regular-6d" x="174.999939"/>
     <use xlink:href="#STIXGeneral-Regular-73" x="252.799927"/>
     <use xlink:href="#STIXGeneral-Regular-3a" x="291.699921"/>
     <use xlink:href="#STIXGeneral-Regular-20" x="319.499908"/>
     <use xlink:href="#STIXGeneral-Regular-33" x="344.499893"/>
     <use xlink:href="#STIXGeneral-Regular-20" x="394.499878"/>
     <use xlink:href="#STIXGeneral-Regular-28" x="419.499863"/>
     <use xlink:href="#STIXGeneral-Regular-31" x="452.79985"/>
     <use xlink:href="#STIXGeneral-Regular-34" x="502.799835"/>
     <use xlink:href="#STIXGeneral-Regular-25" x="552.79982"/>
     <use xlink:href="#STIXGeneral-Regular-29" x="627.499802"/>
    </g>
   </g>
   <g id="text_13">
    <!-- # items: 4 (4%) -->
    <g transform="translate(238.502628 246.470062) rotate(-274.090907) scale(0.12 -0.12)">
     <use xlink:href="#STIXGeneral-Regular-23"/>
     <use xlink:href="#STIXGeneral-Regular-20" x="49.999985"/>
     <use xlink:href="#STIXGeneral-Regular-69" x="74.999969"/>
     <use xlink:href="#STIXGeneral-Regular-74" x="102.799957"/>
     <use xlink:href="#STIXGeneral-Regular-65" x="130.599945"/>
     <use xlink:href="#STIXGeneral-Regular-6d" x="174.999939"/>
     <use xlink:href="#STIXGeneral-Regular-73" x="252.799927"/>
     <use xlink:href="#STIXGeneral-Regular-3a" x="291.699921"/>
     <use xlink:href="#STIXGeneral-Regular-20" x="319.499908"/>
     <use xlink:href="#STIXGeneral-Regular-34" x="344.499893"/>
     <use xlink:href="#STIXGeneral-Regular-20" x="394.499878"/>
     <use xlink:href="#STIXGeneral-Regular-28" x="419.499863"/>
     <use xlink:href="#STIXGeneral-Regular-34" x="452.79985"/>
     <use xlink:href="#STIXGeneral-Regular-25" x="502.799835"/>
     <use xlink:href="#STIXGeneral-Regular-29" x="577.499817"/>
    </g>
   </g>
   <g id="text_14">
    <!-- # items: 2 (29%) -->
    <g transform="translate(279.184061 228.449453) rotate(-310.909089) scale(0.12 -0.12)">
     <defs>
      <path id="STIXGeneral-Regular-39" d="M 378 -141 
L 358 -13 
Q 1094 115 1603 608 
Q 2112 1101 2304 1882 
Q 1933 1517 1344 1517 
Q 826 1517 509 1875 
Q 192 2234 192 2816 
Q 192 3462 573 3894 
Q 954 4326 1523 4326 
Q 2131 4326 2528 3840 
Q 2938 3328 2938 2522 
Q 2938 1958 2742 1462 
Q 2547 966 2170 621 
Q 1773 262 1395 105 
Q 1018 -51 378 -141 
z
M 2317 2272 
L 2317 2522 
Q 2317 4147 1472 4147 
Q 1171 4147 1005 3930 
Q 909 3802 845 3546 
Q 781 3290 781 3034 
Q 781 2464 995 2128 
Q 1210 1792 1568 1792 
Q 1824 1792 2070 1917 
Q 2317 2042 2317 2272 
z
" transform="scale(0.015625)"/>
     </defs>
     <use xlink:href="#STIXGeneral-Regular-23"/>
     <use xlink:href="#STIXGeneral-Regular-20" x="49.999985"/>
     <use xlink:href="#STIXGeneral-Regular-69" x="74.999969"/>
     <use xlink:href="#STIXGeneral-Regular-74" x="102.799957"/>
     <use xlink:href="#STIXGeneral-Regular-65" x="130.599945"/>
     <use xlink:href="#STIXGeneral-Regular-6d" x="174.999939"/>
     <use xlink:href="#STIXGeneral-Regular-73" x="252.799927"/>
     <use xlink:href="#STIXGeneral-Regular-3a" x="291.699921"/>
     <use xlink:href="#STIXGeneral-Regular-20" x="319.499908"/>
     <use xlink:href="#STIXGeneral-Regular-32" x="344.499893"/>
     <use xlink:href="#STIXGeneral-Regular-20" x="394.499878"/>
     <use xlink:href="#STIXGeneral-Regular-28" x="419.499863"/>
     <use xlink:href="#STIXGeneral-Regular-32" x="452.79985"/>
     <use xlink:href="#STIXGeneral-Regular-39" x="502.799835"/>
     <use xlink:href="#STIXGeneral-Regular-25" x="552.79982"/>
     <use xlink:href="#STIXGeneral-Regular-29" x="627.499802"/>
    </g>
   </g>
   <g id="text_15">
    <!-- # items: 5 (7%) -->
    <g transform="translate(306.955923 187.53129) rotate(-351.818182) scale(0.12 -0.12)">
     <use xlink:href="#STIXGeneral-Regular-23"/>
     <use xlink:href="#STIXGeneral-Regular-20" x="49.999985"/>
     <use xlink:href="#STIXGeneral-Regular-69" x="74.999969"/>
     <use xlink:href="#STIXGeneral-Regular-74" x="102.799957"/>
     <use xlink:href="#STIXGeneral-Regular-65" x="130.599945"/>
     <use xlink:href="#STIXGeneral-Regular-6d" x="174.999939"/>
     <use xlink:href="#STIXGeneral-Regular-73" x="252.799927"/>
     <use xlink:href="#STIXGeneral-Regular-3a" x="291.699921"/>
     <use xlink:href="#STIXGeneral-Regular-20" x="319.499908"/>
     <use xlink:href="#STIXGeneral-Regular-35" x="344.499893"/>
     <use xlink:href="#STIXGeneral-Regular-20" x="394.499878"/>
     <use xlink:href="#STIXGeneral-Regular-28" x="419.499863"/>
     <use xlink:href="#STIXGeneral-Regular-37" x="452.79985"/>
     <use xlink:href="#STIXGeneral-Regular-25" x="502.799835"/>
     <use xlink:href="#STIXGeneral-Regular-29" x="577.499817"/>
    </g>
   </g>
   <g id="legend_1">
    <g id="patch_17">
     <path d="M 322.934881 78.736713 
L 442.108319 78.736713 
Q 444.108319 78.736713 444.108319 76.736713 
L 444.108319 35.1664 
Q 444.108319 33.1664 442.108319 33.1664 
L 322.934881 33.1664 
Q 320.934881 33.1664 320.934881 35.1664 
L 320.934881 76.736713 
Q 320.934881 78.736713 322.934881 78.736713 
z
" style="fill: #ffffff; opacity: 0.8; stroke: #cccccc; stroke-linejoin: miter"/>
    </g>
    <g id="patch_18">
     <path d="M 324.934881 44.225775 
L 344.934881 44.225775 
L 344.934881 37.225775 
L 324.934881 37.225775 
z
" style="fill: #0000ff; fill-opacity: 0.9; stroke: #ffffff; stroke-linejoin: miter"/>
    </g>
    <g id="text_16">
     <!-- partial success (9.1%) -->
     <g transform="translate(352.934881 44.225775) scale(0.1 -0.1)">
      <defs>
       <path id="STIXGeneral-Regular-75" d="M 3072 320 
L 3072 230 
Q 2573 96 2195 -58 
L 2163 -38 
L 2163 486 
L 2150 486 
Q 1747 -64 1235 -64 
Q 870 -64 662 160 
Q 454 384 454 755 
L 454 2362 
Q 454 2598 371 2688 
Q 288 2778 58 2790 
L 58 2880 
L 992 2880 
L 992 813 
Q 992 595 1123 451 
Q 1254 307 1446 307 
Q 1760 307 1984 506 
Q 2067 582 2099 649 
Q 2131 717 2131 877 
L 2131 2355 
Q 2131 2605 2041 2678 
Q 1952 2752 1658 2771 
L 1658 2880 
L 2669 2880 
L 2669 685 
Q 2669 461 2742 390 
Q 2816 320 3034 320 
L 3072 320 
z
" transform="scale(0.015625)"/>
       <path id="STIXGeneral-Regular-2e" d="M 1158 275 
Q 1158 134 1052 32 
Q 947 -70 800 -70 
Q 653 -70 550 32 
Q 448 134 448 281 
Q 448 429 553 534 
Q 659 640 806 640 
Q 947 640 1052 531 
Q 1158 422 1158 275 
z
" transform="scale(0.015625)"/>
      </defs>
      <use xlink:href="#STIXGeneral-Regular-70"/>
      <use xlink:href="#STIXGeneral-Regular-61" x="49.999985"/>
      <use xlink:href="#STIXGeneral-Regular-72" x="94.399979"/>
      <use xlink:href="#STIXGeneral-Regular-74" x="127.699966"/>
      <use xlink:href="#STIXGeneral-Regular-69" x="155.499954"/>
      <use xlink:href="#STIXGeneral-Regular-61" x="183.299942"/>
      <use xlink:href="#STIXGeneral-Regular-6c" x="227.699936"/>
      <use xlink:href="#STIXGeneral-Regular-20" x="255.499924"/>
      <use xlink:href="#STIXGeneral-Regular-73" x="280.499908"/>
      <use xlink:href="#STIXGeneral-Regular-75" x="319.399902"/>
      <use xlink:href="#STIXGeneral-Regular-63" x="369.399887"/>
      <use xlink:href="#STIXGeneral-Regular-63" x="413.799881"/>
      <use xlink:href="#STIXGeneral-Regular-65" x="458.199875"/>
      <use xlink:href="#STIXGeneral-Regular-73" x="502.599869"/>
      <use xlink:href="#STIXGeneral-Regular-73" x="541.499863"/>
      <use xlink:href="#STIXGeneral-Regular-20" x="580.399857"/>
      <use xlink:href="#STIXGeneral-Regular-28" x="605.399841"/>
      <use xlink:href="#STIXGeneral-Regular-39" x="638.699829"/>
      <use xlink:href="#STIXGeneral-Regular-2e" x="688.699814"/>
      <use xlink:href="#STIXGeneral-Regular-31" x="713.699799"/>
      <use xlink:href="#STIXGeneral-Regular-25" x="763.699783"/>
      <use xlink:href="#STIXGeneral-Regular-29" x="838.399765"/>
     </g>
    </g>
    <g id="patch_19">
     <path d="M 324.934881 58.396088 
L 344.934881 58.396088 
L 344.934881 51.396088 
L 324.934881 51.396088 
z
" style="fill: #fa0005; fill-opacity: 0.9; stroke: #ffffff; stroke-linejoin: miter"/>
    </g>
    <g id="text_17">
     <!-- full failure (27.3%) -->
     <g transform="translate(352.934881 58.396088) scale(0.1 -0.1)">
      <use xlink:href="#STIXGeneral-Regular-66"/>
      <use xlink:href="#STIXGeneral-Regular-75" x="33.299988"/>
      <use xlink:href="#STIXGeneral-Regular-6c" x="83.299973"/>
      <use xlink:href="#STIXGeneral-Regular-6c" x="111.09996"/>
      <use xlink:href="#STIXGeneral-Regular-20" x="138.899948"/>
      <use xlink:href="#STIXGeneral-Regular-66" x="163.899933"/>
      <use xlink:href="#STIXGeneral-Regular-61" x="197.199921"/>
      <use xlink:href="#STIXGeneral-Regular-69" x="241.599915"/>
      <use xlink:href="#STIXGeneral-Regular-6c" x="269.399902"/>
      <use xlink:href="#STIXGeneral-Regular-75" x="297.19989"/>
      <use xlink:href="#STIXGeneral-Regular-72" x="347.199875"/>
      <use xlink:href="#STIXGeneral-Regular-65" x="380.499863"/>
      <use xlink:href="#STIXGeneral-Regular-20" x="424.899857"/>
      <use xlink:href="#STIXGeneral-Regular-28" x="449.899841"/>
      <use xlink:href="#STIXGeneral-Regular-32" x="483.199829"/>
      <use xlink:href="#STIXGeneral-Regular-37" x="533.199814"/>
      <use xlink:href="#STIXGeneral-Regular-2e" x="583.199799"/>
      <use xlink:href="#STIXGeneral-Regular-33" x="608.199783"/>
      <use xlink:href="#STIXGeneral-Regular-25" x="658.199768"/>
      <use xlink:href="#STIXGeneral-Regular-29" x="732.89975"/>
     </g>
    </g>
    <g id="patch_20">
     <path d="M 324.934881 72.5664 
L 344.934881 72.5664 
L 344.934881 65.5664 
L 324.934881 65.5664 
z
" style="fill: #0af500; fill-opacity: 0.9; stroke: #ffffff; stroke-linejoin: miter"/>
    </g>
    <g id="text_18">
     <!-- full success (63.6%) -->
     <g transform="translate(352.934881 72.5664) scale(0.1 -0.1)">
      <use xlink:href="#STIXGeneral-Regular-66"/>
      <use xlink:href="#STIXGeneral-Regular-75" x="33.299988"/>
      <use xlink:href="#STIXGeneral-Regular-6c" x="83.299973"/>
      <use xlink:href="#STIXGeneral-Regular-6c" x="111.09996"/>
      <use xlink:href="#STIXGeneral-Regular-20" x="138.899948"/>
      <use xlink:href="#STIXGeneral-Regular-73" x="163.899933"/>
      <use xlink:href="#STIXGeneral-Regular-75" x="202.799927"/>
      <use xlink:href="#STIXGeneral-Regular-63" x="252.799911"/>
      <use xlink:href="#STIXGeneral-Regular-63" x="297.199905"/>
      <use xlink:href="#STIXGeneral-Regular-65" x="341.599899"/>
      <use xlink:href="#STIXGeneral-Regular-73" x="385.999893"/>
      <use xlink:href="#STIXGeneral-Regular-73" x="424.899887"/>
      <use xlink:href="#STIXGeneral-Regular-20" x="463.799881"/>
      <use xlink:href="#STIXGeneral-Regular-28" x="488.799866"/>
      <use xlink:href="#STIXGeneral-Regular-36" x="522.099854"/>
      <use xlink:href="#STIXGeneral-Regular-33" x="572.099838"/>
      <use xlink:href="#STIXGeneral-Regular-2e" x="622.099823"/>
      <use xlink:href="#STIXGeneral-Regular-36" x="647.099808"/>
      <use xlink:href="#STIXGeneral-Regular-25" x="697.099792"/>
      <use xlink:href="#STIXGeneral-Regular-29" x="771.799774"/>
     </g>
    </g>
   </g>
  </g>
 </g>
</svg>
