<?xml version="1.0" encoding="utf-8" standalone="no"?>
<!DOCTYPE svg PUBLIC "-//W3C//DTD SVG 1.1//EN"
  "http://www.w3.org/Graphics/SVG/1.1/DTD/svg11.dtd">
<svg xmlns:xlink="http://www.w3.org/1999/xlink" width="357.12pt" height="266.112pt" viewBox="0 0 357.12 266.112" xmlns="http://www.w3.org/2000/svg" version="1.1">
 <metadata>
  <rdf:RDF xmlns:dc="http://purl.org/dc/elements/1.1/" xmlns:cc="http://creativecommons.org/ns#" xmlns:rdf="http://www.w3.org/1999/02/22-rdf-syntax-ns#">
   <cc:Work>
    <dc:type rdf:resource="http://purl.org/dc/dcmitype/StillImage"/>
    <dc:date>2024-03-22T14:15:49.459771</dc:date>
    <dc:format>image/svg+xml</dc:format>
    <dc:creator>
     <cc:Agent>
      <dc:title>Matplotlib v3.7.5, https://matplotlib.org/</dc:title>
     </cc:Agent>
    </dc:creator>
   </cc:Work>
  </rdf:RDF>
 </metadata>
 <defs>
  <style type="text/css">*{stroke-linejoin: round; stroke-linecap: butt}</style>
 </defs>
 <g id="figure_1">
  <g id="patch_1">
   <path d="M 0 266.112 
L 357.12 266.112 
L 357.12 0 
L 0 0 
z
" style="fill: #ffffff"/>
  </g>
  <g id="axes_1">
   <g id="patch_2">
    <path d="M 279.287513 202.078465 
C 291.809327 202.078465 303.819966 197.103495 312.674225 188.249236 
C 321.528485 179.394976 326.503454 167.384337 326.503454 154.862523 
C 326.503454 142.340709 321.528485 130.330071 312.674225 121.475811 
C 303.819966 112.621551 291.809327 107.646582 279.287513 107.646582 
C 266.765699 107.646582 254.75506 112.621551 245.900801 121.475811 
C 237.046541 130.330071 232.071572 142.340709 232.071572 154.862523 
C 232.071572 167.384337 237.046541 179.394976 245.900801 188.249236 
C 254.75506 197.103495 266.765699 202.078465 279.287513 202.078465 
z
" clip-path="url(#p088a053d3b)" style="fill: #ff0000; opacity: 0.5"/>
   </g>
   <g id="patch_3">
    <path d="M 154.165269 84.038611 
L 262.761934 84.038611 
L 262.761934 36.82267 
L 154.165269 36.82267 
z
" clip-path="url(#p088a053d3b)" style="fill: #ff0000; opacity: 0.5"/>
   </g>
   <g id="patch_4">
    <path d="M 323.556418 21.539188 
C 324.8086 21.539188 326.009664 21.041691 326.89509 20.156265 
C 327.780516 19.270839 328.278013 18.069776 328.278013 16.817594 
C 328.278013 15.565413 327.780516 14.364349 326.89509 13.478923 
C 326.009664 12.593497 324.8086 12.096 323.556418 12.096 
C 322.304237 12.096 321.103173 12.593497 320.217747 13.478923 
C 319.332321 14.364349 318.834824 15.565413 318.834824 16.817594 
C 318.834824 18.069776 319.332321 19.270839 320.217747 20.156265 
C 321.103173 21.041691 322.304237 21.539188 323.556418 21.539188 
z
" clip-path="url(#p088a053d3b)" style="fill: #008000; opacity: 0.7"/>
   </g>
   <g id="patch_5">
    <path d="M 43.207807 254.016 
C 44.459988 254.016 45.661052 253.518503 46.546478 252.633077 
C 47.431904 251.747651 47.929401 250.546587 47.929401 249.294406 
C 47.929401 248.042224 47.431904 246.841161 46.546478 245.955735 
C 45.661052 245.070309 44.459988 244.572812 43.207807 244.572812 
C 41.955625 244.572812 40.754561 245.070309 39.869135 245.955735 
C 38.983709 246.841161 38.486212 248.042224 38.486212 249.294406 
C 38.486212 250.546587 38.983709 251.747651 39.869135 252.633077 
C 40.754561 253.518503 41.955625 254.016 43.207807 254.016 
z
" clip-path="url(#p088a053d3b)" style="fill: #0000ff; opacity: 0.7"/>
   </g>
   <g id="line2d_1">
    <path d="M 43.207807 249.294406 
L 45.583609 249.199178 
L 48.460897 248.834016 
L 51.350082 248.225081 
L 54.240022 247.402554 
L 57.604541 246.208499 
L 61.435633 244.578868 
L 65.251396 242.709453 
L 69.529334 240.36489 
L 74.271346 237.508085 
L 79.484114 234.110584 
L 85.654187 229.811118 
L 92.803867 224.538016 
L 100.964646 218.236255 
L 111.148689 210.074256 
L 123.430013 199.93765 
L 138.367623 187.317795 
L 152.417067 175.17174 
L 159.885999 168.474719 
L 165.71113 162.92605 
L 170.900506 157.682665 
L 175.923097 152.291433 
L 180.763927 146.764045 
L 185.419875 141.123663 
L 190.700698 134.360286 
L 197.316847 125.475807 
L 208.26978 110.707192 
L 212.135291 105.917997 
L 215.098401 102.606575 
L 217.615431 100.132631 
L 219.791336 98.287963 
L 221.927408 96.753482 
L 224.060138 95.481645 
L 226.459999 94.324371 
L 228.912866 93.388684 
L 231.653714 92.574532 
L 234.907881 91.846295 
L 238.637724 91.239539 
L 243.274589 90.714317 
L 249.176117 90.278528 
L 257.033605 89.937049 
L 265.669625 89.57848 
L 267.46333 89.208102 
L 268.546909 88.743684 
L 269.778975 87.965975 
L 271.131417 86.841898 
L 272.772634 85.163824 
L 274.862868 82.664088 
L 277.749333 78.822983 
L 283.490023 70.71689 
L 294.961308 54.552706 
L 304.137943 42.032663 
L 313.356589 29.831525 
L 321.644534 19.218759 
L 323.536727 16.854616 
L 323.536727 16.854616 
" clip-path="url(#p088a053d3b)" style="fill: none; stroke: #d0e1f2; stroke-width: 3; stroke-linecap: square"/>
   </g>
   <g id="line2d_2">
    <path d="M 43.207807 249.294406 
L 46.380123 248.236813 
L 49.551776 246.952039 
L 53.174304 245.248311 
L 57.249518 243.079213 
L 61.784044 240.408146 
L 66.789751 237.207388 
L 72.742914 233.133444 
L 79.678131 228.113854 
L 88.111597 221.729321 
L 99.081731 213.124571 
L 114.220169 200.942446 
L 149.191279 172.416187 
L 159.997588 163.443999 
L 166.028615 158.117018 
L 171.903282 152.622053 
L 177.129161 147.441718 
L 182.641657 141.650786 
L 187.957169 135.746972 
L 194.353689 128.285291 
L 211.642924 107.83545 
L 215.38674 103.894642 
L 218.238625 101.191088 
L 220.908715 98.960615 
L 223.458836 97.138416 
L 225.945133 95.658775 
L 228.413359 94.461103 
L 230.897216 93.492573 
L 233.659846 92.643118 
L 236.932595 91.8778 
L 240.675606 91.238469 
L 245.317656 90.687059 
L 250.980604 90.24887 
L 258.39672 89.910282 
L 264.8978 89.606177 
L 266.907196 89.216912 
L 267.996648 88.784488 
L 269.237621 88.036552 
L 270.600301 86.938732 
L 272.25318 85.285806 
L 274.1842 83.025479 
L 276.920922 79.455178 
L 281.849035 72.594418 
L 295.380594 53.683158 
L 304.663114 41.142055 
L 313.927171 28.993179 
L 322.30263 18.365674 
L 323.571994 16.791862 
L 323.571994 16.791862 
" clip-path="url(#p088a053d3b)" style="fill: none; stroke: #bad6eb; stroke-width: 3; stroke-linecap: square"/>
   </g>
   <g id="line2d_3">
    <path d="M 43.207807 249.294406 
L 48.426831 245.801193 
L 54.595277 241.396495 
L 62.646053 235.358964 
L 73.643711 226.805189 
L 90.715326 213.202927 
L 127.821762 183.577055 
L 143.45814 171.426543 
L 164.628636 155.070928 
L 170.786909 149.897829 
L 176.784517 144.568275 
L 182.603482 139.097065 
L 188.70025 133.045626 
L 195.488622 125.981158 
L 213.185181 107.358041 
L 217.239633 103.520927 
L 220.603331 100.644672 
L 223.430918 98.509041 
L 226.10268 96.765967 
L 228.676093 95.35204 
L 231.19932 94.208687 
L 233.96066 93.202834 
L 236.982539 92.345617 
L 240.492787 91.598367 
L 244.44242 90.992664 
L 249.246336 90.487822 
L 255.246373 90.088555 
L 265.812106 89.467303 
L 267.382113 89.073968 
L 268.457436 88.562545 
L 269.680412 87.744398 
L 271.02668 86.588109 
L 272.667047 84.883118 
L 274.764621 82.361997 
L 277.839319 78.272774 
L 284.297645 69.19938 
L 295.131526 54.068786 
L 304.445352 41.460287 
L 313.743935 29.244461 
L 322.064777 18.666286 
L 323.515417 16.864673 
L 323.515417 16.864673 
" clip-path="url(#p088a053d3b)" style="fill: none; stroke: #9dcae1; stroke-width: 3; stroke-linecap: square"/>
   </g>
   <g id="line2d_4">
    <path d="M 43.207807 249.294406 
L 46.43331 245.732144 
L 50.614711 241.457817 
L 55.848142 236.4439 
L 62.62694 230.28512 
L 71.091795 222.913534 
L 81.823619 213.875194 
L 94.996691 203.085979 
L 108.762638 192.098209 
L 121.497659 182.208026 
L 133.029922 173.530001 
L 143.768007 165.735202 
L 154.173914 158.46185 
L 161.843782 153.05447 
L 168.831616 147.849998 
L 175.138229 142.888685 
L 181.284796 137.785809 
L 187.749022 132.125019 
L 194.960781 125.488611 
L 207.766148 113.294982 
L 214.3379 107.217455 
L 219.059715 103.153043 
L 222.639977 100.352592 
L 225.909047 98.083802 
L 228.679535 96.418069 
L 231.319645 95.067615 
L 234.133881 93.879348 
L 237.156561 92.864923 
L 240.416479 92.024374 
L 244.136143 91.315141 
L 248.499684 90.730904 
L 253.654624 90.275662 
L 260.162187 89.931356 
L 265.451827 89.637037 
L 267.504283 89.218905 
L 268.605949 88.747289 
L 269.858084 87.960801 
L 271.23134 86.825772 
L 272.894845 85.132764 
L 275.007474 82.613013 
L 277.914361 78.746109 
L 283.502235 70.844716 
L 295.129111 54.41832 
L 304.277554 41.908463 
L 313.353076 29.869907 
L 321.634294 19.242603 
L 323.525939 16.874454 
L 323.525939 16.874454 
" clip-path="url(#p088a053d3b)" style="fill: none; stroke: #79b5d9; stroke-width: 3; stroke-linecap: square"/>
   </g>
   <g id="line2d_5">
    <path d="M 43.207807 249.294406 
L 44.487674 246.735762 
L 46.215807 243.797163 
L 48.453723 240.496371 
L 50.928015 237.248991 
L 53.949232 233.647333 
L 57.554766 229.693685 
L 61.775122 225.384423 
L 67.050978 220.322265 
L 73.463244 214.496625 
L 81.08235 207.889577 
L 89.970438 200.483103 
L 100.185783 192.270807 
L 110.765072 184.057127 
L 120.628826 176.668972 
L 130.224247 169.7631 
L 138.959703 163.752811 
L 147.324061 158.269363 
L 155.843503 152.95382 
L 163.206782 148.290782 
L 170.441283 143.447773 
L 176.977105 138.818005 
L 183.353941 134.045265 
L 190.067129 128.741274 
L 197.561016 122.51696 
L 220.544997 103.150226 
L 224.652603 100.136103 
L 228.04012 97.913013 
L 231.151575 96.133942 
L 234.070732 94.721889 
L 236.870636 93.605297 
L 239.856829 92.652276 
L 243.061709 91.862069 
L 246.70825 91.19479 
L 250.979033 90.645849 
L 256.249885 90.205708 
L 262.85112 89.887938 
L 264.841844 89.768183 
L 267.114046 89.385333 
L 268.23288 88.995353 
L 269.507803 88.280777 
L 270.902959 87.204143 
L 272.402496 85.75454 
L 274.359992 83.512126 
L 276.936575 80.172086 
L 281.169888 74.255058 
L 297.293103 51.471195 
L 306.396649 39.093465 
L 315.427793 27.186585 
L 323.362229 17.081909 
L 323.60577 16.778345 
L 323.60577 16.778345 
" clip-path="url(#p088a053d3b)" style="fill: none; stroke: #58a1cf; stroke-width: 3; stroke-linecap: square"/>
   </g>
   <g id="line2d_6">
    <path d="M 43.207807 249.294406 
L 43.653779 246.959646 
L 44.304938 244.63731 
L 45.326809 241.879643 
L 46.578824 239.161881 
L 48.29049 236.045946 
L 50.23412 232.988372 
L 52.696886 229.560082 
L 55.378898 226.193765 
L 58.618578 222.468752 
L 62.452761 218.391648 
L 66.91187 213.963921 
L 72.457108 208.786091 
L 78.711024 203.254608 
L 86.162355 196.969913 
L 94.38548 190.325251 
L 103.395892 183.331644 
L 112.169939 176.788766 
L 120.654998 170.722095 
L 128.81196 165.158896 
L 136.607142 160.120241 
L 144.005952 155.613077 
L 150.969628 151.62461 
L 167.329617 142.442524 
L 174.733529 137.905345 
L 181.415261 133.554585 
L 187.928891 129.06229 
L 194.781806 124.070727 
L 202.928894 117.839181 
L 221.922465 103.158494 
L 226.563675 99.938379 
L 230.345953 97.583473 
L 233.485657 95.873047 
L 236.40384 94.515707 
L 239.427175 93.357012 
L 242.605744 92.395627 
L 245.98341 91.62038 
L 249.774987 90.987906 
L 254.156812 90.486573 
L 259.722411 90.088848 
L 266.084401 89.648969 
L 267.897615 89.222692 
L 268.983095 88.712154 
L 270.215569 87.891337 
L 271.568804 86.728388 
L 273.212222 85.011632 
L 275.3059 82.472436 
L 278.363762 78.355588 
L 284.598782 69.473043 
L 295.18154 54.47828 
L 304.174833 42.133478 
L 313.25626 30.042666 
L 321.455188 19.483659 
L 323.605803 16.783541 
L 323.605803 16.783541 
" clip-path="url(#p088a053d3b)" style="fill: none; stroke: #3d8dc4; stroke-width: 3; stroke-linecap: square"/>
   </g>
   <g id="line2d_7">
    <path d="M 43.207807 249.294406 
L 42.842994 245.98241 
L 42.663959 242.111723 
L 42.709051 239.16044 
L 42.991814 236.686316 
L 43.499717 234.218108 
L 44.211739 231.768934 
L 45.307018 228.86718 
L 46.634411 226.014136 
L 48.164912 223.213515 
L 50.173697 220.012606 
L 52.390633 216.88012 
L 55.143114 213.376966 
L 58.478023 209.522547 
L 62.434297 205.331513 
L 67.043614 200.813251 
L 72.331776 195.972627 
L 78.320477 190.811953 
L 85.02938 185.334254 
L 92.478713 179.54818 
L 100.171775 173.851726 
L 108.094307 168.264588 
L 115.693569 163.18186 
L 122.932944 158.618326 
L 129.203562 154.912605 
L 135.613826 151.387996 
L 141.565552 148.372423 
L 147.633615 145.561184 
L 153.809486 142.967743 
L 162.489576 139.40866 
L 169.824732 136.152804 
L 177.033955 132.703191 
L 183.507251 129.371252 
L 189.829457 125.883854 
L 196.53405 121.922501 
L 203.557246 117.492324 
L 211.351242 112.302078 
L 229.361407 100.176524 
L 233.941098 97.435083 
L 237.626791 95.492449 
L 240.695399 94.115094 
L 243.801753 92.973164 
L 246.799777 92.108351 
L 250.209674 91.370443 
L 254.0016 90.791432 
L 258.56511 90.336052 
L 266.508738 89.626411 
L 267.607755 89.284306 
L 268.864063 88.615899 
L 270.240649 87.582745 
L 271.721859 86.174259 
L 273.486335 84.187503 
L 275.879956 81.141094 
L 279.768748 75.781162 
L 298.795769 49.154197 
L 308.079419 36.696281 
L 317.046519 25.026168 
L 323.581483 16.789856 
L 323.581483 16.789856 
" clip-path="url(#p088a053d3b)" style="fill: none; stroke: #2575b7; stroke-width: 3; stroke-linecap: square"/>
   </g>
   <g id="line2d_8">
    <path d="M 43.207807 249.294406 
L 42.143002 246.6514 
L 41.283126 243.897574 
L 40.608244 241.055735 
L 40.032078 237.651024 
L 39.659751 234.16893 
L 39.45599 230.113126 
L 39.483641 226.510298 
L 39.763365 223.922867 
L 40.273602 221.344342 
L 40.994281 218.788482 
L 42.109065 215.764629 
L 43.466184 212.797264 
L 45.036409 209.891304 
L 47.103381 206.580047 
L 49.39005 203.351591 
L 52.234581 199.756901 
L 55.290981 196.254468 
L 58.946057 192.412076 
L 63.237149 188.248388 
L 68.195427 183.777987 
L 73.847169 179.012474 
L 79.717487 174.347674 
L 86.293688 169.397967 
L 93.603191 164.188195 
L 100.588819 159.475768 
L 107.762726 154.912383 
L 113.984934 151.201821 
L 119.770198 147.985035 
L 125.089222 145.251997 
L 130.521107 142.709484 
L 135.447325 140.64098 
L 140.464953 138.780363 
L 145.568524 137.148881 
L 150.747492 135.75795 
L 156.640386 134.453535 
L 163.816299 132.774506 
L 170.913688 130.868593 
L 177.277771 128.93644 
L 183.537253 126.81042 
L 189.670338 124.487743 
L 195.654713 121.969738 
L 201.469718 119.265667 
L 207.099329 116.396268 
L 213.067911 113.089932 
L 219.310023 109.376869 
L 227.876918 103.996565 
L 238.047399 97.633249 
L 242.050248 95.382137 
L 245.240765 93.841029 
L 247.953193 92.773334 
L 250.781447 91.912558 
L 253.796166 91.244137 
L 257.181244 90.729988 
L 261.307889 90.33648 
L 265.494725 89.939703 
L 266.950801 89.571498 
L 268.144734 88.96116 
L 269.456543 87.98792 
L 270.87411 86.642622 
L 272.742409 84.5269 
L 275.23755 81.331659 
L 279.583013 75.34972 
L 295.319663 53.488042 
L 304.763815 40.830773 
L 314.253781 28.482295 
L 322.668981 17.885912 
L 323.509805 16.85004 
L 323.509805 16.85004 
" clip-path="url(#p088a053d3b)" style="fill: none; stroke: #125ea6; stroke-width: 3; stroke-linecap: square"/>
   </g>
   <g id="line2d_9">
    <path d="M 43.207807 249.294406 
L 41.745424 247.430815 
L 40.449349 245.424579 
L 39.315 243.298579 
L 38.156183 240.617331 
L 37.201125 237.821593 
L 36.312613 234.447602 
L 35.640976 230.977232 
L 35.108443 226.916963 
L 34.797111 222.775554 
L 34.679406 218.037425 
L 34.771995 215.376547 
L 35.110567 212.713168 
L 35.680279 210.065113 
L 36.461496 207.44572 
L 37.434777 204.864365 
L 38.830198 201.825321 
L 40.445987 198.85531 
L 42.255746 195.956024 
L 44.581551 192.661443 
L 47.108399 189.457134 
L 50.208591 185.897494 
L 53.504164 182.437018 
L 57.412261 178.649423 
L 61.968288 174.555742 
L 67.202098 170.173526 
L 73.139186 165.518237 
L 79.282251 160.979763 
L 86.143211 156.18823 
L 93.200771 151.5325 
L 99.88344 147.374543 
L 106.153228 143.710704 
L 111.980078 140.53935 
L 117.336996 137.85493 
L 122.196661 135.642575 
L 127.155412 133.636307 
L 131.578609 132.08695 
L 136.079192 130.764417 
L 139.993512 129.833889 
L 143.952174 129.105321 
L 147.944794 128.585057 
L 151.959532 128.271103 
L 168.67727 127.344418 
L 174.632018 126.664099 
L 180.528807 125.781493 
L 186.349988 124.687918 
L 192.07542 123.372642 
L 197.065955 122.008519 
L 201.945477 120.454782 
L 206.696281 118.71011 
L 211.302108 116.78052 
L 215.750479 114.681627 
L 220.558733 112.15025 
L 225.658878 109.183026 
L 230.947326 105.839123 
L 237.129203 101.650096 
L 243.476683 97.339072 
L 247.300875 95.188096 
L 250.536346 93.645753 
L 253.123765 92.646856 
L 255.670523 91.891734 
L 258.591377 91.271158 
L 261.87927 90.811884 
L 266.073263 90.269331 
L 267.06258 89.940057 
L 268.194961 89.294888 
L 269.442175 88.301164 
L 270.965377 86.768074 
L 272.930375 84.433425 
L 275.860947 80.553106 
L 282.361866 71.454115 
L 293.314924 56.222717 
L 302.751967 43.496237 
L 312.258059 31.047199 
L 320.985159 19.974319 
L 323.531757 16.823053 
L 323.531757 16.823053 
" clip-path="url(#p088a053d3b)" style="fill: none; stroke: #08478d; stroke-width: 3; stroke-linecap: square"/>
   </g>
   <g id="line2d_10">
    <path d="M 43.207807 249.294406 
L 41.30035 247.908754 
L 39.5443 246.322158 
L 37.944798 244.556394 
L 36.504652 242.635641 
L 35.221637 240.583007 
L 33.880784 237.974986 
L 32.742537 235.237764 
L 31.789513 232.396221 
L 30.883198 228.976546 
L 30.171569 225.466161 
L 29.567931 221.363887 
L 29.121984 216.654261 
L 28.89069 211.861489 
L 28.864639 206.998591 
L 29.102541 204.280134 
L 29.585078 201.572371 
L 30.293107 198.891133 
L 31.207047 196.248031 
L 32.548673 193.137632 
L 34.128152 190.101587 
L 35.917207 187.143319 
L 38.235973 183.790244 
L 40.771379 180.539302 
L 43.494198 177.384308 
L 46.804163 173.886556 
L 50.744704 170.075302 
L 54.881426 166.379622 
L 59.674145 162.391272 
L 65.150272 158.128178 
L 71.332922 153.606155 
L 78.242679 148.842333 
L 85.346636 144.212415 
L 92.628696 139.72455 
L 99.504485 135.732229 
L 105.942449 132.237922 
L 111.918887 129.248488 
L 116.796153 127.031846 
L 121.770079 125.02418 
L 126.20917 123.490846 
L 130.081125 122.385563 
L 134.012234 121.512973 
L 137.326982 120.989836 
L 140.667451 120.670382 
L 144.021505 120.564759 
L 147.375295 120.677143 
L 155.407717 121.198419 
L 162.779136 121.002409 
L 170.113247 120.589194 
L 177.388761 119.954768 
L 184.581884 119.089687 
L 191.026795 118.090898 
L 197.357827 116.875907 
L 202.936712 115.586305 
L 208.381398 114.103535 
L 213.671137 112.42714 
L 218.787487 110.567246 
L 223.717224 108.547213 
L 228.968951 106.158854 
L 234.929642 103.190802 
L 242.168065 99.310818 
L 250.080489 95.061576 
L 253.783875 93.431599 
L 256.670739 92.397946 
L 259.486101 91.638824 
L 262.501498 91.072096 
L 267.104701 90.271163 
L 268.284755 89.655024 
L 269.580068 88.676161 
L 270.979357 87.325416 
L 272.824274 85.202549 
L 275.290887 81.996068 
L 279.761765 75.749962 
L 294.461373 55.047618 
L 303.717582 42.469145 
L 313.024354 30.195859 
L 321.481665 19.400997 
L 323.556418 16.817594 
L 323.556418 16.817594 
" clip-path="url(#p088a053d3b)" style="fill: none; stroke: #08306b; stroke-width: 3; stroke-linecap: square"/>
   </g>
  </g>
 </g>
 <defs>
  <clipPath id="p088a053d3b">
   <rect x="0" y="-0" width="357.12" height="266.112"/>
  </clipPath>
 </defs>
</svg>
