<?xml version="1.0" encoding="utf-8" standalone="no"?>
<!DOCTYPE svg PUBLIC "-//W3C//DTD SVG 1.1//EN"
  "http://www.w3.org/Graphics/SVG/1.1/DTD/svg11.dtd">
<svg xmlns:xlink="http://www.w3.org/1999/xlink" width="357.12pt" height="266.112pt" viewBox="0 0 357.12 266.112" xmlns="http://www.w3.org/2000/svg" version="1.1">
 <metadata>
  <rdf:RDF xmlns:dc="http://purl.org/dc/elements/1.1/" xmlns:cc="http://creativecommons.org/ns#" xmlns:rdf="http://www.w3.org/1999/02/22-rdf-syntax-ns#">
   <cc:Work>
    <dc:type rdf:resource="http://purl.org/dc/dcmitype/StillImage"/>
    <dc:date>2024-03-22T14:15:49.315881</dc:date>
    <dc:format>image/svg+xml</dc:format>
    <dc:creator>
     <cc:Agent>
      <dc:title>Matplotlib v3.7.5, https://matplotlib.org/</dc:title>
     </cc:Agent>
    </dc:creator>
   </cc:Work>
  </rdf:RDF>
 </metadata>
 <defs>
  <style type="text/css">*{stroke-linejoin: round; stroke-linecap: butt}</style>
 </defs>
 <g id="figure_1">
  <g id="patch_1">
   <path d="M 0 266.112 
L 357.12 266.112 
L 357.12 0 
L 0 0 
z
" style="fill: #ffffff"/>
  </g>
  <g id="axes_1">
   <g id="patch_2">
    <path d="M 153.593982 83.60676 
L 262.466551 83.60676 
L 262.466551 36.270861 
L 153.593982 36.270861 
z
" clip-path="url(#p983206e84b)" style="fill: #ff0000; opacity: 0.5"/>
   </g>
   <g id="patch_3">
    <path d="M 324.307713 21.56318 
C 325.563075 21.56318 326.767191 21.064419 327.654866 20.176744 
C 328.542542 19.289068 329.041303 18.084953 329.041303 16.82959 
C 329.041303 15.574227 328.542542 14.370112 327.654866 13.482436 
C 326.767191 12.594761 325.563075 12.096 324.307713 12.096 
C 323.05235 12.096 321.848235 12.594761 320.960559 13.482436 
C 320.072884 14.370112 319.574123 15.574227 319.574123 16.82959 
C 319.574123 18.084953 320.072884 19.289068 320.960559 20.176744 
C 321.848235 21.064419 323.05235 21.56318 324.307713 21.56318 
z
" clip-path="url(#p983206e84b)" style="fill: #008000; opacity: 0.7"/>
   </g>
   <g id="patch_4">
    <path d="M 42.354617 254.016 
C 43.60998 254.016 44.814095 253.517239 45.701771 252.629564 
C 46.589446 251.741888 47.088207 250.537773 47.088207 249.28241 
C 47.088207 248.027047 46.589446 246.822932 45.701771 245.935256 
C 44.814095 245.047581 43.60998 244.54882 42.354617 244.54882 
C 41.099254 244.54882 39.895139 245.047581 39.007463 245.935256 
C 38.119788 246.822932 37.621027 248.027047 37.621027 249.28241 
C 37.621027 250.537773 38.119788 251.741888 39.007463 252.629564 
C 39.895139 253.517239 41.099254 254.016 42.354617 254.016 
z
" clip-path="url(#p983206e84b)" style="fill: #0000ff; opacity: 0.7"/>
   </g>
   <g id="line2d_1">
    <path d="M 42.354617 249.28241 
L 44.738383 249.181538 
L 47.145944 248.879689 
L 50.050526 248.282946 
L 52.961051 247.463964 
L 56.356511 246.268934 
L 60.233653 244.637701 
L 64.593565 242.523608 
L 69.444087 239.893612 
L 74.80088 236.727049 
L 81.180357 232.694324 
L 89.635667 227.062436 
L 102.890079 217.918237 
L 122.583147 204.362075 
L 133.130456 197.373483 
L 142.836553 191.206191 
L 152.20464 185.526035 
L 179.189757 169.705302 
L 194.977976 160.676169 
L 207.771145 153.606599 
L 219.919779 147.150153 
L 231.351106 141.332708 
L 242.583318 135.875207 
L 253.51117 130.813818 
L 264.025172 126.175241 
L 267.837518 124.728735 
L 271.641685 123.51858 
L 276.948469 121.880166 
L 279.461284 120.852402 
L 281.865722 119.681339 
L 284.594719 118.094893 
L 287.14408 116.33197 
L 289.517992 114.426951 
L 291.702466 112.388046 
L 293.695504 110.235591 
L 295.499179 107.991391 
L 297.119717 105.677098 
L 298.760596 102.897271 
L 300.169962 100.074548 
L 301.5462 96.839037 
L 302.990032 92.831034 
L 304.427353 88.131658 
L 306.019787 82.120123 
L 308.73584 70.775164 
L 311.924697 57.798019 
L 314.677091 47.574866 
L 317.546683 37.782521 
L 320.438757 28.697916 
L 323.186018 20.780828 
L 324.629273 16.916179 
L 324.629273 16.916179 
" clip-path="url(#p983206e84b)" style="fill: none; stroke: #d0e1f2; stroke-width: 3; stroke-linecap: square"/>
   </g>
   <g id="line2d_2">
    <path d="M 42.354617 249.28241 
L 45.539112 248.22053 
L 49.188799 246.730203 
L 52.850108 244.996644 
L 57.449688 242.551769 
L 62.550592 239.57542 
L 68.652625 235.752733 
L 76.780764 230.37332 
L 89.093492 221.911862 
L 111.953376 206.173687 
L 122.895275 198.933577 
L 132.486707 192.853045 
L 141.177747 187.598805 
L 150.080315 182.486975 
L 165.852561 173.81621 
L 188.549408 161.468721 
L 203.347955 153.678909 
L 216.260417 147.1344 
L 228.437908 141.215402 
L 239.803519 135.929851 
L 251.438945 130.761204 
L 263.155365 125.7952 
L 266.97683 124.382151 
L 270.790604 123.213823 
L 276.121305 121.673348 
L 279.143011 120.47667 
L 282.005789 119.064483 
L 284.696111 117.455622 
L 287.214956 115.685337 
L 289.922349 113.433473 
L 292.036111 111.362284 
L 293.959685 109.184864 
L 295.967769 106.538924 
L 297.477337 104.193589 
L 299.008029 101.398752 
L 300.50094 98.174753 
L 301.917996 94.559159 
L 303.365849 90.211452 
L 304.898212 84.854278 
L 306.902746 76.926491 
L 311.829472 57.122114 
L 314.62532 47.006735 
L 317.536958 37.309658 
L 320.469065 28.307354 
L 323.250979 20.463301 
L 324.610091 16.893454 
L 324.610091 16.893454 
" clip-path="url(#p983206e84b)" style="fill: none; stroke: #bad6eb; stroke-width: 3; stroke-linecap: square"/>
   </g>
   <g id="line2d_3">
    <path d="M 42.354617 249.28241 
L 48.443537 245.240281 
L 57.365953 239.019224 
L 75.633962 225.926027 
L 92.41416 214.019404 
L 104.395712 205.786074 
L 114.678817 198.98783 
L 123.614883 193.332698 
L 132.2274 188.141042 
L 140.472429 183.431695 
L 148.303139 179.202757 
L 158.137785 174.173989 
L 196.713656 154.690055 
L 211.037251 147.762031 
L 223.993955 141.734909 
L 236.720526 136.063807 
L 249.083912 130.798607 
L 262.035268 125.528944 
L 265.858812 124.11212 
L 269.67772 122.949967 
L 276.067499 121.134736 
L 278.576672 120.143038 
L 281.443673 118.757167 
L 284.147111 117.184911 
L 286.674241 115.439111 
L 289.015333 113.537005 
L 291.171379 111.506291 
L 293.133753 109.36032 
L 294.905764 107.12231 
L 296.742087 104.424265 
L 298.330739 101.656442 
L 299.880503 98.45275 
L 301.350615 94.850382 
L 302.850203 90.509597 
L 304.432661 85.152235 
L 306.406791 77.560961 
L 311.885265 56.037904 
L 314.709427 46.087386 
L 317.648066 36.53525 
L 320.606445 27.657402 
L 323.409774 19.925768 
L 324.576103 16.917374 
L 324.576103 16.917374 
" clip-path="url(#p983206e84b)" style="fill: none; stroke: #9dcae1; stroke-width: 3; stroke-linecap: square"/>
   </g>
   <g id="line2d_4">
    <path d="M 42.354617 249.28241 
L 45.28145 246.084689 
L 48.816968 242.568523 
L 52.993925 238.722136 
L 58.257349 234.179743 
L 64.703672 228.918767 
L 72.423462 222.914239 
L 81.016418 216.507287 
L 90.507214 209.709283 
L 99.869758 203.271797 
L 109.032506 197.239772 
L 117.374025 191.999659 
L 125.37829 187.2188 
L 133.001378 182.908925 
L 140.806478 178.753726 
L 148.786292 174.774617 
L 158.800423 170.079175 
L 207.359692 147.485948 
L 221.706218 141.164276 
L 235.163558 135.472631 
L 248.790457 129.95614 
L 262.873639 124.50119 
L 266.147027 123.362469 
L 269.957669 122.272542 
L 275.278845 120.829941 
L 278.291597 119.66858 
L 280.688134 118.545053 
L 283.406303 117.005389 
L 285.539415 115.588454 
L 287.93016 113.73926 
L 290.137235 111.754853 
L 292.150818 109.64799 
L 293.973085 107.442058 
L 295.865569 104.773075 
L 297.506025 102.025574 
L 298.922529 99.236209 
L 300.314827 96.038858 
L 301.788217 92.077315 
L 303.271078 87.430721 
L 305.030319 81.122623 
L 308.608349 67.127563 
L 311.637789 55.811822 
L 314.521876 45.905138 
L 317.518713 36.393377 
L 320.531756 27.552021 
L 323.382727 19.852901 
L 324.566595 16.859841 
L 324.566595 16.859841 
" clip-path="url(#p983206e84b)" style="fill: none; stroke: #79b5d9; stroke-width: 3; stroke-linecap: square"/>
   </g>
   <g id="line2d_5">
    <path d="M 42.354617 249.28241 
L 43.657162 246.724403 
L 45.180715 244.218375 
L 47.1951 241.358031 
L 49.42589 238.55933 
L 52.199251 235.425298 
L 55.560733 231.966355 
L 59.548985 228.186998 
L 64.197241 224.086615 
L 69.991334 219.294513 
L 76.545154 214.179524 
L 83.883992 208.740907 
L 92.037202 202.98931 
L 100.50183 197.306051 
L 108.708545 192.068259 
L 116.601292 187.291755 
L 124.131786 182.986635 
L 131.255356 179.153187 
L 138.542302 175.480237 
L 145.985973 171.986449 
L 153.572719 168.677354 
L 170.830126 161.317146 
L 208.476764 145.152954 
L 224.15066 138.70239 
L 238.812995 132.901263 
L 253.470217 127.336849 
L 265.14018 123.102876 
L 268.951931 122.006696 
L 275.323156 120.288619 
L 277.826967 119.332521 
L 280.222182 118.22163 
L 282.948051 116.711386 
L 285.088923 115.317672 
L 287.483531 113.485399 
L 289.692789 111.513644 
L 291.713603 109.422885 
L 293.826049 106.854041 
L 295.417179 104.557349 
L 297.038604 101.805962 
L 298.62814 98.617473 
L 300.144419 95.027991 
L 301.700664 90.69782 
L 303.353527 85.347752 
L 305.427319 77.759143 
L 311.191865 56.224987 
L 314.152649 46.271209 
L 317.224185 36.720773 
L 320.306574 27.848887 
L 323.219288 20.120725 
L 324.532701 16.859393 
L 324.532701 16.859393 
" clip-path="url(#p983206e84b)" style="fill: none; stroke: #58a1cf; stroke-width: 3; stroke-linecap: square"/>
   </g>
   <g id="line2d_6">
    <path d="M 42.354617 249.28241 
L 42.819154 246.943883 
L 43.520531 244.625034 
L 44.431506 242.337977 
L 45.766226 239.644585 
L 47.328755 237.010777 
L 49.39708 234.012282 
L 51.690215 231.088195 
L 54.543816 227.827162 
L 58.005153 224.246252 
L 62.11391 220.356769 
L 66.903791 216.1648 
L 72.404583 211.673208 
L 78.644377 206.884867 
L 85.651878 201.807009 
L 92.9293 196.810438 
L 100.458226 191.90615 
L 108.228487 187.116046 
L 115.656095 182.798278 
L 122.693211 178.952579 
L 129.903474 175.270497 
L 136.662621 172.062619 
L 143.558947 169.031559 
L 150.581079 166.182769 
L 184.896372 152.736027 
L 213.122162 141.558964 
L 230.63026 134.876491 
L 246.87656 128.912339 
L 263.299272 123.108129 
L 266.57343 122.10706 
L 270.375187 121.175829 
L 273.567227 120.391539 
L 276.622057 119.349451 
L 279.053934 118.307154 
L 281.818881 116.855199 
L 284.415466 115.221792 
L 286.832287 113.422416 
L 289.411343 111.135083 
L 291.418594 109.045447 
L 293.238254 106.858294 
L 294.847893 104.575535 
L 296.490517 101.837343 
L 298.103353 98.660583 
L 299.644371 95.080911 
L 301.09568 91.148181 
L 302.690383 86.165957 
L 304.652947 79.232992 
L 311.668797 53.725173 
L 314.69879 43.919929 
L 317.827581 34.536517 
L 320.960699 25.835833 
L 323.849847 18.446437 
L 324.475175 16.933569 
L 324.475175 16.933569 
" clip-path="url(#p983206e84b)" style="fill: none; stroke: #3d8dc4; stroke-width: 3; stroke-linecap: square"/>
   </g>
   <g id="line2d_7">
    <path d="M 42.354617 249.28241 
L 41.995721 245.960637 
L 41.844799 242.566629 
L 41.900083 239.611655 
L 42.227372 237.137086 
L 42.811795 234.676433 
L 43.626868 232.246164 
L 44.647062 229.856712 
L 46.109086 227.051131 
L 47.79676 224.31621 
L 50.01025 221.213572 
L 52.448958 218.200325 
L 55.470348 214.855888 
L 58.705013 211.605133 
L 62.561765 208.04499 
L 67.079244 204.192311 
L 72.291854 200.061156 
L 78.231524 195.665186 
L 84.405557 191.374571 
L 91.334096 186.843234 
L 98.495476 182.441952 
L 105.304172 178.511612 
L 112.299647 174.732788 
L 118.875478 171.428536 
L 125.607009 168.305719 
L 131.85971 165.64819 
L 138.234235 163.181972 
L 144.721359 160.916405 
L 151.306829 158.846658 
L 169.249327 153.415918 
L 183.136483 148.870791 
L 206.667639 140.890886 
L 236.901866 130.69223 
L 260.760916 122.898712 
L 266.219458 121.247459 
L 270.010276 120.388829 
L 273.183154 119.623575 
L 275.72696 118.79586 
L 278.166778 117.799788 
L 280.94673 116.404423 
L 283.138105 115.100303 
L 285.598613 113.365994 
L 287.870947 111.473475 
L 290.284855 109.102788 
L 292.440737 106.58702 
L 294.070117 104.329442 
L 295.736071 101.616796 
L 297.375472 98.464994 
L 298.945841 94.909007 
L 300.428832 90.998277 
L 302.063095 86.039475 
L 304.080206 79.133231 
L 311.299926 53.694219 
L 314.410733 43.910696 
L 317.61754 34.548153 
L 320.823101 25.867438 
L 323.774485 18.492966 
L 324.464933 16.860478 
L 324.464933 16.860478 
" clip-path="url(#p983206e84b)" style="fill: none; stroke: #2575b7; stroke-width: 3; stroke-linecap: square"/>
   </g>
   <g id="line2d_8">
    <path d="M 42.354617 249.28241 
L 41.287739 246.632421 
L 40.434678 243.868246 
L 39.776475 241.013504 
L 39.230196 237.592355 
L 38.897077 234.093638 
L 38.747609 230.019653 
L 38.805585 227.44068 
L 39.133002 224.855336 
L 39.723393 222.287339 
L 40.551441 219.753996 
L 41.592255 217.266789 
L 42.822472 214.832539 
L 44.518976 211.985787 
L 46.425426 209.22091 
L 48.878434 206.095461 
L 51.543461 203.071299 
L 54.811156 199.728295 
L 58.28209 196.493622 
L 62.395599 192.969216 
L 67.189982 189.178625 
L 72.189567 185.505299 
L 77.898281 181.587957 
L 83.804408 177.793647 
L 90.454532 173.796118 
L 96.729889 170.27146 
L 103.171594 166.898484 
L 109.777949 163.70344 
L 115.9267 160.982278 
L 121.576925 158.708869 
L 127.335756 156.626509 
L 133.198731 154.75677 
L 139.157385 153.114047 
L 145.198907 151.699604 
L 151.307036 150.496333 
L 164.957488 147.952469 
L 173.784941 146.000918 
L 183.906489 143.535183 
L 196.600801 140.197891 
L 213.010801 135.632711 
L 239.430617 128.018244 
L 266.343092 120.297246 
L 273.766402 118.626341 
L 276.745006 117.558753 
L 279.110352 116.493721 
L 281.789332 115.010412 
L 284.296261 113.347835 
L 286.244983 111.83556 
L 288.062956 110.222513 
L 290.073183 108.174979 
L 291.877441 106.009169 
L 293.508277 103.772449 
L 295.178411 101.083475 
L 296.825509 97.957717 
L 298.407711 94.429614 
L 300.044835 90.163723 
L 301.799485 84.882146 
L 304.020884 77.376036 
L 310.141072 56.285448 
L 313.316019 46.366683 
L 316.59527 36.851267 
L 319.87093 28.015052 
L 322.952803 20.315959 
L 324.447866 16.813038 
L 324.447866 16.813038 
" clip-path="url(#p983206e84b)" style="fill: none; stroke: #125ea6; stroke-width: 3; stroke-linecap: square"/>
   </g>
   <g id="line2d_9">
    <path d="M 42.354617 249.28241 
L 40.888519 247.414084 
L 39.589151 245.402752 
L 38.45192 243.27135 
L 37.290159 240.58329 
L 36.333766 237.780041 
L 35.564564 234.884445 
L 34.879982 231.412844 
L 34.399832 227.860417 
L 34.0723 223.720984 
L 33.953565 219.512379 
L 34.047998 216.85454 
L 34.327567 214.727335 
L 34.917288 212.087228 
L 35.750987 209.484777 
L 36.804113 206.93241 
L 38.053278 204.437828 
L 39.780864 201.526067 
L 41.726718 198.705087 
L 43.862292 195.973088 
L 46.561426 192.892735 
L 49.453886 189.919544 
L 52.963056 186.641143 
L 56.659614 183.477605 
L 61.011778 180.041253 
L 66.05628 176.359197 
L 71.293363 172.806868 
L 77.25182 169.039056 
L 83.398375 165.414579 
L 89.720085 161.939071 
L 96.209634 158.628106 
L 102.252546 155.783304 
L 108.432379 153.12589 
L 114.112523 150.926125 
L 119.255969 149.151603 
L 124.486799 147.574111 
L 129.800587 146.218352 
L 134.51174 145.229071 
L 139.271937 144.429732 
L 144.759519 143.742686 
L 150.282888 143.272349 
L 164.139247 142.248837 
L 171.043075 141.41635 
L 178.600824 140.290892 
L 187.468769 138.735929 
L 197.593508 136.714852 
L 208.895302 134.223291 
L 222.536701 130.977387 
L 239.403563 126.719392 
L 259.224136 121.476311 
L 265.788215 119.799556 
L 273.205165 118.227426 
L 276.176668 117.173047 
L 278.541505 116.129315 
L 281.229825 114.685337 
L 283.73846 113.043552 
L 286.067635 111.239994 
L 287.866873 109.628264 
L 290.16105 107.2249 
L 291.903885 105.041763 
L 293.693137 102.393711 
L 295.253494 99.682615 
L 296.802202 96.553653 
L 298.457978 92.652982 
L 300.14102 88.052957 
L 302.044039 82.138057 
L 305.155785 71.557498 
L 309.038381 58.572856 
L 312.270929 48.570744 
L 315.617805 38.945032 
L 319.02589 29.822084 
L 322.225007 21.872976 
L 324.402254 16.829592 
L 324.402254 16.829592 
" clip-path="url(#p983206e84b)" style="fill: none; stroke: #08478d; stroke-width: 3; stroke-linecap: square"/>
   </g>
   <g id="line2d_10">
    <path d="M 42.354617 249.28241 
L 40.442314 247.893238 
L 38.681803 246.302611 
L 37.078237 244.532361 
L 35.634432 242.606727 
L 34.348158 240.548879 
L 33.003898 237.934231 
L 31.862759 235.190055 
L 30.907401 232.341262 
L 30.003944 228.911264 
L 29.302456 225.388783 
L 28.717517 221.271698 
L 28.334752 217.074656 
L 28.114865 212.273693 
L 28.104689 207.946528 
L 28.29893 205.771756 
L 28.794176 203.066678 
L 29.547927 200.395951 
L 30.535806 197.774801 
L 31.733904 195.213309 
L 33.119701 192.717373 
L 35.001539 189.812373 
L 37.092492 187.005752 
L 39.365342 184.294548 
L 42.216218 181.245518 
L 45.252681 178.31038 
L 48.918301 175.082827 
L 52.763745 171.977204 
L 57.275372 168.613588 
L 62.487967 165.020752 
L 67.884201 161.565499 
L 74.007838 157.912602 
L 80.309502 154.411069 
L 86.776555 151.066998 
L 93.40227 147.898198 
L 99.561994 145.196375 
L 105.218379 142.941588 
L 110.984168 140.892774 
L 116.202836 139.283046 
L 120.840851 138.070232 
L 125.542416 137.069788 
L 130.300411 136.307997 
L 134.415044 135.859528 
L 138.553541 135.604348 
L 143.398791 135.542367 
L 148.249011 135.709095 
L 153.796163 135.961921 
L 159.355641 135.835829 
L 166.298567 135.460544 
L 173.912918 134.815917 
L 182.175379 133.886421 
L 191.055104 132.668864 
L 201.181868 131.058903 
L 213.119849 128.925505 
L 226.671622 126.270919 
L 242.130501 123.015681 
L 258.903294 119.257377 
L 265.97254 117.72145 
L 270.729738 116.87553 
L 273.753223 116.001352 
L 276.162305 115.078929 
L 278.460738 113.994357 
L 281.064315 112.503072 
L 283.097234 111.117428 
L 285.367951 109.305387 
L 287.435678 107.336431 
L 289.312756 105.252269 
L 290.988691 103.065132 
L 292.717419 100.429322 
L 294.437113 97.358133 
L 296.105434 93.884049 
L 297.850757 89.674973 
L 299.743305 84.454016 
L 302.164914 77.021539 
L 308.859573 56.105084 
L 312.30784 46.265544 
L 315.849174 36.828612 
L 319.433867 27.906382 
L 322.780579 20.159803 
L 324.307713 16.82959 
L 324.307713 16.82959 
" clip-path="url(#p983206e84b)" style="fill: none; stroke: #08306b; stroke-width: 3; stroke-linecap: square"/>
   </g>
  </g>
 </g>
 <defs>
  <clipPath id="p983206e84b">
   <rect x="0" y="-0" width="357.12" height="266.112"/>
  </clipPath>
 </defs>
</svg>
