<?xml version="1.0" encoding="utf-8" standalone="no"?>
<!DOCTYPE svg PUBLIC "-//W3C//DTD SVG 1.1//EN"
  "http://www.w3.org/Graphics/SVG/1.1/DTD/svg11.dtd">
<svg xmlns:xlink="http://www.w3.org/1999/xlink" width="357.12pt" height="266.112pt" viewBox="0 0 357.12 266.112" xmlns="http://www.w3.org/2000/svg" version="1.1">
 <metadata>
  <rdf:RDF xmlns:dc="http://purl.org/dc/elements/1.1/" xmlns:cc="http://creativecommons.org/ns#" xmlns:rdf="http://www.w3.org/1999/02/22-rdf-syntax-ns#">
   <cc:Work>
    <dc:type rdf:resource="http://purl.org/dc/dcmitype/StillImage"/>
    <dc:date>2024-03-22T14:15:49.147270</dc:date>
    <dc:format>image/svg+xml</dc:format>
    <dc:creator>
     <cc:Agent>
      <dc:title>Matplotlib v3.7.5, https://matplotlib.org/</dc:title>
     </cc:Agent>
    </dc:creator>
   </cc:Work>
  </rdf:RDF>
 </metadata>
 <defs>
  <style type="text/css">*{stroke-linejoin: round; stroke-linecap: butt}</style>
 </defs>
 <g id="figure_1">
  <g id="patch_1">
   <path d="M 0 266.112 
L 357.12 266.112 
L 357.12 0 
L 0 0 
z
" style="fill: #ffffff"/>
  </g>
  <g id="axes_1">
   <g id="patch_2">
    <path d="M 278.443282 202.480503 
C 290.868167 202.480503 302.785834 197.544044 311.571554 188.758323 
C 320.357275 179.972603 325.293734 168.054936 325.293734 155.630051 
C 325.293734 143.205166 320.357275 131.2875 311.571554 122.501779 
C 302.785834 113.716059 290.868167 108.7796 278.443282 108.7796 
C 266.018397 108.7796 254.100731 113.716059 245.31501 122.501779 
C 236.52929 131.2875 231.59283 143.205166 231.59283 155.630051 
C 231.59283 168.054936 236.52929 179.972603 245.31501 188.758323 
C 254.100731 197.544044 266.018397 202.480503 278.443282 202.480503 
z
" clip-path="url(#pe46992f2d8)" style="fill: #ff0000; opacity: 0.5"/>
   </g>
   <g id="patch_3">
    <path d="M 321.067987 21.46609 
C 322.310475 21.46609 323.502242 20.972444 324.380814 20.093872 
C 325.259386 19.2153 325.753032 18.023534 325.753032 16.781045 
C 325.753032 15.538557 325.259386 14.34679 324.380814 13.468218 
C 323.502242 12.589646 322.310475 12.096 321.067987 12.096 
C 319.825498 12.096 318.633731 12.589646 317.755159 13.468218 
C 316.876587 14.34679 316.382941 15.538557 316.382941 16.781045 
C 316.382941 18.023534 316.876587 19.2153 317.755159 20.093872 
C 318.633731 20.972444 319.825498 21.46609 321.067987 21.46609 
z
" clip-path="url(#pe46992f2d8)" style="fill: #008000; opacity: 0.7"/>
   </g>
   <g id="patch_4">
    <path d="M 44.191024 254.016 
C 45.433512 254.016 46.625279 253.522354 47.503851 252.643782 
C 48.382423 251.76521 48.876069 250.573443 48.876069 249.330955 
C 48.876069 248.088466 48.382423 246.8967 47.503851 246.018128 
C 46.625279 245.139556 45.433512 244.64591 44.191024 244.64591 
C 42.948535 244.64591 41.756768 245.139556 40.878196 246.018128 
C 39.999624 246.8967 39.505978 248.088466 39.505978 249.330955 
C 39.505978 250.573443 39.999624 251.76521 40.878196 252.643782 
C 41.756768 253.522354 42.948535 254.016 44.191024 254.016 
z
" clip-path="url(#pe46992f2d8)" style="fill: #0000ff; opacity: 0.7"/>
   </g>
   <g id="line2d_1">
    <path d="M 44.191024 249.330955 
L 46.549052 249.220044 
L 48.925697 248.886382 
L 51.306604 248.353251 
L 54.156677 247.481955 
L 56.991021 246.390792 
L 60.273146 244.879425 
L 63.528358 243.148564 
L 67.218866 240.942228 
L 71.339665 238.213665 
L 75.889989 234.924022 
L 80.873036 231.040957 
L 86.294573 226.536641 
L 92.611723 220.978623 
L 99.376091 214.708324 
L 106.132652 208.146396 
L 113.316049 200.849659 
L 120.004763 193.741573 
L 126.179788 186.87646 
L 132.257058 179.786269 
L 137.780641 172.997487 
L 142.749176 166.553601 
L 147.568202 159.94058 
L 152.218221 153.164711 
L 156.68836 146.23956 
L 160.980582 139.187295 
L 165.787645 130.840515 
L 171.739065 120.016755 
L 181.859024 101.561937 
L 184.592549 96.956215 
L 187.14713 93.067131 
L 189.834044 89.311611 
L 193.068032 85.203096 
L 196.450978 81.293297 
L 199.963515 77.589557 
L 203.590189 74.101957 
L 207.309594 70.834252 
L 211.101976 67.790607 
L 214.943767 64.968442 
L 218.816207 62.36914 
L 223.183053 59.705306 
L 227.532559 57.305992 
L 232.310646 54.928529 
L 237.909784 52.408039 
L 244.190439 49.828807 
L 252.599116 46.629876 
L 278.251269 37.034283 
L 287.755039 33.148728 
L 297.296808 29.003459 
L 306.434542 24.794305 
L 314.779957 20.710597 
L 321.244842 17.338993 
L 321.244842 17.338993 
" clip-path="url(#pe46992f2d8)" style="fill: none; stroke: #d0e1f2; stroke-width: 3; stroke-linecap: square"/>
   </g>
   <g id="line2d_2">
    <path d="M 44.191024 249.330955 
L 46.885196 248.425887 
L 50.01652 247.113583 
L 53.132606 245.567596 
L 56.677255 243.560395 
L 60.650205 241.045429 
L 65.056293 237.984918 
L 69.905057 234.348121 
L 75.65223 229.744513 
L 81.873493 224.473922 
L 89.030315 218.11012 
L 96.684646 210.999112 
L 104.373755 203.560762 
L 112.068999 195.812681 
L 119.281804 188.242425 
L 125.979731 180.898077 
L 132.138367 173.822216 
L 137.743902 167.055951 
L 143.209512 160.099095 
L 148.106946 153.51086 
L 152.846583 146.771568 
L 157.422737 139.897719 
L 162.204631 132.328591 
L 167.882841 122.900962 
L 184.180668 95.467129 
L 186.76987 91.598892 
L 189.892761 87.347121 
L 192.758967 83.784576 
L 196.175794 79.905104 
L 199.71811 76.231684 
L 203.367545 72.77138 
L 207.102777 69.526772 
L 210.906992 66.504602 
L 215.245466 63.373955 
L 219.612559 60.518744 
L 223.984162 57.939444 
L 228.330948 55.623005 
L 233.098918 53.336044 
L 238.677698 50.91977 
L 245.360432 48.289533 
L 254.471501 44.976148 
L 276.192354 37.172912 
L 285.783787 33.434044 
L 295.253173 29.50227 
L 304.572183 25.391277 
L 313.094891 21.39233 
L 320.38458 17.735464 
L 321.204526 17.306442 
L 321.204526 17.306442 
" clip-path="url(#pe46992f2d8)" style="fill: none; stroke: #bad6eb; stroke-width: 3; stroke-linecap: square"/>
   </g>
   <g id="line2d_3">
    <path d="M 44.191024 249.330955 
L 48.151573 246.658811 
L 52.964329 243.131129 
L 58.67701 238.652381 
L 65.345409 233.138774 
L 73.457186 226.134205 
L 82.646382 217.898737 
L 92.480982 208.778948 
L 102.008401 199.637184 
L 110.686286 191.00752 
L 118.443332 182.993575 
L 125.687432 175.189622 
L 131.939957 168.144928 
L 138.073942 160.892244 
L 143.632609 153.969978 
L 149.034781 146.872263 
L 154.26621 139.613488 
L 159.327013 132.219283 
L 164.978608 123.568612 
L 173.387681 110.226654 
L 181.388305 97.647667 
L 186.227354 90.441726 
L 189.377634 86.204005 
L 192.266998 82.655118 
L 195.697391 78.782343 
L 199.258297 75.122027 
L 202.92345 71.673721 
L 206.673645 68.442371 
L 210.489726 65.431454 
L 214.836403 62.308575 
L 219.212003 59.46327 
L 223.58979 56.891614 
L 227.943082 54.584737 
L 232.717224 52.308118 
L 237.850061 50.106023 
L 244.139386 47.661692 
L 252.154778 44.803545 
L 280.184874 35.020785 
L 289.663482 31.358511 
L 299.153541 27.450348 
L 308.233737 23.469296 
L 316.232746 19.725716 
L 321.221386 17.242318 
L 321.221386 17.242318 
" clip-path="url(#pe46992f2d8)" style="fill: none; stroke: #9dcae1; stroke-width: 3; stroke-linecap: square"/>
   </g>
   <g id="line2d_4">
    <path d="M 44.191024 249.330955 
L 47.718859 245.422036 
L 52.590152 240.382807 
L 59.350698 233.750843 
L 69.450589 224.189875 
L 98.609042 196.738166 
L 108.751982 186.824683 
L 117.540287 177.927967 
L 124.899861 170.178946 
L 131.716384 162.688603 
L 137.966313 155.493563 
L 143.642955 148.635265 
L 149.175797 141.613039 
L 154.553797 134.443175 
L 160.176191 126.588649 
L 166.805077 116.936606 
L 183.61632 92.21977 
L 187.92486 86.324798 
L 191.213446 82.234262 
L 194.644922 78.34142 
L 198.205116 74.657648 
L 202.331679 70.761842 
L 206.089512 67.528174 
L 210.398155 64.158492 
L 214.758244 61.065137 
L 219.145985 58.252183 
L 223.53082 55.709315 
L 227.886128 53.426005 
L 232.662938 51.180817 
L 237.799855 49.021134 
L 244.094615 46.638026 
L 252.116755 43.868066 
L 280.986891 34.135254 
L 290.58939 30.529148 
L 299.961036 26.771604 
L 308.948268 22.929357 
L 316.870264 19.305143 
L 321.197976 17.200879 
L 321.197976 17.200879 
" clip-path="url(#pe46992f2d8)" style="fill: none; stroke: #79b5d9; stroke-width: 3; stroke-linecap: square"/>
   </g>
   <g id="line2d_5">
    <path d="M 44.191024 249.330955 
L 45.46509 246.790317 
L 47.19125 243.86663 
L 49.427554 240.572026 
L 52.219598 236.911272 
L 55.601469 232.879813 
L 59.597598 228.463602 
L 65.01913 222.833954 
L 71.999422 215.934197 
L 82.406348 205.989885 
L 106.74994 182.821244 
L 116.138999 173.545855 
L 124.094695 165.394651 
L 131.502328 157.481691 
L 137.878656 150.358046 
L 144.12393 143.048036 
L 150.215366 135.562199 
L 156.144134 127.924616 
L 162.734315 119.061537 
L 172.357676 105.680172 
L 181.508101 93.061014 
L 187.156239 85.636533 
L 190.8837 81.046042 
L 194.340924 77.171405 
L 197.920511 73.502647 
L 201.606908 70.049234 
L 205.849513 66.417907 
L 209.686435 63.421471 
L 214.055846 60.317507 
L 218.449682 57.488095 
L 222.8419 54.929611 
L 227.206126 52.632176 
L 231.521493 50.590462 
L 236.693132 48.409104 
L 242.599052 46.182755 
L 249.910158 43.6876 
L 262.275273 39.755 
L 275.279501 35.540966 
L 285.052323 32.133898 
L 294.490046 28.607362 
L 303.83925 24.874775 
L 312.423409 21.209387 
L 319.806446 17.820471 
L 321.135149 17.180317 
L 321.135149 17.180317 
" clip-path="url(#pe46992f2d8)" style="fill: none; stroke: #58a1cf; stroke-width: 3; stroke-linecap: square"/>
   </g>
   <g id="line2d_6">
    <path d="M 44.191024 249.330955 
L 44.641759 247.013533 
L 45.309311 244.707865 
L 46.360362 241.969708 
L 47.646573 239.269951 
L 49.39895 236.170736 
L 51.379924 233.122271 
L 53.877597 229.69134 
L 56.934905 225.88418 
L 60.584522 221.698633 
L 65.248964 216.708415 
L 71.004593 210.892086 
L 78.788576 203.364482 
L 91.971263 190.984137 
L 108.969001 174.962296 
L 118.514917 165.663839 
L 126.591291 157.501579 
L 134.10229 149.586133 
L 141.02053 141.95485 
L 147.341138 134.654743 
L 153.950703 126.664745 
L 160.819926 117.99704 
L 170.027853 105.976504 
L 181.606865 90.900946 
L 187.457965 83.643448 
L 192.14002 78.162881 
L 195.679698 74.398491 
L 199.329849 70.84238 
L 203.0748 67.503144 
L 206.888924 64.377168 
L 210.758521 61.47332 
L 215.148434 58.464901 
L 219.553591 55.731004 
L 223.94546 53.261866 
L 228.301237 51.05154 
L 233.07149 48.885267 
L 238.199485 46.82234 
L 244.041636 44.720286 
L 251.666643 42.235142 
L 283.62172 32.13109 
L 293.080915 28.747845 
L 302.492994 25.14319 
L 311.155731 21.590544 
L 318.655286 18.283845 
L 321.144244 17.124202 
L 321.144244 17.124202 
" clip-path="url(#pe46992f2d8)" style="fill: none; stroke: #3d8dc4; stroke-width: 3; stroke-linecap: square"/>
   </g>
   <g id="line2d_7">
    <path d="M 44.191024 249.330955 
L 43.837445 246.040988 
L 43.691457 242.675487 
L 43.7343 240.23396 
L 44.028694 237.777605 
L 44.564377 235.327221 
L 45.315344 232.897114 
L 46.466077 230.01973 
L 47.852898 227.191192 
L 49.725005 223.954685 
L 51.828814 220.782762 
L 54.470713 217.227406 
L 57.694618 213.300796 
L 61.533557 209.006501 
L 66.010619 204.338513 
L 71.577585 198.86073 
L 78.750599 192.125216 
L 89.516579 182.356477 
L 113.430569 160.748321 
L 122.802698 151.949836 
L 131.127868 143.837342 
L 138.858937 135.985563 
L 145.980348 128.439399 
L 153.420706 120.217513 
L 161.601036 110.817483 
L 187.719428 80.454216 
L 193.532368 74.258294 
L 197.171755 70.63033 
L 200.907148 67.213815 
L 205.201204 63.628348 
L 209.078484 60.673549 
L 213.483436 57.611609 
L 217.902461 54.816941 
L 222.315834 52.294153 
L 226.695359 50.029083 
L 231.496315 47.805004 
L 236.663896 45.686556 
L 242.125389 43.71618 
L 248.632485 41.621054 
L 257.839545 38.915035 
L 276.757352 33.3943 
L 286.592094 30.252554 
L 296.060617 26.994054 
L 305.241894 23.602087 
L 313.548117 20.303694 
L 320.675019 17.243822 
L 321.152137 17.029155 
L 321.152137 17.029155 
" clip-path="url(#pe46992f2d8)" style="fill: none; stroke: #2575b7; stroke-width: 3; stroke-linecap: square"/>
   </g>
   <g id="line2d_8">
    <path d="M 44.191024 249.330955 
L 43.303588 247.149406 
L 42.444982 244.41956 
L 41.787806 241.593857 
L 41.248614 238.202028 
L 40.926458 234.729133 
L 40.791506 230.681349 
L 40.88398 228.117896 
L 41.241762 225.548316 
L 41.843802 222.992982 
L 42.664653 220.465872 
L 43.679996 217.975654 
L 45.123768 215.042301 
L 46.781143 212.170854 
L 48.945583 208.896651 
L 51.321493 205.69753 
L 54.254783 202.121753 
L 57.786942 198.184051 
L 61.949515 193.890753 
L 66.76467 189.238693 
L 72.712099 183.797943 
L 80.330514 177.131932 
L 92.203206 167.07965 
L 115.232181 147.632403 
L 125.540051 138.604467 
L 134.236638 130.708071 
L 142.822277 122.605828 
L 151.263657 114.320079 
L 160.515252 104.907204 
L 188.475008 76.1747 
L 194.623895 70.340218 
L 200.326807 65.240996 
L 204.1774 62.060696 
L 208.078927 59.09484 
L 212.016324 56.348906 
L 216.462995 53.517616 
L 220.901928 50.953356 
L 225.307281 48.645731 
L 230.139526 46.377858 
L 234.876963 44.399662 
L 239.497681 42.694476 
L 245.288421 40.81208 
L 252.430258 38.74825 
L 265.507146 35.264765 
L 277.994506 31.836694 
L 287.914024 28.873245 
L 297.429497 25.797969 
L 306.631358 22.590777 
L 314.791676 19.517433 
L 321.126536 16.933105 
L 321.126536 16.933105 
" clip-path="url(#pe46992f2d8)" style="fill: none; stroke: #125ea6; stroke-width: 3; stroke-linecap: square"/>
   </g>
   <g id="line2d_9">
    <path d="M 44.191024 249.330955 
L 42.74924 247.473452 
L 41.490454 245.46154 
L 40.408338 243.322826 
L 39.328558 240.621883 
L 38.462349 237.806632 
L 37.783881 234.902613 
L 37.204011 231.425259 
L 36.826005 227.87071 
L 36.611043 223.732237 
L 36.608544 220.056247 
L 36.872583 217.413778 
L 37.398729 214.782088 
L 38.161583 212.178504 
L 39.136075 209.614489 
L 40.551678 206.599121 
L 42.201169 203.655207 
L 44.052326 200.782596 
L 46.43031 197.516675 
L 49.00871 194.334545 
L 52.162524 190.787373 
L 55.931714 186.892193 
L 60.346869 182.657632 
L 65.901871 177.670134 
L 72.664704 171.932173 
L 81.190388 165.013212 
L 94.695598 154.387526 
L 116.048028 137.578453 
L 127.310085 128.404018 
L 136.891497 120.316737 
L 146.353262 112.031355 
L 156.177099 103.116271 
L 168.845942 91.284953 
L 183.773053 77.394568 
L 191.184483 70.796014 
L 197.599407 65.370131 
L 203.515495 60.660887 
L 208.444885 57.001055 
L 212.910176 53.987065 
L 217.381999 51.2436 
L 221.834804 48.764073 
L 226.246337 46.542492 
L 231.07226 44.360473 
L 235.794605 42.464357 
L 240.842581 40.680265 
L 246.574393 38.914152 
L 253.633197 36.996198 
L 266.879495 33.69494 
L 279.151768 30.531348 
L 289.159698 27.712734 
L 298.724418 24.787538 
L 307.776758 21.791213 
L 315.816534 18.903609 
L 321.043078 16.874003 
L 321.043078 16.874003 
" clip-path="url(#pe46992f2d8)" style="fill: none; stroke: #08478d; stroke-width: 3; stroke-linecap: square"/>
   </g>
   <g id="line2d_10">
    <path d="M 44.191024 249.330955 
L 42.66612 248.241753 
L 40.907763 246.677143 
L 39.322635 244.913862 
L 37.913846 242.981946 
L 36.677929 240.909562 
L 35.606759 238.721527 
L 34.523354 235.972363 
L 33.638665 233.115951 
L 32.823513 229.678394 
L 32.214011 226.150415 
L 31.736801 222.029561 
L 31.44199 217.301572 
L 31.373684 212.493259 
L 31.518429 210.33767 
L 31.950509 207.648764 
L 32.638245 204.985512 
L 33.556005 202.362696 
L 34.678943 199.789688 
L 36.264839 196.774734 
L 38.07703 193.84143 
L 40.084332 190.988029 
L 42.637469 187.753843 
L 45.384708 184.6122 
L 48.725141 181.12073 
L 52.697741 177.298883 
L 57.332488 173.157576 
L 62.650771 168.698005 
L 69.17604 163.515176 
L 77.487276 157.206441 
L 89.285252 148.550436 
L 119.733639 126.3237 
L 130.860671 117.872098 
L 141.341636 109.632149 
L 151.683953 101.21384 
L 163.982797 90.889322 
L 186.399273 71.994421 
L 194.09401 65.84069 
L 200.7218 60.815765 
L 206.800894 56.485829 
L 212.33012 52.8124 
L 216.828413 50.060628 
L 221.308038 47.577782 
L 226.231941 45.118764 
L 231.07179 42.960513 
L 235.802453 41.084299 
L 240.855971 39.322556 
L 246.163427 37.720476 
L 252.858432 35.956407 
L 263.11197 33.525316 
L 278.648734 29.8147 
L 288.758346 27.152342 
L 298.415486 24.379537 
L 307.552264 21.529474 
L 315.666636 18.773078 
L 321.067987 16.781045 
L 321.067987 16.781045 
" clip-path="url(#pe46992f2d8)" style="fill: none; stroke: #08306b; stroke-width: 3; stroke-linecap: square"/>
   </g>
  </g>
 </g>
 <defs>
  <clipPath id="pe46992f2d8">
   <rect x="0" y="-0" width="357.12" height="266.112"/>
  </clipPath>
 </defs>
</svg>
