<?xml version="1.0" encoding="utf-8" standalone="no"?>
<!DOCTYPE svg PUBLIC "-//W3C//DTD SVG 1.1//EN"
  "http://www.w3.org/Graphics/SVG/1.1/DTD/svg11.dtd">
<svg xmlns:xlink="http://www.w3.org/1999/xlink" width="460.8pt" height="345.6pt" viewBox="0 0 460.8 345.6" xmlns="http://www.w3.org/2000/svg" version="1.1">
 <metadata>
  <rdf:RDF xmlns:dc="http://purl.org/dc/elements/1.1/" xmlns:cc="http://creativecommons.org/ns#" xmlns:rdf="http://www.w3.org/1999/02/22-rdf-syntax-ns#">
   <cc:Work>
    <dc:type rdf:resource="http://purl.org/dc/dcmitype/StillImage"/>
    <dc:date>2024-01-24T11:30:21.304074</dc:date>
    <dc:format>image/svg+xml</dc:format>
    <dc:creator>
     <cc:Agent>
      <dc:title>Matplotlib v3.7.4, https://matplotlib.org/</dc:title>
     </cc:Agent>
    </dc:creator>
   </cc:Work>
  </rdf:RDF>
 </metadata>
 <defs>
  <style type="text/css">*{stroke-linejoin: round; stroke-linecap: butt}</style>
 </defs>
 <g id="figure_1">
  <g id="patch_1">
   <path d="M 0 345.6 
L 460.8 345.6 
L 460.8 0 
L 0 0 
z
" style="fill: #ffffff"/>
  </g>
  <g id="axes_1">
   <g id="patch_2">
    <path d="M 278.73792 174.528 
C 278.73792 168.561354 277.483719 162.660801 275.056865 157.209999 
C 272.630012 151.759197 269.08427 146.878903 264.650188 142.886438 
C 260.216106 138.893973 254.991915 135.877785 249.317298 134.033991 
C 243.642681 132.190196 237.643351 131.559642 231.709392 132.183327 
L 235.603674 169.234916 
C 236.345419 169.156955 237.095335 169.235775 237.804662 169.466249 
C 238.513989 169.696723 239.167013 170.073747 239.721274 170.572805 
C 240.275534 171.071863 240.718751 171.6819 241.022108 172.36325 
C 241.325465 173.0446 241.48224 173.782169 241.48224 174.528 
z
" style="fill: #f68a7b; fill-opacity: 0.9; stroke: #ffffff; stroke-linejoin: miter"/>
   </g>
   <g id="patch_3">
    <path d="M 231.709392 132.183327 
C 226.769892 132.702489 221.959112 134.081959 217.495065 136.259221 
C 213.031018 138.436483 208.98217 141.378143 205.532005 144.950894 
L 232.331501 170.830862 
C 232.762771 170.384268 233.268877 170.01656 233.826883 169.744403 
C 234.384889 169.472245 234.986236 169.299811 235.603674 169.234916 
z
" style="fill: #c1b8f7; fill-opacity: 0.9; stroke: #ffffff; stroke-linejoin: miter"/>
   </g>
   <g id="patch_4">
    <path d="M 205.532005 144.950894 
C 200.690128 149.964805 197.15271 156.091796 195.231475 162.791939 
C 193.310241 169.492083 193.063333 176.562612 194.512511 183.380453 
C 195.961689 190.198293 199.063095 196.557116 203.543425 201.896564 
C 208.023755 207.236012 213.747421 211.394497 220.210037 214.005563 
C 226.672653 216.616628 233.67864 217.601254 240.610612 216.872673 
C 247.542584 216.144092 254.190758 213.724353 259.969278 209.826691 
C 265.747798 205.929028 270.481788 200.671397 273.754076 194.517115 
C 277.026365 188.362832 278.737922 181.498145 278.73792 174.52799 
L 241.48224 174.527999 
C 241.48224 175.399268 241.268296 176.257354 240.85926 177.026639 
C 240.450223 177.795925 239.858475 178.453129 239.13616 178.940336 
C 238.413845 179.427544 237.582823 179.730011 236.716327 179.821084 
C 235.84983 179.912157 234.974082 179.789078 234.166255 179.462695 
C 233.358428 179.136312 232.642969 178.616502 232.082928 177.949071 
C 231.522887 177.281639 231.135211 176.486787 230.954064 175.634557 
C 230.772917 174.782327 230.80378 173.89851 231.043934 173.060992 
C 231.284089 172.223474 231.726266 171.457601 232.331501 170.830862 
z
" style="fill: #93cec3; fill-opacity: 0.9; stroke: #ffffff; stroke-linejoin: miter"/>
   </g>
   <g id="patch_5">
    <path d="M 300.02688 174.528 
C 300.02688 161.042735 295.755831 147.897798 287.829391 136.987989 
C 279.902951 126.078181 268.7212 117.954163 255.89595 113.786987 
L 249.3173 134.033991 
C 257.867466 136.812109 265.321967 142.22812 270.606261 149.501326 
C 275.890554 156.774532 278.73792 165.537823 278.73792 174.528 
z
" style="fill: #f68a7b; fill-opacity: 0.5; stroke: #ffffff; stroke-linejoin: miter"/>
   </g>
   <g id="patch_6">
    <path d="M 255.89595 113.786987 
C 254.482299 113.327664 253.053044 112.917832 251.610795 112.558239 
C 250.168547 112.198646 248.714185 111.889512 247.250366 111.631401 
L 243.553577 132.596934 
C 244.529457 132.769008 245.499031 132.975097 246.46053 133.214826 
C 247.422029 133.454555 248.374866 133.727776 249.3173 134.033991 
z
" style="fill: #f68a55; fill-opacity: 0.5; stroke: #ffffff; stroke-linejoin: miter"/>
   </g>
   <g id="patch_7">
    <path d="M 247.250366 111.631401 
C 245.786547 111.37329 244.314163 111.16636 242.835905 111.010989 
C 241.357647 110.855618 239.874416 110.751901 238.38892 110.700026 
L 237.645947 131.976017 
C 238.636277 132.0106 239.625098 132.079745 240.610604 132.183326 
C 241.596109 132.286907 242.577698 132.42486 243.553577 132.596934 
z
" style="fill: #f68a2f; fill-opacity: 0.5; stroke: #ffffff; stroke-linejoin: miter"/>
   </g>
   <g id="patch_8">
    <path d="M 238.38892 110.700026 
C 236.903425 110.648151 235.416572 110.648151 233.931076 110.700026 
C 232.445581 110.751901 230.962349 110.855618 229.484091 111.01099 
L 231.709394 132.183326 
C 232.6949 132.079746 233.683721 132.0106 234.674051 131.976017 
C 235.664381 131.941434 236.655617 131.941434 237.645947 131.976017 
z
" style="fill: #f68a08; fill-opacity: 0.5; stroke: #ffffff; stroke-linejoin: miter"/>
   </g>
   <g id="patch_9">
    <path d="M 229.484091 111.01099 
C 228.005833 111.166361 226.53345 111.373291 225.069631 111.631402 
C 223.605812 111.889513 222.15145 112.198647 220.709201 112.55824 
L 225.859468 133.214827 
C 226.820966 132.975098 227.790541 132.769008 228.766421 132.596935 
C 229.7423 132.424861 230.723889 132.286907 231.709394 132.183326 
z
" style="fill: #c1b8f7; fill-opacity: 0.5; stroke: #ffffff; stroke-linejoin: miter"/>
   </g>
   <g id="patch_10">
    <path d="M 220.709201 112.55824 
C 219.266953 112.917833 217.837698 113.327665 216.424047 113.786988 
C 215.010396 114.246311 213.61321 114.754845 212.235044 115.311661 
L 220.210029 135.050441 
C 221.128807 134.67923 222.060264 134.340208 223.002698 134.033992 
C 223.945132 133.727777 224.897969 133.454555 225.859468 133.214827 
z
" style="fill: #c1b8d1; fill-opacity: 0.5; stroke: #ffffff; stroke-linejoin: miter"/>
   </g>
   <g id="patch_11">
    <path d="M 212.235044 115.311661 
C 209.477871 116.425631 206.801863 117.730807 204.226558 119.217661 
C 201.651253 120.704514 199.182933 122.369417 196.83962 124.200213 
L 209.946414 140.976142 
C 211.508622 139.755611 213.154168 138.645676 214.871039 137.65444 
C 216.587909 136.663205 218.371914 135.793087 220.210029 135.050441 
z
" style="fill: #c1b8ab; fill-opacity: 0.5; stroke: #ffffff; stroke-linejoin: miter"/>
   </g>
   <g id="patch_12">
    <path d="M 196.83962 124.200213 
C 195.668321 125.115333 194.529325 126.071064 193.424714 127.06566 
C 192.320103 128.060257 191.25055 129.093112 190.218009 130.162339 
L 205.532006 144.950893 
C 206.220367 144.238075 206.933402 143.549505 207.669809 142.88644 
C 208.406216 142.223376 209.165547 141.586222 209.946414 140.976142 
z
" style="fill: #c1b884; fill-opacity: 0.5; stroke: #ffffff; stroke-linejoin: miter"/>
   </g>
   <g id="patch_13">
    <path d="M 190.218009 130.162339 
C 183.47852 137.141286 178.417031 145.565019 175.418986 154.792053 
C 172.420942 164.019086 171.564428 173.809098 172.914669 183.416557 
C 174.26491 193.024016 177.786739 202.198692 183.211961 210.241912 
C 188.637182 218.285131 195.824495 224.987407 204.226567 229.838345 
L 214.871045 211.401563 
C 209.269663 208.167605 204.478121 203.699421 200.861307 198.337274 
C 197.244493 192.975128 194.896607 186.858677 193.996446 180.453705 
C 193.096285 174.048732 193.667295 167.522057 195.665991 161.370702 
C 197.664687 155.219346 201.039013 149.603524 205.532006 144.950893 
z
" style="fill: #93cec3; fill-opacity: 0.5; stroke: #ffffff; stroke-linejoin: miter"/>
   </g>
   <g id="patch_14">
    <path d="M 204.226567 229.838345 
C 209.383438 232.815664 214.931449 235.057205 220.709211 236.497763 
C 226.486974 237.93832 232.437917 238.563789 238.388931 238.355974 
L 237.645954 217.079982 
C 233.678611 217.218526 229.711316 216.801547 225.859474 215.841175 
C 222.007632 214.880804 218.308958 213.386443 214.871045 211.401563 
z
" style="fill: #93ce9d; fill-opacity: 0.5; stroke: #ffffff; stroke-linejoin: miter"/>
   </g>
   <g id="patch_15">
    <path d="M 238.388931 238.355974 
C 239.874426 238.304099 241.357658 238.200381 242.835916 238.04501 
C 244.314174 237.889638 245.786557 237.682708 247.250376 237.424597 
L 243.553584 216.459065 
C 242.577705 216.631139 241.596116 216.769092 240.61061 216.872673 
C 239.625105 216.976254 238.636284 217.045399 237.645954 217.079982 
z
" style="fill: #93ce76; fill-opacity: 0.5; stroke: #ffffff; stroke-linejoin: miter"/>
   </g>
   <g id="patch_16">
    <path d="M 247.250376 237.424597 
C 259.035292 235.346597 270.002289 229.997633 278.895292 221.990335 
C 287.788294 213.983036 294.254316 203.635235 297.552788 192.132088 
L 277.088526 186.264058 
C 274.889544 193.932824 270.578863 200.831358 264.650194 206.169557 
C 258.721526 211.507755 251.410195 215.073731 243.553584 216.459065 
z
" style="fill: #93ce50; fill-opacity: 0.5; stroke: #ffffff; stroke-linejoin: miter"/>
   </g>
   <g id="patch_17">
    <path d="M 297.552788 192.132088 
C 298.372452 189.273577 298.991474 186.361307 299.405333 183.416541 
C 299.819193 180.471774 300.026881 177.501695 300.02688 174.527989 
L 278.73792 174.527993 
C 278.73792 176.510463 278.599462 178.490516 278.323556 180.453694 
C 278.047649 182.416872 277.634968 184.358385 277.088526 186.264058 
z
" style="fill: #93ce2a; fill-opacity: 0.5; stroke: #ffffff; stroke-linejoin: miter"/>
   </g>
   <g id="matplotlib.axis_1"/>
   <g id="matplotlib.axis_2"/>
   <g id="text_1">
    <!-- picking (75%) -->
    <g transform="translate(298.230262 133.050289) rotate(-36.000001) scale(0.12 -0.12)">
     <defs>
      <path id="STIXGeneral-Regular-70" d="M 1018 2931 
L 1018 2438 
Q 1421 2944 1939 2944 
Q 2406 2944 2707 2560 
Q 3008 2176 3008 1581 
Q 3008 883 2621 409 
Q 2234 -64 1664 -64 
Q 1466 -64 1328 -6 
Q 1190 51 1018 211 
L 1018 -794 
Q 1018 -1094 1120 -1180 
Q 1222 -1267 1581 -1274 
L 1581 -1389 
L 32 -1389 
L 32 -1280 
Q 314 -1254 397 -1171 
Q 480 -1088 480 -838 
L 480 2157 
Q 480 2381 429 2451 
Q 378 2522 218 2522 
Q 115 2522 58 2515 
L 58 2618 
Q 506 2752 979 2944 
L 1018 2931 
z
M 1018 2138 
L 1018 563 
Q 1018 422 1238 281 
Q 1459 141 1683 141 
Q 2029 141 2243 467 
Q 2458 794 2458 1325 
Q 2458 1888 2243 2224 
Q 2029 2560 1670 2560 
Q 1446 2560 1232 2419 
Q 1018 2278 1018 2138 
z
" transform="scale(0.015625)"/>
      <path id="STIXGeneral-Regular-69" d="M 1152 4045 
Q 1152 3904 1056 3811 
Q 960 3718 819 3718 
Q 685 3718 592 3811 
Q 499 3904 499 4045 
Q 499 4179 595 4275 
Q 691 4371 826 4371 
Q 966 4371 1059 4275 
Q 1152 4179 1152 4045 
z
M 1619 0 
L 102 0 
L 102 96 
Q 435 115 521 211 
Q 608 307 608 666 
L 608 2118 
Q 608 2342 563 2432 
Q 518 2522 397 2522 
Q 243 2522 128 2490 
L 128 2592 
L 1120 2944 
L 1146 2918 
L 1146 672 
Q 1146 314 1226 218 
Q 1306 122 1619 96 
L 1619 0 
z
" transform="scale(0.015625)"/>
      <path id="STIXGeneral-Regular-63" d="M 2547 998 
L 2637 941 
Q 2362 403 2112 205 
Q 1786 -64 1376 -64 
Q 845 -64 502 336 
Q 160 736 160 1357 
Q 160 2170 698 2618 
Q 1094 2944 1562 2944 
Q 1965 2944 2256 2749 
Q 2547 2554 2547 2285 
Q 2547 2176 2457 2096 
Q 2368 2016 2246 2016 
Q 2022 2016 1939 2310 
L 1901 2451 
Q 1850 2630 1773 2694 
Q 1696 2758 1523 2758 
Q 1133 2758 893 2451 
Q 653 2144 653 1645 
Q 653 1094 928 745 
Q 1203 397 1645 397 
Q 1920 397 2118 528 
Q 2317 659 2547 998 
z
" transform="scale(0.015625)"/>
      <path id="STIXGeneral-Regular-6b" d="M 3232 0 
L 1837 0 
L 1837 96 
L 1958 96 
Q 2093 96 2093 192 
Q 2093 250 2022 339 
L 1062 1606 
L 1062 429 
Q 1062 262 1142 185 
Q 1222 109 1414 102 
L 1542 96 
L 1542 0 
L 45 0 
L 45 96 
Q 390 154 457 214 
Q 525 275 525 525 
L 525 3610 
Q 525 3840 467 3920 
Q 410 4000 250 4000 
Q 211 4000 45 3987 
L 45 4090 
L 237 4141 
Q 621 4243 1037 4371 
L 1062 4358 
L 1062 1670 
L 1939 2451 
Q 2086 2586 2086 2675 
Q 2086 2739 2019 2761 
Q 1952 2784 1766 2790 
L 1766 2880 
L 3072 2880 
L 3072 2784 
Q 2752 2784 2505 2646 
Q 2259 2509 1690 1978 
L 1504 1805 
L 2483 563 
Q 2829 122 3232 96 
L 3232 0 
z
" transform="scale(0.015625)"/>
      <path id="STIXGeneral-Regular-6e" d="M 3104 0 
L 1773 0 
L 1779 96 
Q 2016 115 2096 233 
Q 2176 352 2176 672 
L 2176 1946 
Q 2176 2592 1709 2592 
Q 1549 2592 1408 2515 
Q 1267 2438 1050 2227 
L 1050 461 
Q 1050 269 1136 192 
Q 1222 115 1466 96 
L 1466 0 
L 115 0 
L 115 96 
Q 358 115 435 214 
Q 512 314 512 602 
L 512 2157 
Q 512 2394 467 2483 
Q 422 2573 288 2573 
Q 160 2573 102 2547 
L 102 2656 
Q 550 2784 979 2944 
L 1030 2925 
L 1030 2426 
L 1037 2426 
Q 1491 2944 1958 2944 
Q 2323 2944 2518 2688 
Q 2714 2432 2714 1958 
L 2714 544 
Q 2714 288 2790 205 
Q 2867 122 3104 96 
L 3104 0 
z
" transform="scale(0.015625)"/>
      <path id="STIXGeneral-Regular-67" d="M 3008 2483 
L 2477 2483 
Q 2598 2208 2598 1946 
Q 2598 1453 2265 1203 
Q 1933 954 1600 954 
Q 1530 954 1357 973 
L 1235 986 
Q 1107 947 979 812 
Q 851 678 851 582 
Q 851 435 1350 410 
L 2176 371 
Q 2528 358 2739 172 
Q 2950 -13 2950 -314 
Q 2950 -685 2566 -986 
Q 2035 -1395 1286 -1395 
Q 826 -1395 502 -1212 
Q 179 -1030 179 -774 
Q 179 -595 320 -419 
Q 461 -243 806 6 
Q 602 102 534 172 
Q 467 243 467 346 
Q 467 531 762 787 
Q 909 915 1037 1043 
Q 717 1203 579 1401 
Q 442 1600 442 1901 
Q 442 2336 752 2640 
Q 1062 2944 1510 2944 
Q 1766 2944 2022 2848 
L 2163 2797 
Q 2349 2733 2515 2733 
L 3008 2733 
L 3008 2483 
z
M 973 2163 
L 973 2144 
Q 973 1683 1155 1398 
Q 1338 1114 1632 1114 
Q 1850 1114 1978 1270 
Q 2106 1427 2106 1690 
Q 2106 2112 1914 2464 
Q 1754 2765 1446 2765 
Q 1222 2765 1097 2605 
Q 973 2445 973 2163 
z
M 2771 -410 
Q 2771 -230 2595 -163 
Q 2419 -96 1978 -96 
Q 1344 -96 941 -13 
Q 749 -243 688 -348 
Q 627 -454 627 -563 
Q 627 -774 880 -902 
Q 1133 -1030 1555 -1030 
Q 2099 -1030 2435 -860 
Q 2771 -691 2771 -410 
z
" transform="scale(0.015625)"/>
      <path id="STIXGeneral-Regular-20" transform="scale(0.015625)"/>
      <path id="STIXGeneral-Regular-28" d="M 1946 -1030 
L 1869 -1133 
Q 1126 -710 716 32 
Q 307 774 307 1613 
Q 307 3386 1888 4326 
L 1946 4224 
Q 1293 3667 1075 3126 
Q 858 2586 858 1632 
Q 858 685 1082 96 
Q 1306 -493 1946 -1030 
z
" transform="scale(0.015625)"/>
      <path id="STIXGeneral-Regular-37" d="M 2874 4134 
L 1517 -51 
L 1101 -51 
L 2368 3763 
L 992 3763 
Q 717 3763 582 3667 
Q 448 3571 243 3238 
L 128 3296 
L 512 4237 
L 2874 4237 
L 2874 4134 
z
" transform="scale(0.015625)"/>
      <path id="STIXGeneral-Regular-35" d="M 2803 4358 
L 2573 3814 
Q 2534 3731 2400 3731 
L 1158 3731 
L 902 3187 
Q 1606 3053 1920 2896 
Q 2234 2739 2502 2368 
Q 2726 2061 2726 1555 
Q 2726 1094 2576 780 
Q 2426 467 2099 224 
Q 1664 -90 1011 -90 
Q 646 -90 422 19 
Q 198 128 198 307 
Q 198 550 486 550 
Q 717 550 960 352 
Q 1210 147 1414 147 
Q 1747 147 2012 480 
Q 2278 813 2278 1229 
Q 2278 1843 1850 2189 
Q 1293 2637 486 2637 
Q 410 2637 410 2688 
L 416 2720 
L 1114 4237 
L 2438 4237 
Q 2547 4237 2608 4269 
Q 2669 4301 2746 4403 
L 2803 4358 
z
" transform="scale(0.015625)"/>
      <path id="STIXGeneral-Regular-25" d="M 4390 1363 
Q 4390 781 4070 329 
Q 3750 -122 3341 -122 
Q 3014 -122 2790 134 
Q 2566 390 2566 762 
Q 2566 1274 2940 1693 
Q 3315 2112 3776 2112 
Q 4070 2112 4230 1917 
Q 4390 1722 4390 1363 
z
M 4243 1376 
Q 4243 1626 4131 1779 
Q 4019 1933 3840 1933 
Q 3654 1933 3526 1786 
Q 3315 1562 3171 1187 
Q 3027 813 3027 486 
Q 3027 301 3129 176 
Q 3232 51 3386 51 
Q 3718 51 3980 457 
Q 4243 864 4243 1376 
z
M 3974 4518 
L 1222 -115 
L 922 -115 
L 3443 4096 
Q 3264 3891 3094 3811 
Q 2925 3731 2669 3731 
Q 2445 3731 2182 3821 
Q 2208 3674 2208 3539 
Q 2208 3206 2067 2873 
Q 1926 2541 1696 2323 
Q 1453 2086 1146 2086 
Q 826 2086 608 2339 
Q 390 2592 390 2963 
Q 390 3507 761 3916 
Q 1133 4326 1626 4326 
Q 1792 4326 2010 4147 
Q 2310 3898 2624 3898 
Q 2918 3898 3084 3994 
Q 3251 4090 3693 4518 
L 3974 4518 
z
M 2054 3642 
Q 2054 3782 2025 3833 
Q 1997 3885 1894 3936 
Q 1747 4006 1613 4154 
Q 1414 4058 1331 3984 
Q 1248 3910 1152 3750 
Q 845 3264 845 2707 
Q 845 2509 944 2384 
Q 1043 2259 1210 2259 
Q 1549 2259 1801 2675 
Q 2054 3091 2054 3642 
z
" transform="scale(0.015625)"/>
      <path id="STIXGeneral-Regular-29" d="M 186 4224 
L 262 4326 
Q 992 3891 1408 3148 
Q 1824 2406 1824 1581 
Q 1824 -166 243 -1133 
L 186 -1030 
Q 845 -486 1059 54 
Q 1274 595 1274 1562 
Q 1274 2534 1059 3120 
Q 845 3706 186 4224 
z
" transform="scale(0.015625)"/>
     </defs>
     <use xlink:href="#STIXGeneral-Regular-70"/>
     <use xlink:href="#STIXGeneral-Regular-69" x="49.999985"/>
     <use xlink:href="#STIXGeneral-Regular-63" x="77.799973"/>
     <use xlink:href="#STIXGeneral-Regular-6b" x="122.199966"/>
     <use xlink:href="#STIXGeneral-Regular-69" x="172.199951"/>
     <use xlink:href="#STIXGeneral-Regular-6e" x="199.999939"/>
     <use xlink:href="#STIXGeneral-Regular-67" x="249.999924"/>
     <use xlink:href="#STIXGeneral-Regular-20" x="299.999908"/>
     <use xlink:href="#STIXGeneral-Regular-28" x="324.999893"/>
     <use xlink:href="#STIXGeneral-Regular-37" x="358.299881"/>
     <use xlink:href="#STIXGeneral-Regular-35" x="408.299866"/>
     <use xlink:href="#STIXGeneral-Regular-25" x="458.29985"/>
     <use xlink:href="#STIXGeneral-Regular-29" x="532.999832"/>
    </g>
   </g>
   <g id="text_2">
    <!-- base_motion (8%) -->
    <g transform="translate(254.580406 112.20368) rotate(-76.000001) scale(0.12 -0.12)">
     <defs>
      <path id="STIXGeneral-Regular-62" d="M 979 4358 
L 979 2406 
Q 1082 2650 1315 2797 
Q 1549 2944 1843 2944 
Q 2349 2944 2672 2541 
Q 2995 2138 2995 1536 
Q 2995 832 2566 384 
Q 2138 -64 1498 -64 
Q 1107 -64 774 67 
Q 442 198 442 358 
L 442 3622 
Q 442 3859 384 3926 
Q 326 3994 128 3994 
Q 83 3994 19 3981 
L 19 4090 
L 211 4147 
Q 864 4346 947 4371 
L 979 4358 
z
M 979 2035 
L 979 474 
Q 979 326 1161 233 
Q 1344 141 1600 141 
Q 1978 141 2195 416 
Q 2432 710 2432 1261 
Q 2432 1888 2182 2240 
Q 1971 2541 1613 2541 
Q 1357 2541 1168 2390 
Q 979 2240 979 2035 
z
" transform="scale(0.015625)"/>
      <path id="STIXGeneral-Regular-61" d="M 2829 422 
L 2829 243 
Q 2586 -64 2253 -64 
Q 1888 -64 1843 403 
L 1837 403 
Q 1427 -64 909 -64 
Q 608 -64 422 112 
Q 237 288 237 602 
Q 237 1050 685 1350 
Q 992 1555 1837 1869 
L 1837 2214 
Q 1837 2502 1699 2646 
Q 1562 2790 1338 2790 
Q 1146 2790 1018 2697 
Q 890 2605 890 2477 
Q 890 2419 909 2348 
Q 928 2278 928 2208 
Q 928 2112 841 2029 
Q 755 1946 634 1946 
Q 525 1946 441 2029 
Q 358 2112 358 2240 
Q 358 2547 685 2752 
Q 986 2944 1421 2944 
Q 1939 2944 2176 2656 
Q 2291 2522 2323 2384 
Q 2355 2246 2355 1946 
L 2355 723 
Q 2355 301 2554 301 
Q 2682 301 2829 422 
z
M 1837 813 
L 1837 1715 
Q 1248 1510 1018 1293 
Q 800 1094 800 800 
Q 800 557 921 432 
Q 1043 307 1242 307 
Q 1453 307 1613 410 
Q 1747 506 1792 589 
Q 1837 672 1837 813 
z
" transform="scale(0.015625)"/>
      <path id="STIXGeneral-Regular-73" d="M 998 1926 
L 1664 1523 
Q 1984 1331 2105 1164 
Q 2227 998 2227 736 
Q 2227 416 1961 176 
Q 1696 -64 1331 -64 
Q 1030 -64 864 -6 
Q 691 51 570 51 
Q 461 51 416 -26 
L 333 -26 
L 333 979 
L 435 979 
Q 538 512 730 294 
Q 922 77 1248 77 
Q 1485 77 1632 211 
Q 1779 346 1779 550 
Q 1779 845 1440 1030 
L 1094 1222 
Q 326 1651 326 2150 
Q 326 2522 566 2730 
Q 806 2938 1210 2938 
Q 1491 2938 1638 2867 
Q 1754 2816 1818 2816 
Q 1862 2816 1920 2880 
L 1990 2880 
L 2022 2010 
L 1926 2010 
Q 1818 2445 1654 2621 
Q 1491 2797 1203 2797 
Q 986 2797 854 2688 
Q 723 2579 723 2362 
Q 723 2253 796 2128 
Q 870 2003 998 1926 
z
" transform="scale(0.015625)"/>
      <path id="STIXGeneral-Regular-65" d="M 2611 1050 
L 2714 1005 
Q 2330 -64 1376 -64 
Q 813 -64 486 329 
Q 160 723 160 1389 
Q 160 2074 525 2509 
Q 890 2944 1485 2944 
Q 2061 2944 2374 2502 
Q 2560 2246 2592 1773 
L 621 1773 
Q 646 1370 700 1158 
Q 755 947 915 730 
Q 1184 378 1626 378 
Q 1939 378 2153 531 
Q 2368 685 2611 1050 
z
M 634 1978 
L 1939 1978 
Q 1882 2381 1750 2547 
Q 1619 2714 1312 2714 
Q 1043 2714 864 2525 
Q 685 2336 634 1978 
z
" transform="scale(0.015625)"/>
      <path id="STIXGeneral-Regular-5f" d="M 3200 -800 
L 0 -800 
L 0 -480 
L 3200 -480 
L 3200 -800 
z
" transform="scale(0.015625)"/>
      <path id="STIXGeneral-Regular-6d" d="M 4960 0 
L 3565 0 
L 3565 96 
Q 3834 122 3907 208 
Q 3981 294 3981 576 
L 3981 1894 
Q 3981 2278 3869 2444 
Q 3757 2611 3488 2611 
Q 3264 2611 3107 2521 
Q 2950 2432 2803 2221 
L 2803 608 
Q 2803 301 2896 201 
Q 2989 102 3264 96 
L 3264 0 
L 1830 0 
L 1830 96 
Q 2112 115 2189 188 
Q 2266 262 2266 550 
L 2266 1901 
Q 2266 2611 1850 2611 
Q 1670 2611 1468 2531 
Q 1267 2451 1171 2336 
Q 1088 2240 1088 2227 
L 1088 448 
Q 1088 243 1177 176 
Q 1267 109 1523 96 
L 1523 0 
L 102 0 
L 102 96 
Q 371 102 460 195 
Q 550 288 550 563 
L 550 2150 
Q 550 2387 499 2480 
Q 448 2573 326 2573 
Q 230 2573 122 2547 
L 122 2656 
Q 557 2778 1011 2944 
L 1062 2925 
L 1062 2451 
L 1075 2451 
Q 1363 2752 1584 2848 
Q 1805 2944 2054 2944 
Q 2560 2944 2733 2406 
Q 3232 2944 3776 2944 
Q 4518 2944 4518 1792 
L 4518 493 
Q 4518 282 4582 202 
Q 4646 122 4794 109 
L 4960 96 
L 4960 0 
z
" transform="scale(0.015625)"/>
      <path id="STIXGeneral-Regular-6f" d="M 3008 1478 
Q 3008 806 2608 371 
Q 2208 -64 1568 -64 
Q 979 -64 582 368 
Q 186 800 186 1459 
Q 186 2125 582 2534 
Q 979 2944 1626 2944 
Q 2221 2944 2614 2537 
Q 3008 2131 3008 1478 
z
M 2432 1306 
Q 2432 2035 2112 2445 
Q 1856 2765 1504 2765 
Q 1171 2765 966 2493 
Q 762 2221 762 1747 
Q 762 928 1101 435 
Q 1318 115 1677 115 
Q 2029 115 2230 432 
Q 2432 749 2432 1306 
z
" transform="scale(0.015625)"/>
      <path id="STIXGeneral-Regular-74" d="M 1702 493 
L 1786 422 
Q 1478 -64 1011 -64 
Q 448 -64 448 749 
L 448 2675 
L 109 2675 
Q 83 2694 83 2720 
Q 83 2771 192 2842 
Q 435 2982 813 3526 
Q 826 3546 874 3606 
Q 922 3667 941 3706 
Q 986 3706 986 3622 
L 986 2880 
L 1632 2880 
L 1632 2675 
L 986 2675 
L 986 845 
Q 986 538 1062 403 
Q 1139 269 1318 269 
Q 1510 269 1702 493 
z
" transform="scale(0.015625)"/>
      <path id="STIXGeneral-Regular-38" d="M 2848 992 
Q 2848 499 2505 204 
Q 2163 -90 1587 -90 
Q 1050 -90 704 204 
Q 358 499 358 954 
Q 358 1293 524 1533 
Q 691 1773 1190 2125 
Q 710 2522 553 2765 
Q 397 3008 397 3328 
Q 397 3782 745 4054 
Q 1094 4326 1638 4326 
Q 2106 4326 2410 4060 
Q 2714 3795 2714 3411 
Q 2714 3059 2531 2848 
Q 2349 2637 1856 2374 
Q 2432 1990 2640 1689 
Q 2848 1389 2848 992 
z
M 2272 3411 
Q 2272 3744 2086 3945 
Q 1901 4147 1574 4147 
Q 1248 4147 1059 3977 
Q 870 3808 870 3513 
Q 870 3219 1059 2979 
Q 1248 2739 1670 2490 
Q 1997 2682 2134 2896 
Q 2272 3110 2272 3411 
z
M 1734 1741 
L 1357 1997 
Q 1075 1766 960 1545 
Q 845 1325 845 1011 
Q 845 576 1065 333 
Q 1286 90 1658 90 
Q 1971 90 2166 285 
Q 2362 480 2362 794 
Q 2362 1082 2214 1299 
Q 2067 1517 1734 1741 
z
" transform="scale(0.015625)"/>
     </defs>
     <use xlink:href="#STIXGeneral-Regular-62"/>
     <use xlink:href="#STIXGeneral-Regular-61" x="49.999985"/>
     <use xlink:href="#STIXGeneral-Regular-73" x="94.399979"/>
     <use xlink:href="#STIXGeneral-Regular-65" x="133.299973"/>
     <use xlink:href="#STIXGeneral-Regular-5f" x="177.699966"/>
     <use xlink:href="#STIXGeneral-Regular-6d" x="227.699951"/>
     <use xlink:href="#STIXGeneral-Regular-6f" x="305.499939"/>
     <use xlink:href="#STIXGeneral-Regular-74" x="355.499924"/>
     <use xlink:href="#STIXGeneral-Regular-69" x="383.299911"/>
     <use xlink:href="#STIXGeneral-Regular-6f" x="411.099899"/>
     <use xlink:href="#STIXGeneral-Regular-6e" x="461.099884"/>
     <use xlink:href="#STIXGeneral-Regular-20" x="511.099869"/>
     <use xlink:href="#STIXGeneral-Regular-28" x="536.099854"/>
     <use xlink:href="#STIXGeneral-Regular-38" x="569.399841"/>
     <use xlink:href="#STIXGeneral-Regular-25" x="619.399826"/>
     <use xlink:href="#STIXGeneral-Regular-29" x="694.099808"/>
    </g>
   </g>
   <g id="text_3">
    <!-- look_for_item (8%) -->
    <g transform="translate(245.344207 113.891203) rotate(-84.000001) scale(0.12 -0.12)">
     <defs>
      <path id="STIXGeneral-Regular-6c" d="M 1645 0 
L 134 0 
L 134 96 
Q 435 122 531 221 
Q 627 320 627 589 
L 627 3590 
Q 627 3821 569 3910 
Q 512 4000 358 4000 
Q 224 4000 122 3987 
L 122 4090 
Q 730 4237 1133 4371 
L 1165 4346 
L 1165 557 
Q 1165 288 1254 201 
Q 1344 115 1645 96 
L 1645 0 
z
" transform="scale(0.015625)"/>
      <path id="STIXGeneral-Regular-66" d="M 134 2880 
L 659 2880 
Q 666 3264 710 3478 
Q 755 3693 883 3910 
Q 1152 4371 1786 4371 
Q 2074 4371 2262 4259 
Q 2451 4147 2451 3974 
Q 2451 3866 2374 3789 
Q 2298 3712 2182 3712 
Q 2029 3712 1894 3942 
Q 1741 4192 1555 4192 
Q 1197 4192 1197 3622 
L 1197 2880 
L 1978 2880 
L 1978 2675 
L 1197 2675 
L 1197 666 
Q 1197 307 1299 208 
Q 1402 109 1792 96 
L 1792 0 
L 128 0 
L 128 96 
Q 474 115 566 214 
Q 659 314 659 666 
L 659 2675 
L 134 2675 
L 134 2880 
z
" transform="scale(0.015625)"/>
      <path id="STIXGeneral-Regular-72" d="M 1024 2931 
L 1024 2342 
Q 1267 2688 1430 2816 
Q 1594 2944 1792 2944 
Q 1958 2944 2051 2854 
Q 2144 2765 2144 2605 
Q 2144 2470 2077 2393 
Q 2010 2317 1894 2317 
Q 1773 2317 1638 2445 
Q 1536 2541 1472 2541 
Q 1338 2541 1181 2355 
Q 1024 2170 1024 2016 
L 1024 576 
Q 1024 301 1133 205 
Q 1242 109 1568 96 
L 1568 0 
L 32 0 
L 32 96 
Q 339 154 412 224 
Q 486 294 486 538 
L 486 2138 
Q 486 2349 438 2435 
Q 390 2522 269 2522 
Q 166 2522 45 2496 
L 45 2598 
Q 448 2726 992 2944 
L 1024 2931 
z
" transform="scale(0.015625)"/>
     </defs>
     <use xlink:href="#STIXGeneral-Regular-6c"/>
     <use xlink:href="#STIXGeneral-Regular-6f" x="27.799988"/>
     <use xlink:href="#STIXGeneral-Regular-6f" x="77.799973"/>
     <use xlink:href="#STIXGeneral-Regular-6b" x="127.799957"/>
     <use xlink:href="#STIXGeneral-Regular-5f" x="177.799942"/>
     <use xlink:href="#STIXGeneral-Regular-66" x="227.799927"/>
     <use xlink:href="#STIXGeneral-Regular-6f" x="261.099915"/>
     <use xlink:href="#STIXGeneral-Regular-72" x="311.099899"/>
     <use xlink:href="#STIXGeneral-Regular-5f" x="344.399887"/>
     <use xlink:href="#STIXGeneral-Regular-69" x="394.399872"/>
     <use xlink:href="#STIXGeneral-Regular-74" x="422.19986"/>
     <use xlink:href="#STIXGeneral-Regular-65" x="449.999847"/>
     <use xlink:href="#STIXGeneral-Regular-6d" x="494.399841"/>
     <use xlink:href="#STIXGeneral-Regular-20" x="572.199829"/>
     <use xlink:href="#STIXGeneral-Regular-28" x="597.199814"/>
     <use xlink:href="#STIXGeneral-Regular-38" x="630.499802"/>
     <use xlink:href="#STIXGeneral-Regular-25" x="680.499786"/>
     <use xlink:href="#STIXGeneral-Regular-29" x="755.199768"/>
    </g>
   </g>
   <g id="text_4">
    <!-- placing (8%) -->
    <g transform="translate(228.375403 35.499102) rotate(-272.000002) scale(0.12 -0.12)">
     <use xlink:href="#STIXGeneral-Regular-70"/>
     <use xlink:href="#STIXGeneral-Regular-6c" x="49.999985"/>
     <use xlink:href="#STIXGeneral-Regular-61" x="77.799973"/>
     <use xlink:href="#STIXGeneral-Regular-63" x="122.199966"/>
     <use xlink:href="#STIXGeneral-Regular-69" x="166.59996"/>
     <use xlink:href="#STIXGeneral-Regular-6e" x="194.399948"/>
     <use xlink:href="#STIXGeneral-Regular-67" x="244.399933"/>
     <use xlink:href="#STIXGeneral-Regular-20" x="294.399918"/>
     <use xlink:href="#STIXGeneral-Regular-28" x="319.399902"/>
     <use xlink:href="#STIXGeneral-Regular-38" x="352.69989"/>
     <use xlink:href="#STIXGeneral-Regular-25" x="402.699875"/>
     <use xlink:href="#STIXGeneral-Regular-29" x="477.399857"/>
    </g>
   </g>
   <g id="text_5">
    <!-- picking (20%) -->
    <g transform="translate(208.522854 34.650579) rotate(-280.000002) scale(0.12 -0.12)">
     <defs>
      <path id="STIXGeneral-Regular-32" d="M 3034 877 
L 2688 0 
L 186 0 
L 186 77 
L 1325 1286 
Q 1773 1754 1965 2144 
Q 2157 2534 2157 2950 
Q 2157 3379 1920 3616 
Q 1683 3853 1267 3853 
Q 922 3853 720 3673 
Q 518 3494 326 3021 
L 192 3053 
Q 301 3648 630 3987 
Q 960 4326 1523 4326 
Q 2054 4326 2380 4006 
Q 2707 3686 2707 3200 
Q 2707 2477 1888 1613 
L 832 486 
L 2330 486 
Q 2541 486 2665 569 
Q 2790 653 2944 915 
L 3034 877 
z
" transform="scale(0.015625)"/>
      <path id="STIXGeneral-Regular-30" d="M 3046 2112 
Q 3046 1683 2963 1302 
Q 2880 922 2717 602 
Q 2554 282 2266 96 
Q 1978 -90 1600 -90 
Q 1210 -90 915 108 
Q 621 307 461 640 
Q 301 973 227 1350 
Q 154 1728 154 2150 
Q 154 2746 301 3222 
Q 448 3699 790 4012 
Q 1133 4326 1626 4326 
Q 2253 4326 2649 3712 
Q 3046 3098 3046 2112 
z
M 2432 2080 
Q 2432 3091 2217 3625 
Q 2003 4160 1587 4160 
Q 1190 4160 979 3622 
Q 768 3085 768 2106 
Q 768 1120 979 598 
Q 1190 77 1600 77 
Q 2003 77 2217 598 
Q 2432 1120 2432 2080 
z
" transform="scale(0.015625)"/>
     </defs>
     <use xlink:href="#STIXGeneral-Regular-70"/>
     <use xlink:href="#STIXGeneral-Regular-69" x="49.999985"/>
     <use xlink:href="#STIXGeneral-Regular-63" x="77.799973"/>
     <use xlink:href="#STIXGeneral-Regular-6b" x="122.199966"/>
     <use xlink:href="#STIXGeneral-Regular-69" x="172.199951"/>
     <use xlink:href="#STIXGeneral-Regular-6e" x="199.999939"/>
     <use xlink:href="#STIXGeneral-Regular-67" x="249.999924"/>
     <use xlink:href="#STIXGeneral-Regular-20" x="299.999908"/>
     <use xlink:href="#STIXGeneral-Regular-28" x="324.999893"/>
     <use xlink:href="#STIXGeneral-Regular-32" x="358.299881"/>
     <use xlink:href="#STIXGeneral-Regular-30" x="408.299866"/>
     <use xlink:href="#STIXGeneral-Regular-25" x="458.29985"/>
     <use xlink:href="#STIXGeneral-Regular-29" x="532.999832"/>
    </g>
   </g>
   <g id="text_6">
    <!-- impl. logic (20%) -->
    <g transform="translate(186.851443 32.246483) rotate(-288.000002) scale(0.12 -0.12)">
     <defs>
      <path id="STIXGeneral-Regular-2e" d="M 1158 275 
Q 1158 134 1052 32 
Q 947 -70 800 -70 
Q 653 -70 550 32 
Q 448 134 448 281 
Q 448 429 553 534 
Q 659 640 806 640 
Q 947 640 1052 531 
Q 1158 422 1158 275 
z
" transform="scale(0.015625)"/>
     </defs>
     <use xlink:href="#STIXGeneral-Regular-69"/>
     <use xlink:href="#STIXGeneral-Regular-6d" x="27.799988"/>
     <use xlink:href="#STIXGeneral-Regular-70" x="105.599976"/>
     <use xlink:href="#STIXGeneral-Regular-6c" x="155.59996"/>
     <use xlink:href="#STIXGeneral-Regular-2e" x="183.399948"/>
     <use xlink:href="#STIXGeneral-Regular-20" x="208.399933"/>
     <use xlink:href="#STIXGeneral-Regular-6c" x="233.399918"/>
     <use xlink:href="#STIXGeneral-Regular-6f" x="261.199905"/>
     <use xlink:href="#STIXGeneral-Regular-67" x="311.19989"/>
     <use xlink:href="#STIXGeneral-Regular-69" x="361.199875"/>
     <use xlink:href="#STIXGeneral-Regular-63" x="388.999863"/>
     <use xlink:href="#STIXGeneral-Regular-20" x="433.399857"/>
     <use xlink:href="#STIXGeneral-Regular-28" x="458.399841"/>
     <use xlink:href="#STIXGeneral-Regular-32" x="491.699829"/>
     <use xlink:href="#STIXGeneral-Regular-30" x="541.699814"/>
     <use xlink:href="#STIXGeneral-Regular-25" x="591.699799"/>
     <use xlink:href="#STIXGeneral-Regular-29" x="666.39978"/>
    </g>
   </g>
   <g id="text_7">
    <!-- placing (40%) -->
    <g transform="translate(162.516493 52.829341) rotate(-300.000002) scale(0.12 -0.12)">
     <defs>
      <path id="STIXGeneral-Regular-34" d="M 3027 1069 
L 2368 1069 
L 2368 0 
L 1869 0 
L 1869 1069 
L 77 1069 
L 77 1478 
L 2086 4326 
L 2368 4326 
L 2368 1478 
L 3027 1478 
L 3027 1069 
z
M 1869 1478 
L 1869 3674 
L 333 1478 
L 1869 1478 
z
" transform="scale(0.015625)"/>
     </defs>
     <use xlink:href="#STIXGeneral-Regular-70"/>
     <use xlink:href="#STIXGeneral-Regular-6c" x="49.999985"/>
     <use xlink:href="#STIXGeneral-Regular-61" x="77.799973"/>
     <use xlink:href="#STIXGeneral-Regular-63" x="122.199966"/>
     <use xlink:href="#STIXGeneral-Regular-69" x="166.59996"/>
     <use xlink:href="#STIXGeneral-Regular-6e" x="194.399948"/>
     <use xlink:href="#STIXGeneral-Regular-67" x="244.399933"/>
     <use xlink:href="#STIXGeneral-Regular-20" x="294.399918"/>
     <use xlink:href="#STIXGeneral-Regular-28" x="319.399902"/>
     <use xlink:href="#STIXGeneral-Regular-34" x="352.69989"/>
     <use xlink:href="#STIXGeneral-Regular-30" x="402.699875"/>
     <use xlink:href="#STIXGeneral-Regular-25" x="452.69986"/>
     <use xlink:href="#STIXGeneral-Regular-29" x="527.399841"/>
    </g>
   </g>
   <g id="text_8">
    <!-- self_localize (20%) -->
    <g transform="translate(130.44962 61.302735) rotate(-312.000003) scale(0.12 -0.12)">
     <defs>
      <path id="STIXGeneral-Regular-7a" d="M 2675 870 
L 2579 0 
L 173 0 
L 173 96 
L 1875 2688 
L 1011 2688 
Q 710 2688 604 2582 
Q 499 2477 454 2125 
L 339 2125 
L 365 2880 
L 2579 2880 
L 2579 2784 
L 858 192 
L 1709 192 
Q 2246 192 2387 365 
Q 2477 474 2560 896 
L 2675 870 
z
" transform="scale(0.015625)"/>
     </defs>
     <use xlink:href="#STIXGeneral-Regular-73"/>
     <use xlink:href="#STIXGeneral-Regular-65" x="38.899994"/>
     <use xlink:href="#STIXGeneral-Regular-6c" x="83.299988"/>
     <use xlink:href="#STIXGeneral-Regular-66" x="111.099976"/>
     <use xlink:href="#STIXGeneral-Regular-5f" x="144.399963"/>
     <use xlink:href="#STIXGeneral-Regular-6c" x="194.399948"/>
     <use xlink:href="#STIXGeneral-Regular-6f" x="222.199936"/>
     <use xlink:href="#STIXGeneral-Regular-63" x="272.199921"/>
     <use xlink:href="#STIXGeneral-Regular-61" x="316.599915"/>
     <use xlink:href="#STIXGeneral-Regular-6c" x="360.999908"/>
     <use xlink:href="#STIXGeneral-Regular-69" x="388.799896"/>
     <use xlink:href="#STIXGeneral-Regular-7a" x="416.599884"/>
     <use xlink:href="#STIXGeneral-Regular-65" x="460.999878"/>
     <use xlink:href="#STIXGeneral-Regular-20" x="505.399872"/>
     <use xlink:href="#STIXGeneral-Regular-28" x="530.399857"/>
     <use xlink:href="#STIXGeneral-Regular-32" x="563.699844"/>
     <use xlink:href="#STIXGeneral-Regular-30" x="613.699829"/>
     <use xlink:href="#STIXGeneral-Regular-25" x="663.699814"/>
     <use xlink:href="#STIXGeneral-Regular-29" x="738.399796"/>
    </g>
   </g>
   <g id="text_9">
    <!-- # items: 1 (46%) -->
    <g transform="translate(89.770051 197.924878) rotate(-8.000005) scale(0.12 -0.12)">
     <defs>
      <path id="STIXGeneral-Regular-23" d="M 3168 2592 
L 2502 2592 
L 2374 1734 
L 3008 1734 
L 3008 1382 
L 2317 1382 
L 2118 0 
L 1747 0 
L 1946 1382 
L 1088 1382 
L 877 0 
L 506 0 
L 717 1382 
L 38 1382 
L 38 1734 
L 774 1734 
L 909 2592 
L 211 2592 
L 211 2944 
L 960 2944 
L 1158 4237 
L 1530 4237 
L 1331 2944 
L 2182 2944 
L 2374 4237 
L 2746 4237 
L 2554 2944 
L 3168 2944 
L 3168 2592 
z
M 2131 2592 
L 1280 2592 
L 1146 1734 
L 2003 1734 
L 2131 2592 
z
" transform="scale(0.015625)"/>
      <path id="STIXGeneral-Regular-3a" d="M 1123 2832 
Q 1229 2726 1229 2579 
Q 1229 2432 1126 2329 
Q 1024 2227 877 2227 
Q 730 2227 624 2332 
Q 518 2438 518 2579 
Q 518 2733 620 2835 
Q 723 2938 877 2938 
Q 1018 2938 1123 2832 
z
M 1229 282 
Q 1229 141 1126 35 
Q 1024 -70 877 -70 
Q 730 -70 624 35 
Q 518 141 518 282 
Q 518 435 620 537 
Q 723 640 877 640 
Q 1018 640 1123 534 
Q 1229 429 1229 282 
z
" transform="scale(0.015625)"/>
      <path id="STIXGeneral-Regular-31" d="M 2522 0 
L 755 0 
L 755 96 
Q 1107 115 1235 227 
Q 1363 339 1363 608 
L 1363 3482 
Q 1363 3795 1171 3795 
Q 1082 3795 883 3718 
L 710 3654 
L 710 3744 
L 1856 4326 
L 1914 4307 
L 1914 486 
Q 1914 275 2042 185 
Q 2170 96 2522 96 
L 2522 0 
z
" transform="scale(0.015625)"/>
      <path id="STIXGeneral-Regular-36" d="M 2854 4378 
L 2867 4275 
Q 2112 4154 1606 3664 
Q 1101 3174 973 2451 
Q 1344 2739 1786 2739 
Q 2349 2739 2672 2380 
Q 2995 2022 2995 1402 
Q 2995 774 2669 378 
Q 2291 -90 1651 -90 
Q 870 -90 518 557 
Q 218 1107 218 1786 
Q 218 2835 915 3552 
Q 1312 3962 1731 4131 
Q 2150 4301 2854 4378 
z
M 2419 1203 
Q 2419 2445 1555 2445 
Q 1235 2445 1024 2275 
Q 813 2106 813 1702 
Q 813 954 1046 522 
Q 1280 90 1722 90 
Q 2061 90 2240 394 
Q 2419 698 2419 1203 
z
" transform="scale(0.015625)"/>
     </defs>
     <use xlink:href="#STIXGeneral-Regular-23"/>
     <use xlink:href="#STIXGeneral-Regular-20" x="49.999985"/>
     <use xlink:href="#STIXGeneral-Regular-69" x="74.999969"/>
     <use xlink:href="#STIXGeneral-Regular-74" x="102.799957"/>
     <use xlink:href="#STIXGeneral-Regular-65" x="130.599945"/>
     <use xlink:href="#STIXGeneral-Regular-6d" x="174.999939"/>
     <use xlink:href="#STIXGeneral-Regular-73" x="252.799927"/>
     <use xlink:href="#STIXGeneral-Regular-3a" x="291.699921"/>
     <use xlink:href="#STIXGeneral-Regular-20" x="319.499908"/>
     <use xlink:href="#STIXGeneral-Regular-31" x="344.499893"/>
     <use xlink:href="#STIXGeneral-Regular-20" x="394.499878"/>
     <use xlink:href="#STIXGeneral-Regular-28" x="419.499863"/>
     <use xlink:href="#STIXGeneral-Regular-34" x="452.79985"/>
     <use xlink:href="#STIXGeneral-Regular-36" x="502.799835"/>
     <use xlink:href="#STIXGeneral-Regular-25" x="552.79982"/>
     <use xlink:href="#STIXGeneral-Regular-29" x="627.499802"/>
    </g>
   </g>
   <g id="text_10">
    <!-- # items: 3 (14%) -->
    <g transform="translate(203.014574 319.023024) rotate(-76.000008) scale(0.12 -0.12)">
     <defs>
      <path id="STIXGeneral-Regular-33" d="M 390 3264 
L 288 3290 
Q 435 3770 748 4048 
Q 1062 4326 1542 4326 
Q 1990 4326 2265 4083 
Q 2541 3840 2541 3450 
Q 2541 2925 1946 2566 
Q 2298 2413 2477 2227 
Q 2758 1914 2758 1402 
Q 2758 890 2464 506 
Q 2246 211 1840 60 
Q 1434 -90 979 -90 
Q 262 -90 262 275 
Q 262 378 339 442 
Q 416 506 525 506 
Q 685 506 915 339 
Q 1197 141 1466 141 
Q 1818 141 2058 425 
Q 2298 710 2298 1120 
Q 2298 1856 1632 2048 
Q 1434 2112 979 2112 
L 979 2202 
Q 1338 2323 1517 2432 
Q 2035 2726 2035 3290 
Q 2035 3610 1852 3776 
Q 1670 3942 1344 3942 
Q 768 3942 390 3264 
z
" transform="scale(0.015625)"/>
     </defs>
     <use xlink:href="#STIXGeneral-Regular-23"/>
     <use xlink:href="#STIXGeneral-Regular-20" x="49.999985"/>
     <use xlink:href="#STIXGeneral-Regular-69" x="74.999969"/>
     <use xlink:href="#STIXGeneral-Regular-74" x="102.799957"/>
     <use xlink:href="#STIXGeneral-Regular-65" x="130.599945"/>
     <use xlink:href="#STIXGeneral-Regular-6d" x="174.999939"/>
     <use xlink:href="#STIXGeneral-Regular-73" x="252.799927"/>
     <use xlink:href="#STIXGeneral-Regular-3a" x="291.699921"/>
     <use xlink:href="#STIXGeneral-Regular-20" x="319.499908"/>
     <use xlink:href="#STIXGeneral-Regular-33" x="344.499893"/>
     <use xlink:href="#STIXGeneral-Regular-20" x="394.499878"/>
     <use xlink:href="#STIXGeneral-Regular-28" x="419.499863"/>
     <use xlink:href="#STIXGeneral-Regular-31" x="452.79985"/>
     <use xlink:href="#STIXGeneral-Regular-34" x="502.799835"/>
     <use xlink:href="#STIXGeneral-Regular-25" x="552.79982"/>
     <use xlink:href="#STIXGeneral-Regular-29" x="627.499802"/>
    </g>
   </g>
   <g id="text_11">
    <!-- # items: 4 (4%) -->
    <g transform="translate(240.898002 246.352088) rotate(-276.000008) scale(0.12 -0.12)">
     <use xlink:href="#STIXGeneral-Regular-23"/>
     <use xlink:href="#STIXGeneral-Regular-20" x="49.999985"/>
     <use xlink:href="#STIXGeneral-Regular-69" x="74.999969"/>
     <use xlink:href="#STIXGeneral-Regular-74" x="102.799957"/>
     <use xlink:href="#STIXGeneral-Regular-65" x="130.599945"/>
     <use xlink:href="#STIXGeneral-Regular-6d" x="174.999939"/>
     <use xlink:href="#STIXGeneral-Regular-73" x="252.799927"/>
     <use xlink:href="#STIXGeneral-Regular-3a" x="291.699921"/>
     <use xlink:href="#STIXGeneral-Regular-20" x="319.499908"/>
     <use xlink:href="#STIXGeneral-Regular-34" x="344.499893"/>
     <use xlink:href="#STIXGeneral-Regular-20" x="394.499878"/>
     <use xlink:href="#STIXGeneral-Regular-28" x="419.499863"/>
     <use xlink:href="#STIXGeneral-Regular-34" x="452.79985"/>
     <use xlink:href="#STIXGeneral-Regular-25" x="502.799835"/>
     <use xlink:href="#STIXGeneral-Regular-29" x="577.499817"/>
    </g>
   </g>
   <g id="text_12">
    <!-- # items: 2 (29%) -->
    <g transform="translate(280.202872 227.620545) rotate(-312.000009) scale(0.12 -0.12)">
     <defs>
      <path id="STIXGeneral-Regular-39" d="M 378 -141 
L 358 -13 
Q 1094 115 1603 608 
Q 2112 1101 2304 1882 
Q 1933 1517 1344 1517 
Q 826 1517 509 1875 
Q 192 2234 192 2816 
Q 192 3462 573 3894 
Q 954 4326 1523 4326 
Q 2131 4326 2528 3840 
Q 2938 3328 2938 2522 
Q 2938 1958 2742 1462 
Q 2547 966 2170 621 
Q 1773 262 1395 105 
Q 1018 -51 378 -141 
z
M 2317 2272 
L 2317 2522 
Q 2317 4147 1472 4147 
Q 1171 4147 1005 3930 
Q 909 3802 845 3546 
Q 781 3290 781 3034 
Q 781 2464 995 2128 
Q 1210 1792 1568 1792 
Q 1824 1792 2070 1917 
Q 2317 2042 2317 2272 
z
" transform="scale(0.015625)"/>
     </defs>
     <use xlink:href="#STIXGeneral-Regular-23"/>
     <use xlink:href="#STIXGeneral-Regular-20" x="49.999985"/>
     <use xlink:href="#STIXGeneral-Regular-69" x="74.999969"/>
     <use xlink:href="#STIXGeneral-Regular-74" x="102.799957"/>
     <use xlink:href="#STIXGeneral-Regular-65" x="130.599945"/>
     <use xlink:href="#STIXGeneral-Regular-6d" x="174.999939"/>
     <use xlink:href="#STIXGeneral-Regular-73" x="252.799927"/>
     <use xlink:href="#STIXGeneral-Regular-3a" x="291.699921"/>
     <use xlink:href="#STIXGeneral-Regular-20" x="319.499908"/>
     <use xlink:href="#STIXGeneral-Regular-32" x="344.499893"/>
     <use xlink:href="#STIXGeneral-Regular-20" x="394.499878"/>
     <use xlink:href="#STIXGeneral-Regular-28" x="419.499863"/>
     <use xlink:href="#STIXGeneral-Regular-32" x="452.79985"/>
     <use xlink:href="#STIXGeneral-Regular-39" x="502.799835"/>
     <use xlink:href="#STIXGeneral-Regular-25" x="552.79982"/>
     <use xlink:href="#STIXGeneral-Regular-29" x="627.499802"/>
    </g>
   </g>
   <g id="text_13">
    <!-- # items: 5 (7%) -->
    <g transform="translate(306.996832 187.306554) rotate(-352.00001) scale(0.12 -0.12)">
     <use xlink:href="#STIXGeneral-Regular-23"/>
     <use xlink:href="#STIXGeneral-Regular-20" x="49.999985"/>
     <use xlink:href="#STIXGeneral-Regular-69" x="74.999969"/>
     <use xlink:href="#STIXGeneral-Regular-74" x="102.799957"/>
     <use xlink:href="#STIXGeneral-Regular-65" x="130.599945"/>
     <use xlink:href="#STIXGeneral-Regular-6d" x="174.999939"/>
     <use xlink:href="#STIXGeneral-Regular-73" x="252.799927"/>
     <use xlink:href="#STIXGeneral-Regular-3a" x="291.699921"/>
     <use xlink:href="#STIXGeneral-Regular-20" x="319.499908"/>
     <use xlink:href="#STIXGeneral-Regular-35" x="344.499893"/>
     <use xlink:href="#STIXGeneral-Regular-20" x="394.499878"/>
     <use xlink:href="#STIXGeneral-Regular-28" x="419.499863"/>
     <use xlink:href="#STIXGeneral-Regular-37" x="452.79985"/>
     <use xlink:href="#STIXGeneral-Regular-25" x="502.799835"/>
     <use xlink:href="#STIXGeneral-Regular-29" x="577.499817"/>
    </g>
   </g>
   <g id="legend_1">
    <g id="patch_18">
     <path d="M 56.8816 289.2784 
L 181.055038 289.2784 
Q 183.055038 289.2784 183.055038 287.2784 
L 183.055038 245.708087 
Q 183.055038 243.708087 181.055038 243.708087 
L 56.8816 243.708087 
Q 54.8816 243.708087 54.8816 245.708087 
L 54.8816 287.2784 
Q 54.8816 289.2784 56.8816 289.2784 
z
" style="fill: #ffffff; opacity: 0.8; stroke: #cccccc; stroke-linejoin: miter"/>
    </g>
    <g id="patch_19">
     <path d="M 58.8816 254.708087 
L 78.8816 254.708087 
L 78.8816 247.708087 
L 58.8816 247.708087 
z
" style="fill: #f68a7b; fill-opacity: 0.9; stroke: #ffffff; stroke-linejoin: miter"/>
    </g>
    <g id="text_14">
     <!-- failure (26.7%) -->
     <g transform="translate(86.8816 254.708087) scale(0.1 -0.1)">
      <defs>
       <path id="STIXGeneral-Regular-75" d="M 3072 320 
L 3072 230 
Q 2573 96 2195 -58 
L 2163 -38 
L 2163 486 
L 2150 486 
Q 1747 -64 1235 -64 
Q 870 -64 662 160 
Q 454 384 454 755 
L 454 2362 
Q 454 2598 371 2688 
Q 288 2778 58 2790 
L 58 2880 
L 992 2880 
L 992 813 
Q 992 595 1123 451 
Q 1254 307 1446 307 
Q 1760 307 1984 506 
Q 2067 582 2099 649 
Q 2131 717 2131 877 
L 2131 2355 
Q 2131 2605 2041 2678 
Q 1952 2752 1658 2771 
L 1658 2880 
L 2669 2880 
L 2669 685 
Q 2669 461 2742 390 
Q 2816 320 3034 320 
L 3072 320 
z
" transform="scale(0.015625)"/>
      </defs>
      <use xlink:href="#STIXGeneral-Regular-66"/>
      <use xlink:href="#STIXGeneral-Regular-61" x="33.299988"/>
      <use xlink:href="#STIXGeneral-Regular-69" x="77.699982"/>
      <use xlink:href="#STIXGeneral-Regular-6c" x="105.499969"/>
      <use xlink:href="#STIXGeneral-Regular-75" x="133.299957"/>
      <use xlink:href="#STIXGeneral-Regular-72" x="183.299942"/>
      <use xlink:href="#STIXGeneral-Regular-65" x="216.59993"/>
      <use xlink:href="#STIXGeneral-Regular-20" x="260.999924"/>
      <use xlink:href="#STIXGeneral-Regular-28" x="285.999908"/>
      <use xlink:href="#STIXGeneral-Regular-32" x="319.299896"/>
      <use xlink:href="#STIXGeneral-Regular-36" x="369.299881"/>
      <use xlink:href="#STIXGeneral-Regular-2e" x="419.299866"/>
      <use xlink:href="#STIXGeneral-Regular-37" x="444.29985"/>
      <use xlink:href="#STIXGeneral-Regular-25" x="494.299835"/>
      <use xlink:href="#STIXGeneral-Regular-29" x="568.999817"/>
     </g>
    </g>
    <g id="patch_20">
     <path d="M 58.8816 268.937775 
L 78.8816 268.937775 
L 78.8816 261.937775 
L 58.8816 261.937775 
z
" style="fill: #c1b8f7; fill-opacity: 0.9; stroke: #ffffff; stroke-linejoin: miter"/>
    </g>
    <g id="text_15">
     <!-- partial success (11.1%) -->
     <g transform="translate(86.8816 268.937775) scale(0.1 -0.1)">
      <use xlink:href="#STIXGeneral-Regular-70"/>
      <use xlink:href="#STIXGeneral-Regular-61" x="49.999985"/>
      <use xlink:href="#STIXGeneral-Regular-72" x="94.399979"/>
      <use xlink:href="#STIXGeneral-Regular-74" x="127.699966"/>
      <use xlink:href="#STIXGeneral-Regular-69" x="155.499954"/>
      <use xlink:href="#STIXGeneral-Regular-61" x="183.299942"/>
      <use xlink:href="#STIXGeneral-Regular-6c" x="227.699936"/>
      <use xlink:href="#STIXGeneral-Regular-20" x="255.499924"/>
      <use xlink:href="#STIXGeneral-Regular-73" x="280.499908"/>
      <use xlink:href="#STIXGeneral-Regular-75" x="319.399902"/>
      <use xlink:href="#STIXGeneral-Regular-63" x="369.399887"/>
      <use xlink:href="#STIXGeneral-Regular-63" x="413.799881"/>
      <use xlink:href="#STIXGeneral-Regular-65" x="458.199875"/>
      <use xlink:href="#STIXGeneral-Regular-73" x="502.599869"/>
      <use xlink:href="#STIXGeneral-Regular-73" x="541.499863"/>
      <use xlink:href="#STIXGeneral-Regular-20" x="580.399857"/>
      <use xlink:href="#STIXGeneral-Regular-28" x="605.399841"/>
      <use xlink:href="#STIXGeneral-Regular-31" x="638.699829"/>
      <use xlink:href="#STIXGeneral-Regular-31" x="688.699814"/>
      <use xlink:href="#STIXGeneral-Regular-2e" x="738.699799"/>
      <use xlink:href="#STIXGeneral-Regular-31" x="763.699783"/>
      <use xlink:href="#STIXGeneral-Regular-25" x="813.699768"/>
      <use xlink:href="#STIXGeneral-Regular-29" x="888.39975"/>
     </g>
    </g>
    <g id="patch_21">
     <path d="M 58.8816 283.108087 
L 78.8816 283.108087 
L 78.8816 276.108087 
L 58.8816 276.108087 
z
" style="fill: #93cec3; fill-opacity: 0.9; stroke: #ffffff; stroke-linejoin: miter"/>
    </g>
    <g id="text_16">
     <!-- success (62.2%) -->
     <g transform="translate(86.8816 283.108087) scale(0.1 -0.1)">
      <use xlink:href="#STIXGeneral-Regular-73"/>
      <use xlink:href="#STIXGeneral-Regular-75" x="38.899994"/>
      <use xlink:href="#STIXGeneral-Regular-63" x="88.899979"/>
      <use xlink:href="#STIXGeneral-Regular-63" x="133.299973"/>
      <use xlink:href="#STIXGeneral-Regular-65" x="177.699966"/>
      <use xlink:href="#STIXGeneral-Regular-73" x="222.09996"/>
      <use xlink:href="#STIXGeneral-Regular-73" x="260.999954"/>
      <use xlink:href="#STIXGeneral-Regular-20" x="299.899948"/>
      <use xlink:href="#STIXGeneral-Regular-28" x="324.899933"/>
      <use xlink:href="#STIXGeneral-Regular-36" x="358.199921"/>
      <use xlink:href="#STIXGeneral-Regular-32" x="408.199905"/>
      <use xlink:href="#STIXGeneral-Regular-2e" x="458.19989"/>
      <use xlink:href="#STIXGeneral-Regular-32" x="483.199875"/>
      <use xlink:href="#STIXGeneral-Regular-25" x="533.19986"/>
      <use xlink:href="#STIXGeneral-Regular-29" x="607.899841"/>
     </g>
    </g>
   </g>
  </g>
 </g>
</svg>
